<?xml version="1.0" encoding="UTF-8"?>
<svg width="54px" height="54px" viewBox="0 0 54 54" version="1.1" xmlns="http://www.w3.org/2000/svg" xmlns:xlink="http://www.w3.org/1999/xlink">
    <!-- Generator: Sketch 53 (72520) - https://sketchapp.com -->
    <title>btn_paste</title>
    <desc>Created with Sketch.</desc>
    <defs>
        <circle id="path-1" cx="23" cy="23" r="23"></circle>
        <filter x="-15.2%" y="-10.9%" width="130.4%" height="130.4%" filterUnits="objectBoundingBox" id="filter-2">
            <feOffset dx="0" dy="2" in="SourceAlpha" result="shadowOffsetOuter1"></feOffset>
            <feGaussianBlur stdDeviation="2" in="shadowOffsetOuter1" result="shadowBlurOuter1"></feGaussianBlur>
            <feColorMatrix values="0 0 0 0 0.0549019608   0 0 0 0 0.37254902   0 0 0 0 0.764705882  0 0 0 0.25 0" type="matrix" in="shadowBlurOuter1"></feColorMatrix>
        </filter>
    </defs>
    <g id="Lord-2" stroke="none" stroke-width="1" fill="none" fill-rule="evenodd">
        <g id="Lord-V2-Order-Add-order-2-1" transform="translate(-589.000000, -551.000000)">
            <g id="btn_paste" transform="translate(593.000000, 553.000000)">
                <g id="Group">
                    <g id="Oval">
                        <use fill="black" fill-opacity="1" filter="url(#filter-2)" xlink:href="#path-1"></use>
                        <use fill="#5E72E4" fill-rule="evenodd" xlink:href="#path-1"></use>
                    </g>
                    <g id="paste-from-clipboard" transform="translate(16.000000, 16.000000)" fill="#FFFFFF" fill-rule="nonzero">
                        <path d="M14.8218164,7.82926758 C14.7102246,7.56158203 14.5763672,7.34964844 14.4202734,7.19349609 L11.0075977,3.78084961 C10.9239844,3.69717773 10.8235254,3.61913086 10.7064258,3.54665039 L10.7064258,0.803173828 C10.7064258,0.580048828 10.6284082,0.390322266 10.4722266,0.234316406 C10.3162207,0.0781054687 10.1265234,0.0001171875 9.90354492,0.0001171875 L0.802910156,0.0001171875 C0.579931641,0.0001171875 0.390292969,0.0781347656 0.234140625,0.234316406 C0.0780175781,0.390410156 0,0.580048828 0,0.803173828 L0,12.0449707 C0,12.2679199 0.0780175781,12.4574414 0.234140625,12.613418 C0.390292969,12.7696289 0.579931641,12.8476172 0.802910156,12.8476172 L5.35324219,12.8476172 L5.35324219,14.1859863 C5.35324219,14.4090527 5.43123047,14.59875 5.58738281,14.7547559 C5.74344727,14.9109375 5.93308594,14.9889551 6.15615234,14.9889551 L14.1861621,14.9889551 C14.4091113,14.9889551 14.5988086,14.9109375 14.7548145,14.7547559 C14.9110254,14.59875 14.9890137,14.4090527 14.9890137,14.1859863 L14.9890137,8.56508789 C14.989043,8.34210937 14.9333203,8.09677734 14.8218164,7.82926758 Z M10.7064258,4.99362305 L13.2074707,7.49452148 L10.7064258,7.49452148 L10.7064258,4.99362305 Z M2.40890625,2.14125 C2.33642578,2.14125 2.27370117,2.11479492 2.22073242,2.06179687 C2.16779297,2.00879883 2.1412793,1.94619141 2.1412793,1.87362305 L2.1412793,1.33833984 C2.1412793,1.26585937 2.16779297,1.20307617 2.22073242,1.15016602 C2.27373047,1.09716797 2.33642578,1.07071289 2.40890625,1.07071289 L8.29760742,1.07071289 C8.37,1.07071289 8.43272461,1.09716797 8.48569336,1.15016602 C8.53863281,1.20310547 8.56529297,1.26585937 8.56529297,1.33833984 L8.56529297,1.87362305 C8.56529297,1.9462207 8.53854492,2.00882812 8.48569336,2.06179688 C8.43272461,2.11479492 8.37,2.14125 8.29740234,2.14125 L2.40890625,2.14125 Z M13.9183008,13.9185059 L6.4237207,13.9185059 L6.4237207,4.2825293 L9.63585937,4.2825293 L9.63585937,7.76232422 C9.63585937,7.98527344 9.71384766,8.17488281 9.87005859,8.33097656 C10.0260645,8.48707031 10.2155566,8.56505859 10.4387109,8.56505859 L13.9183008,8.56505859 L13.9183008,13.9185059 L13.9183008,13.9185059 Z" id="Shape"></path>
                    </g>
                </g>
            </g>
        </g>
    </g>
</svg>