<?xml version="1.0" encoding="UTF-8"?>
<svg width="51px" height="42px" viewBox="0 0 51 42" version="1.1" xmlns="http://www.w3.org/2000/svg" xmlns:xlink="http://www.w3.org/1999/xlink">
    <!-- Generator: sketchtool 53 (72520) - https://sketchapp.com -->
    <title>7EAD300F-2BE8-4F52-92FD-AA1B9F9B3D22</title>
    <desc>Created with sketchtool.</desc>
    <g id="Lord-2" stroke="none" stroke-width="1" fill="none" fill-rule="evenodd">
        <g id="Lord-V2-Trip-Recent-Finished-detail" transform="translate(-809.000000, -1503.000000)" fill-rule="nonzero">
            <g id="icon_cad" transform="translate(809.000000, 1503.000000)">
                <path d="M4.30616959,40.7301058 L1.58368421,40.7301058 L1.58368421,1.03919712 C1.58368421,0.890682692 1.70228655,0.770235577 1.84852632,0.770235577 L4.30616959,0.770235577 C4.30616959,0.770235577 4.30616959,40.7301058 4.30616959,40.7301058 Z" id="Path" fill="#AF8A82"></path>
                <path d="M4.88387135,41.2297644 L1.00598246,41.2297644 C0.861830409,41.2297644 0.744918129,41.1110337 0.744918129,40.9646394 L0.744918129,38.6402019 C0.744918129,38.4938077 0.861830409,38.3750769 1.00598246,38.3750769 L4.88387135,38.3750769 C5.02802339,38.3750769 5.14493567,38.4938077 5.14493567,38.6402019 L5.14493567,40.9646394 C5.14493567,41.1112356 5.02802339,41.2297644 4.88387135,41.2297644 Z" id="Path" fill="#FF901D"></path>
                <path d="M49.3169006,40.7301058 L46.5944152,40.7301058 L46.5944152,0.770235577 L49.0520585,0.770235577 C49.1982982,0.770235577 49.3169006,0.890682692 49.3169006,1.03919712 L49.3169006,40.7301058 Z" id="Path" fill="#AF8A82"></path>
                <path d="M49.3361871,15.5693798 L1.58368421,15.5693798 L1.58368421,1.03919712 C1.58368421,0.890682692 1.70228655,0.770235577 1.84852632,0.770235577 L49.071345,0.770235577 C49.2175848,0.770235577 49.3361871,0.890682692 49.3361871,1.03919712 L49.3361871,15.5693798 Z" id="Path" fill="#E1EFFB"></path>
                <path d="M49.071345,0.770235577 L44.8169708,0.770235577 L44.8169708,15.5693798 L49.3361871,15.5693798 L49.3361871,1.03919712 C49.3361871,0.890581731 49.2175848,0.770235577 49.071345,0.770235577 Z" id="Path" fill="#C3D8E5"></path>
                <path d="M49.8946023,41.2297644 L46.0167135,41.2297644 C45.8725614,41.2297644 45.7556491,41.1110337 45.7556491,40.9646394 L45.7556491,38.6402019 C45.7556491,38.4938077 45.8725614,38.3750769 46.0167135,38.3750769 L49.8946023,38.3750769 C50.0387544,38.3750769 50.1556667,38.4938077 50.1556667,38.6402019 L50.1556667,40.9646394 C50.1556667,41.1112356 50.0387544,41.2297644 49.8946023,41.2297644 Z" id="Path" fill="#FF901D"></path>
                <path d="M12.0267544,4.92742788 C12.2864269,4.92742788 12.4280936,4.66371635 12.4280936,4.35194712 C12.4280936,4.08823558 12.3100877,3.80049519 12.0267544,3.80049519 L7.88332749,3.80049519 C7.61182456,3.80049519 7.32849123,3.94426442 7.32849123,4.22009135 L7.32849123,12.1441587 C7.32849123,12.431899 7.64721637,12.5637548 7.95411111,12.5637548 C8.27283626,12.5637548 8.57973099,12.431899 8.57973099,12.1441587 L8.57973099,8.67966346 L10.4094678,8.67966346 C10.6928012,8.67966346 10.810807,8.41595192 10.810807,8.18818269 C10.810807,7.91245673 10.6691404,7.67267308 10.4094678,7.67267308 L8.57973099,7.67267308 L8.57973099,4.92742788 L12.0267544,4.92742788 Z" id="Path" fill="#000000"></path>
                <path d="M15.544462,12.1442596 L15.544462,4.20817788 C15.544462,3.9204375 15.2375673,3.80059615 14.9188421,3.80059615 C14.6119474,3.80059615 14.2932222,3.9204375 14.2932222,4.20817788 L14.2932222,12.1442596 C14.2932222,12.4200865 14.6119474,12.5638558 14.9188421,12.5638558 C15.2375673,12.5638558 15.544462,12.4200865 15.544462,12.1442596 Z" id="Path" fill="#000000"></path>
                <path d="M19.3926257,12.1442596 L19.3926257,6.64175481 L22.2139298,12.0964038 C22.3792573,12.4080721 22.6506608,12.5638558 22.957655,12.5638558 C23.2763801,12.5638558 23.5832749,12.4200865 23.5832749,12.1442596 L23.5832749,4.20817788 C23.5832749,3.9204375 23.2763801,3.80059615 22.957655,3.80059615 C22.6507602,3.80059615 22.3320351,3.9204375 22.3320351,4.20817788 L22.3320351,9.71078365 L19.7114503,4.51984615 C19.428117,3.96839423 19.2156667,3.80059615 18.7671053,3.80059615 C18.4483801,3.80059615 18.1414854,3.9204375 18.1414854,4.22019231 L18.1414854,12.1442596 C18.1414854,12.4200865 18.4602105,12.5638558 18.7671053,12.5638558 C19.085731,12.5638558 19.3926257,12.4200865 19.3926257,12.1442596 Z" id="Path" fill="#000000"></path>
                <path d="M27.4313392,12.1442596 L27.4313392,4.20817788 C27.4313392,3.9204375 27.1244444,3.80059615 26.8057193,3.80059615 C26.4988246,3.80059615 26.1800994,3.9204375 26.1800994,4.20817788 L26.1800994,12.1442596 C26.1800994,12.4200865 26.4988246,12.5638558 26.8057193,12.5638558 C27.1244444,12.5638558 27.4313392,12.4200865 27.4313392,12.1442596 Z" id="Path" fill="#000000"></path>
                <path d="M32.1530643,11.5089087 C30.8427719,11.5089087 30.5594386,10.5618894 30.1344386,10.5618894 C29.8393743,10.5618894 29.5914327,10.9574567 29.5914327,11.2451971 C29.5914327,11.8446058 30.665614,12.6597692 32.2002865,12.6597692 C33.7584211,12.6597692 34.891655,11.820476 34.891655,10.10625 C34.891655,6.91737981 31.0552222,7.72062981 31.0552222,5.94633173 C31.0552222,5.19113942 31.6690117,4.85544231 32.5308421,4.85544231 C33.5342398,4.85544231 33.8411345,5.31098077 34.1598596,5.31098077 C34.5139766,5.31098077 34.6793041,4.86745673 34.6793041,4.62767308 C34.6793041,3.96829327 33.2981287,3.76445192 32.5308421,3.76445192 C31.2677719,3.76445192 29.8039825,4.29197596 29.8039825,6.06617308 C29.8039825,8.943375 33.6404152,8.11609615 33.6404152,10.2381058 C33.6404152,11.1013269 33.0029649,11.5089087 32.1530643,11.5089087 Z" id="Path" fill="#000000"></path>
                <path d="M42.5527895,12.1442596 L42.5527895,4.20817788 C42.5527895,3.9204375 42.2458947,3.80059615 41.9271696,3.80059615 C41.6202749,3.80059615 41.3015497,3.9204375 41.3015497,4.20817788 L41.3015497,7.51688942 L38.3622398,7.51688942 L38.3622398,4.20817788 C38.3622398,3.9204375 38.055345,3.80059615 37.7366199,3.80059615 C37.4297251,3.80059615 37.111,3.9204375 37.111,4.20817788 L37.111,12.1442596 C37.111,12.4200865 37.4297251,12.5638558 37.7366199,12.5638558 C38.055345,12.5638558 38.3622398,12.4200865 38.3622398,12.1442596 L38.3622398,8.52387981 L41.3015497,8.52387981 L41.3015497,12.1442596 C41.3015497,12.4200865 41.6202749,12.5638558 41.9271696,12.5638558 C42.2458947,12.5638558 42.5527895,12.4200865 42.5527895,12.1442596 Z" id="Path" fill="#000000"></path>
                <path d="M39.3388947,14.812875 L2.32860234,14.812774 C2.32800585,14.812774 2.32860234,14.812774 2.32800585,14.812774 L2.32860234,14.812774 L2.32860234,1.52674038 L8.1155614,1.52674038 C8.52704094,1.52674038 8.86047953,1.18811538 8.86047953,0.770235577 C8.86047953,0.352355769 8.52704094,0.0137307692 8.1155614,0.0137307692 L1.8484269,0.0137307692 C1.29170175,0.0137307692 0.838666667,0.473711538 0.838666667,1.03919712 L0.838666667,37.6339183 L0.838666667,37.6339183 L0.838666667,37.6339183 C0.363561404,37.7151923 0,38.1348894 0,38.6402019 L0,40.9646394 C0,41.5280048 0.451345029,41.9861683 1.00598246,41.9861683 L4.88387135,41.9861683 C5.43860819,41.9861683 5.8898538,41.5279038 5.8898538,40.9646394 L5.8898538,38.6402019 C5.8898538,38.1347885 5.5262924,37.7151923 5.05108772,37.6339183 L5.05108772,16.3258846 L39.3388947,16.3258846 C39.7503743,16.3258846 40.0838129,15.9872596 40.0838129,15.5693798 C40.0838129,15.151601 39.7503743,14.812875 39.3388947,14.812875 Z M2.32860234,16.3258846 L3.56125146,16.3258846 L3.56125146,37.6186731 L2.32860234,37.6186731 L2.32860234,16.3258846 Z M4.40001754,40.4732596 L1.48983626,40.4732596 L1.48983626,39.1316827 L1.58368421,39.1316827 L4.30616959,39.1316827 L4.40001754,39.1316827 C4.40001754,39.1316827 4.40001754,40.4732596 4.40001754,40.4732596 Z" id="Shape" fill="#000000"></path>
                <path d="M50.0618187,37.6341202 L50.0618187,15.7383894 C50.0740468,15.6839712 50.0811053,15.6276346 50.0811053,15.5694808 L50.0811053,1.03919712 C50.0811053,0.473711538 49.6281696,0.0137307692 49.071345,0.0137307692 L11.5816725,0.0137307692 C11.170193,0.0137307692 10.8367544,0.352355769 10.8367544,0.770235577 C10.8367544,1.18811538 11.170193,1.52674038 11.5816725,1.52674038 L48.591269,1.52674038 L48.591269,14.812875 L48.591269,14.812875 C48.5905731,14.812875 48.5918655,14.812875 48.591269,14.812875 L42.8050058,14.812976 C42.3935263,14.812976 42.0600877,15.151601 42.0600877,15.5694808 C42.0600877,15.9873606 42.3935263,16.3259856 42.8050058,16.3259856 L45.8495965,16.3259856 L45.8495965,37.6340192 C45.3743918,37.7152933 45.0108304,38.1348894 45.0108304,38.6403029 L45.0108304,40.9647404 C45.0108304,41.5281058 45.4621754,41.9862692 46.0168129,41.9862692 L49.8947018,41.9862692 C50.4494386,41.9862692 50.9006842,41.5280048 50.9006842,40.9647404 L50.9006842,38.6403029 C50.9005848,38.1348894 50.5370234,37.7151923 50.0618187,37.6341202 Z M47.3393333,16.3258846 L48.5719825,16.3258846 L48.5719825,37.6186731 L47.3393333,37.6186731 L47.3393333,16.3258846 Z M49.4107485,40.4732596 L46.5005673,40.4732596 L46.5005673,39.1316827 L46.5944152,39.1316827 L49.3169006,39.1316827 L49.4107485,39.1316827 L49.4107485,40.4732596 Z" id="Shape" fill="#000000"></path>
            </g>
        </g>
    </g>
</svg>