<?xml version="1.0" encoding="UTF-8"?>
<svg width="720px" height="720px" viewBox="0 0 720 720" version="1.1" xmlns="http://www.w3.org/2000/svg" xmlns:xlink="http://www.w3.org/1999/xlink">
    <!-- Generator: Sketch 53 (72520) - https://sketchapp.com -->
    <title>Haimens logo</title>
    <desc>Created with Sketch.</desc>
    <defs>
        <linearGradient x1="0%" y1="0%" x2="100%" y2="100%" id="linearGradient-1">
            <stop stop-color="#4776E6" offset="0%"></stop>
            <stop stop-color="#8E54E9" offset="100%"></stop>
        </linearGradient>
    </defs>
    <g id="Logo" stroke="none" stroke-width="1" fill="#fff" fill-rule="evenodd">
        <g id="HAIMENS-favicon" transform="translate(-140.000000, -140.000000)" fill="#fff">
            <path d="M489.155765,456.99932 C503.357796,399.490453 522.479625,345.717872 546.521252,295.681577 L504.004165,252 C468.137922,321.425571 442.814767,392.320691 428.034701,464.685359 C361.88364,473.659175 311.872073,482.880337 278,492.348843 L283.693833,538.721393 C322.400006,523.505969 368.640412,509.052714 422.415052,495.361628 C415.773023,536.296478 412.466355,577.696232 412.495062,619.560888 L460.184539,659.632912 C463.460058,596.592982 471.264799,536.99272 483.598762,480.832124 C510.731217,474.810915 539.445514,468.949725 569.741653,463.248556 C546.513355,549.224831 534.925787,630.975894 534.978948,708.501747 L582.668424,748.57377 C585.44014,645.639274 600.93978,546.98661 629.167343,452.61578 C649.993753,449.070217 671.477862,445.591188 693.619672,442.178692 L692.5417,437.00396 C671.774575,438.752821 651.698805,440.512276 632.314389,442.282327 C643.285443,406.892233 656.058402,372.108322 670.633266,337.930594 L628.116179,294.249018 C606.222475,346.848901 588.188667,398.047766 574.014755,447.845614 C543.763678,450.866739 515.477348,453.917974 489.155765,456.99932 Z M500,860 C301.17749,860 140,698.82251 140,500 C140,301.17749 301.17749,140 500,140 C698.82251,140 860,301.17749 860,500 C860,698.82251 698.82251,860 500,860 Z" id="Haimens-logo"></path>
        </g>
    </g>
</svg>