<?xml version="1.0" encoding="UTF-8"?>
<svg width="48px" height="48px" viewBox="0 0 48 48" version="1.1" xmlns="http://www.w3.org/2000/svg" xmlns:xlink="http://www.w3.org/1999/xlink">
    <!-- Generator: Sketch 53 (72520) - https://sketchapp.com -->
    <title>homeicon_customer</title>
    <desc>Created with Sketch.</desc>
    <defs>
        <linearGradient x1="0%" y1="50%" x2="100%" y2="50%" id="linearGradient-1">
            <stop stop-color="#F5385A" offset="0%"></stop>
            <stop stop-color="#F55D38" offset="100%"></stop>
        </linearGradient>
    </defs>
    <g id="Lord-2" stroke="none" stroke-width="1" fill="none" fill-rule="evenodd">
        <g id="Lord-V2-Dashboard" transform="translate(-424.000000, -160.000000)">
            <g id="homeicon_customer" transform="translate(424.000000, 160.000000)">
                <circle id="Oval" fill="url(#linearGradient-1)" cx="24" cy="24" r="24"></circle>
                <g id="icon_customer" transform="translate(15.000000, 14.000000)" fill="#FFFFFF" fill-rule="nonzero">
                    <path d="M16.6118597,2.81846216 C16.391206,2.60279605 16.0972112,2.484375 15.7866149,2.49136516 C15.4747577,2.49588816 15.1853862,2.62047695 14.9716673,2.84272205 L12.2458589,5.67598684 C11.87411,5.479852 11.4823972,5.32339637 11.0778654,5.20744242 C11.8530953,4.69572368 12.3639611,3.82833058 12.3639611,2.84642268 C12.3639611,1.27672695 11.0587421,0 9.4544848,0 C7.84980713,0 6.54479826,1.27693258 6.54479826,2.84642268 C6.54479826,3.81044411 7.03822191,4.66262337 7.7897053,5.17763158 C5.21499209,5.86122532 3.31295736,8.16138979 3.31295736,10.8939145 L3.31295736,14.9617599 L0.31837175,18.0746299 C-0.107384804,18.5174753 -0.0968774589,19.2010691 0.342328408,19.6315789 C0.558569,19.8429276 0.84478837,19.958676 1.14971075,19.958676 L1.16757318,19.958676 C1.47922025,19.9539474 1.76880191,19.8293585 1.98252074,19.6071135 L2.81470033,18.7419819 C2.80062056,19.0474918 2.91346915,19.3564967 3.1490432,19.5871711 C3.36255191,19.7956415 3.64730024,19.9101563 3.94465735,19.9101563 C3.98332428,19.9101563 4.02220134,19.9083059 4.06128859,19.9043997 C4.40004447,19.8702714 4.70202484,19.6905839 4.88947539,19.4111842 C5.08974486,19.1116365 5.31586234,18.8347039 5.56362491,18.5822368 L13.8803773,18.5822368 C14.0728714,18.7771382 14.2538074,18.9849918 14.4177215,19.2082648 C14.6064329,19.4650494 14.9012683,19.6272615 15.2261546,19.6531661 C15.5611279,19.6796875 15.8853837,19.5627056 16.1213781,19.3316201 C16.5166634,18.9449013 16.5668884,18.3435444 16.2407412,17.9017269 C15.9921381,17.5651727 15.716426,17.2534951 15.4213805,16.9634046 C15.4245327,16.9446957 15.4327285,16.9280427 15.4327285,16.9087171 L15.4327285,10.8939145 C15.4327285,9.49938321 14.9290076,8.16138979 14.0184434,7.09642268 L16.6364468,4.37520558 C17.0622033,3.93215463 17.0514858,3.24835526 16.6118597,2.81846216 Z M7.27946994,2.84662832 C7.27946994,1.67331416 8.25538964,0.71875 9.4544848,0.71875 C10.65379,0.71875 11.6294996,1.67331416 11.6294996,2.84662832 C11.6294996,3.99403784 10.6958193,4.92968747 9.53307951,4.97060032 C9.47970236,4.96936679 9.42632516,4.96566611 9.37294796,4.96566611 C9.35613625,4.96566611 9.34016518,4.96792763 9.3235636,4.96792763 C8.18520078,4.90111021 7.27946994,3.97656253 7.27946994,2.84662832 Z M4.04762904,10.8939145 C4.04762904,8.03762337 6.41009446,5.71299342 9.32335347,5.68667763 C9.36727404,5.68852795 9.4101439,5.693051 9.4544848,5.693051 C9.48117334,5.693051 9.50681123,5.68996711 9.53307951,5.68914474 C10.2952804,5.71175989 11.0438217,5.89206416 11.723435,6.21936679 L4.04741891,14.1983964 L4.04741891,10.8939145 L4.04762904,10.8939145 Z M6.42417422,17.8636924 C7.37823875,17.2119655 8.52311613,16.8488898 9.72389241,16.8488898 C10.9131107,16.8488898 12.0602997,17.2134046 13.0175163,17.8636924 L6.42417422,17.8636924 Z M15.6018963,18.8233964 C15.518258,18.9048108 15.4056195,18.9461348 15.285626,18.9370888 C15.2209009,18.931949 15.0998566,18.9056332 15.0141169,18.7890625 C13.791065,17.1241776 11.8133777,16.1303454 9.72389241,16.1303454 C7.52155854,16.1303454 5.48460988,17.2097039 4.27500743,19.0174753 C4.20923163,19.114926 4.10436859,19.1776316 3.98584604,19.1897615 C3.87257714,19.2016858 3.75279368,19.1615954 3.66180032,19.0719573 C3.52835742,18.9420231 3.5071326,18.7354029 3.61115506,18.5810033 C4.96975127,16.5596217 7.25509296,15.3527961 9.72389241,15.3527961 C12.057988,15.3527961 14.2716698,16.4629934 15.6451864,18.322574 C15.7571944,18.474301 15.7384914,18.6897615 15.6018963,18.8233964 L15.6018963,18.8233964 Z M14.6980568,10.8939145 L14.6980568,16.332648 C13.2934385,15.2489721 11.5429193,14.6342516 9.72389241,14.6342516 C8.3287307,14.6342516 6.98799692,14.9864309 5.81033672,15.6282895 L13.5111501,7.62356084 C14.2754524,8.54851974 14.6980568,9.69736842 14.6980568,10.8939145 Z M16.101204,3.88260689 L1.447278,19.1147204 C1.37141518,19.1940789 1.26760285,19.2386924 1.15643544,19.2403372 C1.0488405,19.2341694 0.940194791,19.2002467 0.861600079,19.1233553 C0.705041054,18.9697779 0.701048259,18.7255345 0.853404358,18.5674342 L15.5067,3.33532074 C15.5827729,3.25596216 15.6865853,3.21155426 15.7977527,3.20970395 L15.804057,3.20970395 C15.913123,3.20970395 16.0154643,3.25123358 16.092588,3.32689147 C16.2495673,3.48026316 16.2535601,3.72450658 16.101204,3.88260689 Z" id="Shape"></path>
                </g>
            </g>
        </g>
    </g>
</svg>