<?xml version="1.0" encoding="UTF-8"?>
<svg width="21px" height="18px" viewBox="0 0 21 18" version="1.1" xmlns="http://www.w3.org/2000/svg" xmlns:xlink="http://www.w3.org/1999/xlink">
    <!-- Generator: Sketch 53 (72520) - https://sketchapp.com -->
    <title>home</title>
    <desc>Created with Sketch.</desc>
    <g id="Puri" stroke="none" stroke-width="1" fill="none" fill-rule="evenodd">
        <g id="Slices" transform="translate(-104.000000, -77.000000)" fill="#FFFFFF" fill-rule="nonzero">
            <g id="home" transform="translate(104.000000, 77.000000)">
                <path d="M20.7771053,7.1160524 L10.8421813,0.132327511 C10.6506023,-0.00231877729 10.3903333,-0.00231877729 10.1988363,0.132327511 L0.263830409,7.1160524 C0.0211637427,7.28665939 -0.0315614035,7.61380349 0.146140351,7.84678166 C0.323842105,8.07975983 0.664631579,8.13030131 0.90725731,7.95977293 L10.5204678,1.20214847 L20.1336784,7.95973362 C20.230614,8.0279214 20.343269,8.06073799 20.4549415,8.06073799 C20.622614,8.06073799 20.788076,7.98665502 20.8947544,7.84674236 C21.0724971,7.61380349 21.0197719,7.28665939 20.7771053,7.1160524 Z" id="Shape"></path>
                <path d="M18.1445731,8.07810917 C17.8438596,8.07810917 17.6000058,8.31218777 17.6000058,8.6009345 L17.6000058,16.9229476 L13.2435497,16.9229476 L13.2435497,12.3802664 C13.2435497,10.9386943 12.0219474,9.76594323 10.5205088,9.76594323 C9.01907018,9.76594323 7.79746784,10.9387729 7.79746784,12.3802664 L7.79746784,16.9229869 L3.44097076,16.9229869 L3.44097076,8.6009738 C3.44097076,8.31222707 3.19711696,8.07814847 2.89640351,8.07814847 C2.59569006,8.07814847 2.35183626,8.31222707 2.35183626,8.6009738 L2.35183626,17.4458515 C2.35183626,17.7345983 2.59569006,17.9686769 2.89640351,17.9686769 L8.34203509,17.9686769 C8.62842105,17.9686769 8.86277778,17.7562533 8.88447368,17.4865677 C8.88578363,17.474345 8.88660234,17.4609825 8.88660234,17.4458515 L8.88660234,12.3803057 C8.88660234,11.5153231 9.61955556,10.8116332 10.5205088,10.8116332 C11.421462,10.8116332 12.1544152,11.5153624 12.1544152,12.3803057 L12.1544152,17.4458515 C12.1544152,17.4609039 12.1552339,17.4740306 12.1565439,17.4860961 C12.1779942,17.7559782 12.4124327,17.9686769 12.6989825,17.9686769 L18.144614,17.9686769 C18.4453684,17.9686769 18.6891813,17.7345983 18.6891813,17.4458515 L18.6891813,8.6009738 C18.6891404,8.31218777 18.4453275,8.07810917 18.1445731,8.07810917 Z" id="Shape"></path>
            </g>
        </g>
    </g>
</svg>