<?xml version="1.0" encoding="UTF-8"?>
<svg width="19px" height="23px" viewBox="0 0 19 23" version="1.1" xmlns="http://www.w3.org/2000/svg" xmlns:xlink="http://www.w3.org/1999/xlink">
    <!-- Generator: Sketch 53 (72520) - https://sketchapp.com -->
    <title>icon_customer</title>
    <desc>Created with Sketch.</desc>
    <g id="Lord-2" stroke="none" stroke-width="1" fill="none" fill-rule="evenodd">
        <g id="Lord-V2-Customer" transform="translate(-30.000000, -101.000000)" fill="#FFFFFF" fill-rule="nonzero">
            <g id="icon_customer" transform="translate(30.000000, 101.000000)">
                <path d="M18.5661961,3.24123148 C18.3195832,2.99321546 17.9910008,2.85703125 17.6438637,2.86506993 C17.2953175,2.87027138 16.9719022,3.01354849 16.73304,3.26913036 L13.6865481,6.52738487 C13.2710641,6.3018298 12.8332674,6.12190582 12.3811437,5.98855878 C13.2475771,5.40008224 13.8185448,4.40258017 13.8185448,3.27338609 C13.8185448,1.46823599 12.3597706,0 10.5667771,0 C8.77331385,0 7.31477453,1.46847247 7.31477453,3.27338609 C7.31477453,4.38201072 7.86624802,5.36201687 8.70614122,5.95427632 C5.82852057,6.74040911 3.70271705,9.38559826 3.70271705,12.5280016 L3.70271705,17.2060239 L0.35582725,20.7858244 C-0.12001831,21.2950966 -0.108274807,22.0812294 0.382602339,22.5763158 C0.624283,22.8193668 0.944175237,22.9524774 1.28497084,22.9524774 L1.30493473,22.9524774 C1.65324616,22.9470395 1.97689625,22.8037623 2.21575847,22.5481805 L3.14584154,21.5532792 C3.13010534,21.9046156 3.25623022,22.2599712 3.51951887,22.5252467 C3.75814625,22.7649877 4.07639438,22.8966797 4.40873469,22.8966797 C4.45195067,22.8966797 4.4954015,22.8945518 4.53908725,22.8900596 C4.91769677,22.8508121 5.25520423,22.6441715 5.46470779,22.3228618 C5.68853837,21.978382 5.94125791,21.6599095 6.21816902,21.3695724 L15.5133629,21.3695724 C15.7285033,21.5937089 15.9307259,21.8327406 16.1139241,22.0895045 C16.3248368,22.3848068 16.6543587,22.5713508 17.0174669,22.601141 C17.3918488,22.6316406 17.7542524,22.4971114 18.0180108,22.2313631 C18.4598002,21.7866365 18.5159341,21.0950761 18.1514166,20.586986 C17.8735661,20.1999486 17.5654173,19.8415193 17.2356606,19.5079153 C17.2391837,19.4864001 17.2483436,19.4672491 17.2483436,19.4450247 L17.2483436,12.5280016 C17.2483436,10.9242907 16.6853614,9.38559826 15.6676721,8.16088609 L18.5936759,5.03148642 C19.0695214,4.52197783 19.057543,3.73560855 18.5661961,3.24123148 Z M8.13587816,3.27362256 C8.13587816,1.92431128 9.22661195,0.8265625 10.5667771,0.8265625 C11.9071771,0.8265625 12.997676,1.92431128 12.997676,3.27362256 C12.997676,4.59314352 11.954151,5.66914059 10.6546183,5.71619036 C10.5949615,5.71477181 10.5353046,5.71051602 10.4756477,5.71051602 C10.4568582,5.71051602 10.4390081,5.71311678 10.4204534,5.71311678 C9.14816558,5.63627674 8.13587816,4.57304691 8.13587816,3.27362256 Z M4.52382069,12.5280016 C4.52382069,9.24326687 7.16422322,6.56994243 10.4202186,6.53967928 C10.4693063,6.54180714 10.5172197,6.54700865 10.5667771,6.54700865 C10.5966055,6.54700865 10.6252596,6.54346217 10.6546183,6.54251645 C11.5064898,6.56852388 12.3430948,6.77587378 13.1026627,7.15227181 L4.52358584,16.3281558 L4.52358584,12.5280016 L4.52382069,12.5280016 Z M7.17995942,20.5432463 C8.24626684,19.7937603 9.52583567,19.3762233 10.8678797,19.3762233 C12.197006,19.3762233 13.4791585,19.7954153 14.5489888,20.5432463 L7.17995942,20.5432463 Z M17.4374135,21.6469058 C17.3439354,21.7405325 17.2180454,21.7880551 17.0839349,21.7776522 C17.0115952,21.7717414 16.8763104,21.7414782 16.7804836,21.6074219 C15.4135433,19.6928043 13.2031868,18.5498972 10.8678797,18.5498972 C8.40644778,18.5498972 6.1298581,19.7911595 4.77794948,21.8700966 C4.70443535,21.9821649 4.58723548,22.0542763 4.4547691,22.0682258 C4.32817445,22.0819387 4.19429882,22.0358347 4.09260036,21.9327509 C3.9434583,21.7833265 3.91973644,21.5457134 4.03599684,21.3681538 C5.55442789,19.0435649 8.10863331,17.6557155 10.8678797,17.6557155 C13.4765749,17.6557155 15.9506898,18.9324424 17.4857966,21.0709601 C17.610982,21.2454462 17.5900786,21.4932258 17.4374135,21.6469058 L17.4374135,21.6469058 Z M16.4272399,12.5280016 L16.4272399,18.7825452 C14.8573724,17.5363179 12.9009098,16.8293894 10.8678797,16.8293894 C9.30858137,16.8293894 7.81011421,17.2343956 6.49390574,17.9725329 L15.1006972,8.76709497 C15.9549174,9.8307977 16.4272399,11.1519737 16.4272399,12.5280016 Z M17.9954633,4.46499793 L1.617546,21.9819285 C1.53275814,22.0731908 1.41673259,22.1244963 1.29248666,22.1263877 C1.1722335,22.1192948 1.05080594,22.0802837 0.962964794,21.9918586 C0.78798706,21.8152446 0.783524525,21.5343647 0.95380487,21.3525493 L17.3310176,3.83561885 C17.4160403,3.74435648 17.5320659,3.6932874 17.6563118,3.69115954 L17.6633579,3.69115954 C17.7852551,3.69115954 17.8996366,3.73891862 17.9858336,3.82592519 C18.1612811,4.00230263 18.1657437,4.28318257 17.9954633,4.46499793 Z" id="Shape"></path>
            </g>
        </g>
    </g>
</svg>