<?xml version="1.0" encoding="UTF-8"?>
<svg width="19px" height="20px" viewBox="0 0 19 20" version="1.1" xmlns="http://www.w3.org/2000/svg" xmlns:xlink="http://www.w3.org/1999/xlink">
    <!-- Generator: Sketch 53 (72520) - https://sketchapp.com -->
    <title>icon_logout</title>
    <desc>Created with Sketch.</desc>
    <g id="King" stroke="none" stroke-width="1" fill="none" fill-rule="evenodd">
        <g id="King-Home" transform="translate(-1390.000000, -20.000000)" fill="#000000" fill-rule="nonzero">
            <g id="icon_logout" transform="translate(1390.000000, 20.000000)">
                <path d="M9.15734783,18.8220339 L3.81386957,18.8220339 C2.36169565,18.8220339 1.18343478,17.6694915 1.18343478,16.2584746 L1.18343478,3.70762712 C1.18343478,2.29237288 2.36604348,1.1440678 3.81386957,1.1440678 L9.24430435,1.1440678 C9.5703913,1.1440678 9.83126087,0.889830508 9.83126087,0.572033898 C9.83126087,0.254237288 9.5703913,0 9.24430435,0 L3.81386957,0 C1.71386957,0 0.00952173913,1.66525424 0.00952173913,3.70762712 L0.00952173913,16.2584746 C0.00952173913,18.3050847 1.71821739,19.9661017 3.81386957,19.9661017 L9.15734783,19.9661017 C9.48343478,19.9661017 9.74430435,19.7118644 9.74430435,19.3940678 C9.74430435,19.0762712 9.47908696,18.8220339 9.15734783,18.8220339 Z" id="Shape"></path>
                <path d="M18.826913,9.58050847 L15.0964783,5.94491525 C14.8660435,5.72033898 14.4964783,5.72033898 14.2660435,5.94491525 C14.0356087,6.16949153 14.0356087,6.52966102 14.2660435,6.75423729 L16.9964783,9.41525424 L5.08778261,9.41525424 C4.76169565,9.41525424 4.50082609,9.66949153 4.50082609,9.98728814 C4.50082609,10.3050847 4.76169565,10.559322 5.08778261,10.559322 L16.9964783,10.559322 L14.2660435,13.220339 C14.0356087,13.4449153 14.0356087,13.8050847 14.2660435,14.029661 C14.379087,14.1398305 14.5312609,14.1991525 14.679087,14.1991525 C14.826913,14.1991525 14.979087,14.1440678 15.0921304,14.029661 L18.8225652,10.3940678 C19.0573478,10.1652542 19.0573478,9.80084746 18.826913,9.58050847 Z" id="Shape"></path>
            </g>
        </g>
    </g>
</svg>