<?xml version="1.0" encoding="UTF-8"?>
<svg width="30px" height="20px" viewBox="0 0 30 20" version="1.1" xmlns="http://www.w3.org/2000/svg" xmlns:xlink="http://www.w3.org/1999/xlink">
    <!-- Generator: Sketch 53 (72520) - https://sketchapp.com -->
    <title>icon_creditcard</title>
    <desc>Created with Sketch.</desc>
    <g id="Lord-2" stroke="none" stroke-width="1" fill="none" fill-rule="evenodd">
        <g id="Lord-V2-Order-Add-order-4" transform="translate(-719.000000, -267.000000)" fill="#FFFFFF" fill-rule="nonzero">
            <g id="icon_creditcard" transform="translate(719.000000, 267.000000)">
                <path d="M26.8226316,0.0194736842 L3.11888889,0.0194736842 C1.39976608,0.0194736842 0,1.41923977 0,3.13842105 L0,16.8616374 C0,18.5807602 1.39976608,19.9805263 3.11888889,19.9805263 L26.8225731,19.9805263 C28.5416959,19.9805263 29.941462,18.5807602 29.941462,16.8616374 L29.941462,3.13842105 C29.9415205,1.41923977 28.5417544,0.0194736842 26.8226316,0.0194736842 Z M28.6939766,16.8615789 C28.6939766,17.8933333 27.854386,18.732924 26.8226316,18.732924 L3.11888889,18.732924 C2.0871345,18.732924 1.24754386,17.8933333 1.24754386,16.8615789 L1.24754386,3.13842105 C1.24754386,2.10666667 2.0871345,1.26707602 3.11888889,1.26707602 L26.8225731,1.26707602 C27.8543275,1.26707602 28.6939181,2.10666667 28.6939181,3.13842105 L28.6939181,16.8615789 L28.6939766,16.8615789 Z" id="Shape"></path>
                <path d="M29.3177193,3.76216374 L0.62380117,3.76216374 C0.279473684,3.76216374 0,4.04163743 0,4.38596491 L0,8.12865497 C0,8.47298246 0.279473684,8.75245614 0.62380117,8.75245614 L29.3177778,8.75245614 C29.6621053,8.75245614 29.9415789,8.47298246 29.9415789,8.12865497 L29.9415789,4.38596491 C29.9415205,4.04163743 29.6620468,3.76216374 29.3177193,3.76216374 Z M28.6939766,7.5048538 L1.24754386,7.5048538 L1.24754386,5.0097076 L28.6939766,5.0097076 L28.6939766,7.5048538 L28.6939766,7.5048538 Z" id="Shape"></path>
                <path d="M11.8518713,12.4951462 L4.36649123,12.4951462 C4.02216374,12.4951462 3.74269006,12.7746199 3.74269006,13.1189474 C3.74269006,13.4632749 4.02216374,13.7426901 4.36649123,13.7426901 L11.8518713,13.7426901 C12.1961988,13.7426901 12.4756725,13.4632164 12.4756725,13.1188889 C12.4756725,12.7745614 12.1961988,12.4951462 11.8518713,12.4951462 Z" id="Path"></path>
                <path d="M11.8518713,14.9902339 L4.36649123,14.9902339 C4.02216374,14.9902339 3.74269006,15.2697076 3.74269006,15.6140351 C3.74269006,15.9583626 4.02216374,16.2378363 4.36649123,16.2378363 L11.8518713,16.2378363 C12.1961988,16.2378363 12.4756725,15.9583626 12.4756725,15.6140351 C12.475614,15.2697076 12.1961988,14.9902339 11.8518713,14.9902339 Z" id="Path"></path>
                <path d="M24.3274854,11.2475439 L23.0799415,11.2475439 C22.0481871,11.2475439 21.2085965,12.0871345 21.2085965,13.1188889 L21.2085965,14.3664327 C21.2085965,15.3981871 22.0481871,16.2377778 23.0799415,16.2377778 L24.3274854,16.2377778 C25.3592398,16.2377778 26.1988304,15.3981871 26.1988304,14.3664327 L26.1988304,13.1188889 C26.1988304,12.087193 25.3592398,11.2475439 24.3274854,11.2475439 Z M24.9512865,14.3664912 C24.9512865,14.7108187 24.6718129,14.9902924 24.3274854,14.9902924 L23.0799415,14.9902924 C22.735614,14.9902924 22.4561404,14.7108187 22.4561404,14.3664912 L22.4561404,13.1189474 C22.4561404,12.7746199 22.735614,12.4951462 23.0799415,12.4951462 L24.3274854,12.4951462 C24.6718129,12.4951462 24.9512865,12.7746199 24.9512865,13.1189474 L24.9512865,14.3664912 Z" id="Shape"></path>
            </g>
        </g>
    </g>
</svg>