<?xml version="1.0" encoding="UTF-8"?>
<svg width="27px" height="27px" viewBox="0 0 27 27" version="1.1" xmlns="http://www.w3.org/2000/svg" xmlns:xlink="http://www.w3.org/1999/xlink">
    <!-- Generator: Sketch 53 (72520) - https://sketchapp.com -->
    <title>icon_chat</title>
    <desc>Created with Sketch.</desc>
    <g id="Lord-2" stroke="none" stroke-width="1" fill="none" fill-rule="evenodd">
        <g id="Lord-V2-Order-Order-list-detail" transform="translate(-878.000000, -195.000000)">
            <g id="icon_chat" transform="translate(879.000000, 196.000000)">
                <circle id="Oval" stroke="#5E72E4" cx="12.5" cy="12.5" r="12.5"></circle>
                <g id="chat-comment-oval-speech-bubble-with-text-lines" transform="translate(6.000000, 6.000000)" fill="#5E72E4" fill-rule="nonzero">
                    <path d="M8.53125,6.90625 L4.46875,6.90625 C4.2445,6.90625 4.0625,7.08825 4.0625,7.3125 C4.0625,7.53675 4.2445,7.71875 4.46875,7.71875 L8.53125,7.71875 C8.7555,7.71875 8.9375,7.53675 8.9375,7.3125 C8.9375,7.08825 8.7555,6.90625 8.53125,6.90625 Z M9.34375,4.46875 L3.65625,4.46875 C3.432,4.46875 3.25,4.65075 3.25,4.875 C3.25,5.09925 3.432,5.28125 3.65625,5.28125 L9.34375,5.28125 C9.568,5.28125 9.75,5.09925 9.75,4.875 C9.75,4.65075 9.568,4.46875 9.34375,4.46875 Z M6.5,0 C2.91038562,0 0,2.54636438 0,5.6875 C0,7.48273203 0.952653595,9.08090359 2.4375,10.1233464 L2.4375,13 L5.28490359,11.2722108 C5.67898203,11.337232 6.08440359,11.375 6.5,11.375 C10.0900392,11.375 13,8.82863562 13,5.6875 C13,2.54636438 10.0900392,0 6.5,0 Z M6.5,10.5625 C6.0255,10.5625 5.56725,10.50725 5.12686438,10.4134036 L3.21422876,11.5630752 L3.23982516,9.67890359 C1.77369281,8.79694281 0.8125,7.33932843 0.8125,5.6875 C0.8125,2.99528922 3.35886438,0.8125 6.5,0.8125 C9.64113562,0.8125 12.1875,2.99528922 12.1875,5.6875 C12.1875,8.37971078 9.64113562,10.5625 6.5,10.5625 Z" id="Shape"></path>
                </g>
            </g>
        </g>
    </g>
</svg>