<?xml version="1.0" encoding="UTF-8"?>
<svg width="27px" height="27px" viewBox="0 0 27 27" version="1.1" xmlns="http://www.w3.org/2000/svg" xmlns:xlink="http://www.w3.org/1999/xlink">
    <!-- Generator: Sketch 53 (72520) - https://sketchapp.com -->
    <title>icon_delete</title>
    <desc>Created with Sketch.</desc>
    <g id="Lord-2" stroke="none" stroke-width="1" fill="none" fill-rule="evenodd">
        <g id="Lord-V2-Driver-Detail" transform="translate(-235.000000, -1098.000000)">
            <g id="icon_delete" transform="translate(236.000000, 1099.000000)">
                <circle id="Oval" stroke="#F5365D" cx="12.5" cy="12.5" r="12.5"></circle>
                <g id="garbage" transform="translate(7.000000, 7.000000)" fill="#F5365D">
                    <path d="M10.6451613,1.58110883 L8.08018433,1.58110883 L8.08018433,1.20841889 C8.08018433,0.542094456 7.4718894,0 6.72419355,0 L4.2859447,0 C3.53824885,0 2.92995392,0.542094456 2.92995392,1.20841889 L2.92995392,1.58110883 L0.364976959,1.58110883 C0.174884793,1.58110883 0.0228110599,1.71663244 0.0228110599,1.88603696 C0.0228110599,2.05544148 0.174884793,2.19096509 0.364976959,2.19096509 L0.983410138,2.19096509 L0.983410138,9.35564682 C0.983410138,10.2546201 1.80460829,10.9864476 2.81336406,10.9864476 L8.19677419,10.9864476 C9.20552995,10.9864476 10.0267281,10.2546201 10.0267281,9.35564682 L10.0267281,2.19096509 L10.6451613,2.19096509 C10.8352535,2.19096509 10.9873272,2.05544148 10.9873272,1.88603696 C10.9873272,1.71663244 10.8352535,1.58110883 10.6451613,1.58110883 Z M3.61428571,1.20841889 C3.61428571,0.878644764 3.91589862,0.609856263 4.2859447,0.609856263 L6.72419355,0.609856263 C7.09423963,0.609856263 7.39585253,0.878644764 7.39585253,1.20841889 L7.39585253,1.58110883 L3.61428571,1.58110883 L3.61428571,1.20841889 Z M9.34239631,9.35564682 C9.34239631,9.91806982 8.82788018,10.3765914 8.19677419,10.3765914 L2.81336406,10.3765914 C2.18225806,10.3765914 1.66774194,9.91806982 1.66774194,9.35564682 L1.66774194,2.19096509 L9.34493088,2.19096509 L9.34493088,9.35564682 L9.34239631,9.35564682 Z" id="Shape" fill-rule="nonzero"></path>
                    <path d="M5.50506912,9.28336756 C5.69516129,9.28336756 5.84723502,9.14784394 5.84723502,8.97843943 L5.84723502,3.58911704 C5.84723502,3.41971253 5.69516129,3.28418891 5.50506912,3.28418891 C5.31497696,3.28418891 5.16290323,3.41971253 5.16290323,3.58911704 L5.16290323,8.9761807 C5.16290323,9.14558522 5.31497696,9.28336756 5.50506912,9.28336756 Z" id="Path"></path>
                    <path d="M3.27211982,8.94681725 C3.46221198,8.94681725 3.61428571,8.81129363 3.61428571,8.64188912 L3.61428571,3.92340862 C3.61428571,3.75400411 3.46221198,3.61848049 3.27211982,3.61848049 C3.08202765,3.61848049 2.92995392,3.75400411 2.92995392,3.92340862 L2.92995392,8.64188912 C2.92995392,8.81129363 3.08456221,8.94681725 3.27211982,8.94681725 Z" id="Path"></path>
                    <path d="M7.73801843,8.94681725 C7.9281106,8.94681725 8.08018433,8.81129363 8.08018433,8.64188912 L8.08018433,3.92340862 C8.08018433,3.75400411 7.9281106,3.61848049 7.73801843,3.61848049 C7.54792627,3.61848049 7.39585253,3.75400411 7.39585253,3.92340862 L7.39585253,8.64188912 C7.39585253,8.81129363 7.54792627,8.94681725 7.73801843,8.94681725 Z" id="Path"></path>
                </g>
            </g>
        </g>
    </g>
</svg>