<?xml version="1.0" encoding="UTF-8"?>
<svg width="16px" height="21px" viewBox="0 0 16 21" version="1.1" xmlns="http://www.w3.org/2000/svg" xmlns:xlink="http://www.w3.org/1999/xlink">
    <!-- Generator: Sketch 53 (72520) - https://sketchapp.com -->
    <title>icon_invoice</title>
    <desc>Created with Sketch.</desc>
    <g id="Lord-2" stroke="none" stroke-width="1" fill="none" fill-rule="evenodd">
        <g id="icon_invoice" fill="#fff" fill-rule="nonzero">
            <path d="M15.8697917,4.5031875 L11.4253333,0.128173828 C11.342,0.0461425781 11.2291667,0 11.1110833,0 L1.77775,0 C0.79775,0 0,0.784833984 0,1.75001367 L0,19.2500273 C0,20.215166 0.79775,21 1.77779167,21 L14.22225,21 C15.20225,21 16,20.215166 16,19.2499863 L16,4.81248633 C16,4.69628906 15.953125,4.58521875 15.8697917,4.5031875 Z M11.5555417,1.49366602 L14.482625,4.37501367 L12.4444167,4.37501367 C11.9539583,4.37501367 11.5555417,3.98237109 11.5555417,3.50002734 L11.5555417,1.49366602 L11.5555417,1.49366602 Z M15.111125,19.2499863 C15.111125,19.7323301 14.7126667,20.1249727 14.22225,20.1249727 L1.77779167,20.1249727 C1.28733333,20.1249727 0.888916667,19.7323301 0.888916667,19.2499863 L0.888916667,1.75001367 C0.888916667,1.26766992 1.287375,0.875027344 1.77779167,0.875027344 L10.6666667,0.875027344 L10.6666667,3.50002734 C10.6666667,4.46516602 11.4644167,5.25 12.4444583,5.25 L15.111125,5.25 L15.111125,19.2499863 Z" id="Shape"></path>
            <path d="M12.888875,12.2500137 L3.111125,12.2500137 C2.86545833,12.2500137 2.66666667,12.4456992 2.66666667,12.6875273 C2.66666667,12.9293555 2.86545833,13.125041 3.111125,13.125041 L12.8889167,13.125041 C13.1345833,13.125041 13.333375,12.9293555 13.333375,12.6875273 C13.3333333,12.4456992 13.1345417,12.2500137 12.888875,12.2500137 Z" id="Path"></path>
            <path d="M12.888875,9.62501367 L3.111125,9.62501367 C2.86545833,9.62501367 2.66666667,9.82069922 2.66666667,10.0625273 C2.66666667,10.3043555 2.86545833,10.500041 3.111125,10.500041 L12.8889167,10.500041 C13.1345833,10.500041 13.333375,10.3043555 13.333375,10.0625273 C13.3333333,9.82069922 13.1345417,9.62501367 12.888875,9.62501367 Z" id="Path"></path>
            <path d="M12.888875,14.8750137 L3.111125,14.8750137 C2.86545833,14.8750137 2.66666667,15.0706992 2.66666667,15.3125273 C2.66666667,15.5543555 2.86545833,15.750041 3.111125,15.750041 L12.8889167,15.750041 C13.1345833,15.750041 13.333375,15.5543555 13.333375,15.3125273 C13.3333333,15.0706992 13.1345417,14.8750137 12.888875,14.8750137 Z" id="Path"></path>
            <path d="M8.44445833,17.5000137 L3.111125,17.5000137 C2.86545833,17.5000137 2.66666667,17.6956992 2.66666667,17.9375273 C2.66666667,18.1793555 2.86545833,18.375041 3.111125,18.375041 L8.44445833,18.375041 C8.690125,18.375041 8.88891667,18.1793555 8.88891667,17.9375273 C8.888875,17.6956992 8.690125,17.5000137 8.44445833,17.5000137 Z" id="Path"></path>
            <path d="M7.111125,7.43748633 C7.111125,7.67931445 7.30991667,7.875 7.55558333,7.875 L12.8889167,7.875 C13.1345833,7.875 13.333375,7.67931445 13.333375,7.43748633 C13.333375,7.1956582 13.1345833,6.99997266 12.8889167,6.99997266 L7.55558333,6.99997266 C7.30991667,7.00001367 7.111125,7.19569922 7.111125,7.43748633 Z" id="Path"></path>
            <path d="M4,7.00001367 L3.111125,7.00001367 C2.86545833,7.00001367 2.66666667,7.19569922 2.66666667,7.43752734 C2.66666667,7.67935547 2.86545833,7.87504102 3.111125,7.87504102 L3.55558333,7.87504102 C3.55558333,8.11686914 3.754375,8.31255469 4.00004167,8.31255469 C4.24570833,8.31255469 4.4445,8.11686914 4.4445,7.87504102 L4.4445,7.79444531 C4.96066667,7.61319727 5.33333333,7.132125 5.33333333,6.5625 C5.33333333,5.83873828 4.73525,5.25 4,5.25 C3.75520833,5.25 3.55554167,5.0539043 3.55554167,4.81248633 C3.55554167,4.57110937 3.75520833,4.37497266 4,4.37497266 L4.888875,4.37497266 C5.13454167,4.37497266 5.33333333,4.17928711 5.33333333,3.93745898 C5.33333333,3.69563086 5.13454167,3.49994531 4.888875,3.49994531 L4.44441667,3.49994531 C4.44441667,3.25811719 4.245625,3.06243164 3.99995833,3.06243164 C3.75429167,3.06243164 3.5555,3.25811719 3.5555,3.49994531 L3.5555,3.58054102 C3.03933333,3.76178906 2.66666667,4.24286133 2.66666667,4.81248633 C2.66666667,5.53624805 3.26475,6.12498633 4,6.12498633 C4.24479167,6.12498633 4.44445833,6.32108203 4.44445833,6.5625 C4.44445833,6.80391797 4.24479167,7.00001367 4,7.00001367 Z" id="Path"></path>
        </g>
    </g>
</svg>