<?xml version="1.0" encoding="UTF-8"?>
<svg width="13px" height="14px" viewBox="0 0 13 14" version="1.1" xmlns="http://www.w3.org/2000/svg" xmlns:xlink="http://www.w3.org/1999/xlink">
    <!-- Generator: Sketch 53 (72520) - https://sketchapp.com -->
    <title>icon_refresh</title>
    <desc>Created with Sketch.</desc>
    <g id="Lord-2" stroke="none" stroke-width="1" fill="none" fill-rule="evenodd">
        <g id="Lord-V2-Dashboard" transform="translate(-894.000000, -461.000000)" fill="#FFFFFF" fill-rule="nonzero">
            <g id="Group-2" transform="translate(881.000000, 454.000000)">
                <g id="icon_refresh" transform="translate(13.000000, 7.000000)">
                    <path d="M11.495045,0 C11.2190586,0 10.9953356,0.223794979 10.9953356,0.499870293 L10.9953356,2.32584519 C8.42268243,-0.165656904 4.31804955,-0.0991715481 1.8273491,2.47428033 C0.653542793,3.68709623 -0.00128828829,5.30995397 0.00196171171,6.99803766 C0.00196171171,7.27411297 0.225684685,7.49790795 0.501671171,7.49790795 C0.777657658,7.49790795 1.00135135,7.27411297 1.00135135,6.99803766 C1.00196622,3.96132636 3.46338739,1.50005021 6.4991509,1.50066527 C8.04090991,1.50095816 9.51163739,2.14897071 10.5526329,3.28657322 L8.33897297,4.02485356 C8.07680631,4.1121046 7.9349482,4.39541423 8.02217117,4.65766527 C8.10939414,4.91991632 8.39261261,5.06182008 8.65477928,4.97456904 L11.6529775,3.97485774 C11.8576396,3.90667364 11.9954572,3.71477406 11.9947838,3.49900418 L11.9947838,0.499841004 C11.9947545,0.223794979 11.7710315,0 11.495045,0 Z" id="Path"></path>
                    <path d="M12.4944347,6.49819665 C12.2184482,6.49819665 11.9947252,6.72199163 11.9947252,6.99806695 C11.9941104,10.0347782 9.53268919,12.4960544 6.49692568,12.4954393 C4.95516667,12.4951464 3.48443919,11.8471339 2.44344369,10.7095314 L4.6571036,9.97125105 C4.91927027,9.884 5.06112838,9.60069038 4.97390541,9.33843933 C4.88668243,9.07618828 4.60346396,8.93428452 4.3412973,9.02153556 L1.3430991,10.0212469 C1.13843694,10.089431 1.00061937,10.2813305 1.00129279,10.4971004 L1.00129279,13.4962636 C1.00129279,13.7723389 1.22501577,13.9961339 1.50100225,13.9961339 C1.77698874,13.9961339 2.00071171,13.7723389 2.00071171,13.4962636 L2.00071171,11.6702594 C4.57336486,14.1617615 8.67802703,14.0953054 11.1686982,11.5218243 C12.3425045,10.3090084 12.9973356,8.68615063 12.9940856,6.99806695 C12.9941441,6.72199163 12.7704212,6.49819665 12.4944347,6.49819665 Z" id="Path"></path>
                </g>
            </g>
        </g>
    </g>
</svg>