<?xml version="1.0" encoding="UTF-8"?>
<svg width="30px" height="24px" viewBox="0 0 30 24" version="1.1" xmlns="http://www.w3.org/2000/svg" xmlns:xlink="http://www.w3.org/1999/xlink">
    <!-- Generator: Sketch 53 (72520) - https://sketchapp.com -->
    <title>icon_cash</title>
    <desc>Created with Sketch.</desc>
    <g id="Lord-2" stroke="none" stroke-width="1" fill="none" fill-rule="evenodd">
        <g id="Lord-V2-Order-Add-order-4" transform="translate(-719.000000, -363.000000)" fill="#FFFFFF" fill-rule="nonzero">
            <g id="icon_cash" transform="translate(719.000000, 363.000000)">
                <path d="M29.7419434,1.54199219 C24.7229004,-1.23754881 19.7055664,0.30249025 14.8530274,1.79199219 C9.98706056,3.28686525 5.38940431,4.69946288 0.741943375,2.12426756 C0.586914063,2.03857425 0.39794925,2.04125975 0.245361313,2.13159181 C0.0927734375,2.22192381 -0.00048828125,2.3862305 2.47024623e-15,2.56347656 L2.47024623e-15,22.0163574 C2.47024623e-15,22.1982422 0.0988769375,22.3657226 0.258056625,22.4538574 C2.1154785,23.4870606 4.20996094,24.0192871 6.33544925,23.9978028 C9.3081055,23.9978028 12.2570801,23.0922851 15.1469726,22.2043457 C20.0134278,20.7094726 24.6105957,19.2973633 29.2580566,21.8718262 C29.4130859,21.9577637 29.6022949,21.954834 29.7548828,21.8645019 C29.9074707,21.7741699 30.0007324,21.6096191 30,21.4323731 L30,1.97949219 C30,1.79736325 29.9011231,1.62988281 29.7419434,1.54199219 Z M29,16.5273438 C24.2434082,14.2844238 19.5339356,15.7182618 15.3535156,16.9978028 L15.6464844,17.9538574 C19.7749024,16.6904297 24.4440918,15.2702637 29,17.6479493 L29,18.5712891 C27.4384766,17.8347168 25.7382812,17.4387207 24.0119629,17.4094238 L23.9880371,18.4094238 C25.7355957,18.4384766 27.4521484,18.876709 29,19.6889649 L29,20.6149903 C24.2280274,18.3649903 19.4660644,19.8293457 14.8530274,21.2463379 C10.076416,22.7143555 5.56005862,24.1008301 1,21.7172851 L1,20.7844238 C2.56152344,21.5212403 4.26171875,21.9179688 5.98803712,21.9479981 L6.01196288,20.9479981 C4.263916,20.9174805 2.54736325,20.4780274 1,19.6643066 L1,18.737793 C2.67944337,19.5263672 4.51464844,19.9272461 6.37011719,19.9108887 C9.2561035,19.9108887 12.0534668,19.0544434 14.6464844,18.2609863 L14.3535156,17.3049316 C9.37109375,18.8303223 5.2075195,19.8139649 1,17.6137695 L1,16.690918 L1.00708006,16.690918 C1.28588869,16.8222656 1.56494138,16.940918 1.84448244,17.0458984 C1.92944337,17.0788574 2.01489256,17.1054688 2.10058594,17.1359863 C2.29394531,17.204834 2.48803712,17.2714844 2.6813965,17.3293457 C2.78588869,17.3603516 2.88989256,17.3879394 2.9938965,17.4157715 C3.17041013,17.4633789 3.34692381,17.5078125 3.52294925,17.546875 C3.6311035,17.5708008 3.73950194,17.5932618 3.84741212,17.6142578 C4.0234375,17.6477051 4.199707,17.6774903 4.37597656,17.7038574 C4.47949219,17.7194824 4.58349612,17.7358399 4.68701175,17.748291 C4.8793945,17.7719726 5.0720215,17.7893066 5.26440431,17.8044434 C5.34960938,17.810791 5.43457031,17.8203125 5.5200195,17.8254394 C5.79199219,17.8413086 6.06396487,17.8503418 6.33544925,17.8503418 L6.34399413,17.8503418 C6.68603513,17.8503418 7.02758788,17.8359375 7.3688965,17.8134766 C7.46899413,17.8063965 7.56909181,17.7958984 7.66894531,17.7873535 C7.91357425,17.7668457 8.157959,17.7424316 8.40209962,17.7119141 C8.51611325,17.6972656 8.6293945,17.6823731 8.74291994,17.6657715 C8.986084,17.6313476 9.22900388,17.5917969 9.47143556,17.5488281 C9.57153319,17.5314941 9.66894531,17.5153809 9.76757812,17.4987793 C10.4465332,17.3693848 11.1230469,17.2119141 11.7976074,17.0354004 C11.8974609,17.0092774 11.9975586,16.9824219 12.0974121,16.9553223 C12.3415527,16.8886719 12.5854492,16.8220215 12.8291016,16.7553711 L13.1650391,16.6589356 C13.4108887,16.5871582 13.65625,16.5146484 13.9011231,16.4414063 L14.1835938,16.3564453 C14.5065918,16.2590332 14.8286133,16.1606445 15.1494141,16.0612793 L16.0424805,15.7878418 C16.2451172,15.7263184 16.4465332,15.6662598 16.6484375,15.6064453 L16.9331055,15.5209961 C17.1135254,15.4677734 17.2924805,15.4174805 17.4724121,15.3664551 C17.5895996,15.3327637 17.7070312,15.2978516 17.8225097,15.2663574 C17.9934082,15.2189941 18.1640625,15.1743164 18.3339844,15.1293945 C18.4584961,15.0959473 18.5839844,15.0612793 18.7070312,15.0292969 C18.8720703,14.9868164 19.0366211,14.9489746 19.201416,14.9094238 C19.3305664,14.878418 19.4594726,14.845459 19.5886231,14.8164063 C19.7504882,14.7797851 19.9121094,14.7478028 20.0734863,14.7163086 C20.2041016,14.6894531 20.3344726,14.6604004 20.4645996,14.6354981 C20.6245117,14.6049805 20.7834472,14.5803223 20.9431152,14.5534668 C21.0749512,14.5314941 21.2070312,14.5068359 21.3386231,14.4873047 C21.4956055,14.4643555 21.6525879,14.4472656 21.8095703,14.4284668 C21.9423828,14.4118653 22.0759277,14.3933106 22.2094726,14.378418 C22.3645019,14.3632813 22.5195312,14.3549805 22.6745606,14.3444824 C22.809082,14.3349609 22.9436035,14.3234863 23.0778809,14.3178711 C23.2280274,14.3112793 23.3825684,14.3125 23.5349121,14.310791 C23.6713867,14.310791 23.8081055,14.3063965 23.9445801,14.310791 C24.0944824,14.3139649 24.2443847,14.3249512 24.3945312,14.3334961 C24.5319824,14.3413086 24.6699219,14.3469238 24.8076172,14.3598633 C24.9575195,14.373291 25.1044922,14.3947754 25.2529297,14.4138184 C25.3925781,14.4318848 25.5319824,14.4484863 25.6713867,14.4719238 C25.8110351,14.4953613 25.9650879,14.5292969 26.1115722,14.5598144 C26.2580566,14.590332 26.394043,14.6174316 26.5349121,14.652832 C26.6760254,14.6884766 26.8244629,14.7338868 26.9689941,14.7763672 C27.1135254,14.8188476 27.2556152,14.859375 27.3984375,14.9084473 C27.5415039,14.9572754 27.684082,15.013916 27.826416,15.0688476 C27.9689941,15.1237793 28.1169434,15.1804199 28.2624512,15.2438965 C28.407959,15.3073731 28.5439453,15.3754883 28.6850586,15.4438476 C28.7900391,15.4938965 28.8950195,15.546875 29,15.6018066 L29,16.5273438 Z M29,14.4719238 C28.9660644,14.4558106 28.9318847,14.4443359 28.8999024,14.4289551 C28.7600097,14.3642578 28.6206055,14.3088379 28.4804687,14.2509766 C28.3134766,14.1813965 28.1464844,14.1108399 27.9804687,14.0507812 C27.8405762,14.0009766 27.7004394,13.9562988 27.5605469,13.9108887 C27.3935547,13.8574219 27.2265625,13.8034668 27.0605469,13.7573242 C26.9208984,13.7194824 26.7814941,13.6867676 26.6420899,13.6538086 C26.4746094,13.6142578 26.3068847,13.5754394 26.1420899,13.543457 C26.003418,13.5168457 25.8645019,13.4934082 25.7260742,13.4729004 C25.5581055,13.4467774 25.3894043,13.4228516 25.2214356,13.402832 C25.0839844,13.3869629 24.9470215,13.3742676 24.8095703,13.362793 C24.6403809,13.3488769 24.4714356,13.3374024 24.3024902,13.329834 C24.1660156,13.3239746 24.0300293,13.3198242 23.8935547,13.3173828 C23.7233887,13.3173828 23.5539551,13.3173828 23.3840332,13.3173828 C23.2490234,13.3198242 23.1145019,13.3239746 22.9794922,13.329834 C22.8081055,13.3374024 22.6369629,13.3483887 22.4660644,13.3618164 C22.3330078,13.3718262 22.1999512,13.3823242 22.065918,13.3959961 C21.8935547,13.4128418 21.7209472,13.4333496 21.548584,13.4558106 C21.4169922,13.4724121 21.2858887,13.4887695 21.1550293,13.5058594 C20.9804687,13.5319824 20.8049316,13.5612793 20.6315918,13.5913086 C20.5029297,13.6132812 20.3745117,13.6347656 20.246582,13.6594238 C20.0690918,13.6928711 19.8925781,13.7299805 19.7155762,13.767334 C19.5905762,13.7939453 19.4655762,13.8173828 19.3405762,13.8479004 C19.1594238,13.8884277 18.9794922,13.9323731 18.7995606,13.9763184 C18.6779785,14.0058594 18.5563965,14.0344238 18.4355469,14.0649414 C18.2504882,14.1123047 18.0654297,14.1618652 17.8811035,14.2119141 C17.7648926,14.2429199 17.6494141,14.2734375 17.5339356,14.3054199 C17.3405762,14.3588867 17.1469726,14.4147949 16.9541016,14.470459 C16.8479004,14.5014649 16.7414551,14.5307617 16.6354981,14.5625 C16.4169922,14.6264649 16.1989746,14.6923828 15.980957,14.7578125 L15.7419434,14.8293457 C15.4462891,14.9194336 15.1516113,15.0097656 14.8574219,15.1003418 C14.5544434,15.1933594 14.2524414,15.2858887 13.9509277,15.3779297 L13.8854981,15.3974609 C13.6088867,15.4814453 13.3332519,15.5646972 13.0585937,15.6474609 C12.9814453,15.6699219 12.9055176,15.690918 12.8291016,15.7133789 C12.6083984,15.7773437 12.3884277,15.8413086 12.1689453,15.9023437 C12.0690918,15.9299316 11.9741211,15.9523926 11.8759766,15.980957 C11.6784668,16.0349121 11.480957,16.0888672 11.2839356,16.138916 C11.1760254,16.1662597 11.0690918,16.1889649 10.9614257,16.2172851 C10.7749024,16.2629394 10.5886231,16.3093262 10.4030762,16.3513184 C10.2871094,16.3774414 10.1721191,16.4013672 10.0563965,16.4243164 C9.87988281,16.4619141 9.70361325,16.5004882 9.52758787,16.5339356 C9.40502931,16.5568847 9.28344725,16.5754394 9.16162112,16.5964356 C8.99243162,16.6259766 8.82299806,16.6557617 8.65405275,16.6809082 C8.52807619,16.6994629 8.40405275,16.7124024 8.27661131,16.7282715 C8.11254881,16.7492676 7.94848631,16.7714844 7.78442381,16.7873535 C7.654541,16.7998047 7.52441406,16.8063965 7.3950195,16.815918 C7.23559569,16.8273926 7.076416,16.840332 6.9174805,16.8469238 C6.78491212,16.8522949 6.65258787,16.8513184 6.52050781,16.8527832 C6.36401369,16.8527832 6.20800781,16.8583984 6.05200194,16.8527832 C5.9174805,16.8498535 5.78393556,16.840332 5.65209962,16.8327637 C5.49804687,16.8244629 5.34399412,16.8178711 5.18994137,16.8034668 C5.05395506,16.7907715 4.918457,16.7709961 4.78247069,16.753418 C4.63256837,16.7338867 4.47949219,16.7158203 4.32788087,16.6904297 C4.19042969,16.6674805 4.05346681,16.6364746 3.91601562,16.6079101 C3.76611325,16.5769043 3.61596681,16.546875 3.46606444,16.5078125 C3.32739256,16.4729004 3.18945312,16.4304199 3.05102537,16.3894043 C2.90112306,16.3459473 2.75097656,16.3029785 2.60449219,16.2524414 C2.46508787,16.204834 2.32543944,16.1494141 2.18652344,16.095459 C2.03662112,16.0383301 1.89038087,15.9819336 1.74243162,15.9174805 C1.60253906,15.8564453 1.46289062,15.7868653 1.32299806,15.7172851 C1.21752931,15.6674805 1.11206056,15.6137695 1.00659181,15.5588379 L1.00659181,3.38085938 C5.77856444,5.63085938 10.5405274,4.16625975 15.1535644,2.74926756 C19.9240722,1.28198244 24.4404297,-0.10205075 29,2.27832031 L29,14.4719238 Z" id="Shape"></path>
                <path d="M14.8530274,3.84130863 C11.4650879,4.88183594 7.9609375,5.95678713 4.57153319,5.46899413 C4.42749025,5.4470215 4.28100588,5.48974612 4.17138675,5.5859375 C4.06176756,5.68090819 3.99853513,5.81884763 3.99853513,5.96386719 C4.01538088,6.34960938 3.84838869,6.72070313 3.548584,6.96386719 C3.28686525,7.142334 2.95385744,7.17993163 2.65893556,7.06396488 C2.5061035,7.01269531 2.33789063,7.03808594 2.20727538,7.13256838 C2.076416,7.22705075 1.99926756,7.37866213 2,7.53979494 L2,12.6589356 C2,12.8742676 2.13769531,13.0654297 2.342041,13.1333007 C3.26513675,13.4052734 3.92480469,14.2189941 4,15.1784668 C3.99975588,15.4272461 4.18237306,15.6384277 4.42846681,15.6738281 C5.05786131,15.7629394 5.69287113,15.8071289 6.32861325,15.8059082 C9.3029785,15.8059082 12.2644043,14.8964844 15.1455078,14.0114746 L15.1499024,14.0114746 C18.5371094,12.9709472 22.0390625,11.8969726 25.4274903,12.3842774 C25.5715332,12.4069824 25.7182618,12.3642578 25.8273926,12.2678222 C25.9372559,12.1726074 26.0002441,12.0341797 26,11.888916 C25.9836426,11.5026856 26.1516113,11.1315918 26.4523926,10.888916 C26.7141113,10.7104492 27.0471191,10.6728516 27.342041,10.7888184 C27.4946289,10.8398438 27.6625976,10.8139649 27.7929688,10.7197266 C27.923584,10.6252441 28.0004883,10.4738769 28,10.3129883 L28,5.19384763 C28,4.97851563 27.8623047,4.7873535 27.657959,4.71948244 C26.7348633,4.44726563 26.0754394,3.63378906 26,2.67431638 C26,2.42578125 25.8176269,2.21484375 25.5715332,2.17944338 C21.9609375,1.65649413 18.3469238,2.76782225 14.8530274,3.84130863 Z M4.96289063,14.7333984 C4.74707031,13.6538086 4.01269531,12.7502441 3,12.3183594 L3,8.13037112 C3.40576175,8.13818362 3.80322263,8.013916 4.13208006,7.77587887 C4.54321288,7.46875 4.82910156,7.02319337 4.93701175,6.52148437 C7.47412113,6.78247069 10.0056152,6.27734375 12.4943848,5.58496094 C11.5349121,6.8359375 11.0100098,8.36621094 11,9.94287112 C11,11.5498047 11.5690918,12.8884277 12.5610351,13.6164551 C12.6054688,13.6489258 12.6535644,13.6723633 12.6984863,13.7019043 C10.1235351,14.4414062 7.51000975,15.0114746 4.96289063,14.7333984 Z M14.8500976,13.0563965 C14.2785644,13.2604981 13.6430664,13.1682129 13.1530762,12.8103028 C12.4309082,12.2802734 12,11.2089844 12,9.94287112 C12,7.65087888 13.4130859,5.34277344 15.1499024,4.79638675 C15.3566894,4.72949219 15.5722656,4.69482425 15.7895508,4.69335938 C16.1706543,4.69213869 16.5417481,4.81518556 16.8469238,5.043457 C17.5690918,5.57177737 18,6.64379881 18,7.90991212 C18,10.2019043 16.5869141,12.5104981 14.8500976,13.0563965 Z M25.0371094,3.11938475 C25.2526856,4.19897462 25.9873047,5.10253906 27,5.53442381 L27,9.72241212 C26.5939941,9.71313475 26.1962891,9.8376465 25.8679199,10.0769043 C25.456543,10.3837891 25.1706543,10.8295899 25.0629882,11.3312988 C22.5253906,11.0703125 19.9938965,11.5749512 17.5061035,12.267334 C18.465332,11.0163574 18.9897461,9.48632812 19,7.90991212 C19,6.3029785 18.4309082,4.9643555 17.4389649,4.23632812 C17.3955078,4.20434569 17.3496094,4.17846681 17.3044434,4.14941406 C19.8769531,3.40991212 22.4870606,2.83984375 25.0371094,3.11938475 L25.0371094,3.11938475 Z" id="Shape"></path>
                <path d="M15.1469726,7.35693362 C15.2341309,7.31933594 15.3334961,7.32397462 15.4169922,7.3688965 C15.4770508,7.42919925 15.5075684,7.51293944 15.5,7.59790038 L16.5,7.59790038 C16.5114746,7.19555663 16.329834,6.81201175 16.0109863,6.56640625 C15.8598632,6.45605469 15.6848144,6.38354494 15.5,6.35449219 L15.5,5.85449219 L14.5,5.85449219 L14.5,6.560791 C13.9057617,6.90161131 13.5283203,7.5234375 13.5,8.20776369 C13.4885254,8.61010744 13.670166,8.99365237 13.9890137,9.23925781 C14.3266601,9.47607425 14.7570801,9.53710938 15.1469726,9.40332031 C15.2341309,9.36645506 15.3332519,9.37084962 15.4165039,9.4157715 C15.4765625,9.47583006 15.5070801,9.55932619 15.5,9.64379881 C15.4716797,10.03125 15.2182617,10.3657226 14.8530274,10.4978027 C14.765625,10.5341797 14.6667481,10.5297851 14.5830078,10.4858399 C14.5227051,10.4255371 14.4924316,10.3413086 14.5,10.2563476 L13.5,10.2563476 C13.4885254,10.6586914 13.670166,11.0422363 13.9890137,11.2878418 C14.1401367,11.3981934 14.3151856,11.4711914 14.5,11.5004883 L14.5,12.0004883 L15.5,12.0004883 L15.5,11.2912598 C16.0939941,10.9504394 16.4716797,10.3286133 16.5,9.64428712 C16.5117188,9.24169925 16.3295899,8.85815431 16.0104981,8.61230469 C15.6728516,8.37622069 15.2429199,8.31518556 14.8530274,8.44799806 C14.7658691,8.48510744 14.6665039,8.48071288 14.5830078,8.435791 C14.5231934,8.37597656 14.4929199,8.29272462 14.5,8.20849612 C14.5292969,7.8220215 14.7824707,7.48852538 15.1469726,7.35693362 L15.1469726,7.35693362 Z" id="Path"></path>
                <path d="M6.97753906,20.9353028 L7.02246094,21.9353028 C9.75292969,21.8125 12.4956055,20.9699707 15.1474609,20.1552734 C17.7395019,19.359375 20.4194336,18.5363769 23.0224609,18.4189453 L22.9775391,17.4189453 C20.2475586,17.5419922 17.5056152,18.3837891 14.8540039,19.1984863 C12.2614746,19.9948731 9.58105469,20.8183594 6.97753906,20.9353028 Z" id="Path"></path>
            </g>
        </g>
    </g>
</svg>