<?xml version="1.0" encoding="UTF-8"?>
<svg width="27px" height="27px" viewBox="0 0 27 27" version="1.1" xmlns="http://www.w3.org/2000/svg" xmlns:xlink="http://www.w3.org/1999/xlink">
    <!-- Generator: Sketch 53 (72520) - https://sketchapp.com -->
    <title>icon_mute</title>
    <desc>Created with Sketch.</desc>
    <g id="Lord-2" stroke="none" stroke-width="1" fill="none" fill-rule="evenodd">
        <g id="Lord-V2-Notification-trip-alert" transform="translate(-774.000000, -277.000000)">
            <g id="icon_mute" transform="translate(775.000000, 278.000000)">
                <circle id="Oval" stroke="#F5365D" cx="12.5" cy="12.5" r="12.5"></circle>
                <path d="M16.1405283,13.1429318 C15.9330292,12.75954 15.8128655,12.4524834 15.8128655,12.0175867 L15.8128869,11.3742904 C15.8128869,10.4916959 15.4710292,9.65809747 14.8502476,9.02706628 C14.3182593,8.48624366 13.6351657,8.14878168 12.8966862,8.05563548 L12.8966862,7.42887135 C12.8966862,7.19201754 12.7046901,7.00002144 12.4678363,7.00002144 C12.2309825,7.00002144 12.0389864,7.19201754 12.0389864,7.42887135 L12.0389864,8.05651462 C11.6576745,8.10540351 11.2907505,8.21988499 10.9440897,8.39852242 C10.7335458,8.50702144 10.6508207,8.76563938 10.7593197,8.97618324 C10.835462,9.12390058 10.9854522,9.20868421 11.1409103,9.20868421 C11.207039,9.20868421 11.2741754,9.19333138 11.3370019,9.16095322 C11.6786881,8.98488889 12.0468986,8.89279337 12.4315341,8.88723977 L12.5073762,8.88723977 L12.5125439,8.88723977 C13.8596686,8.90679532 14.9551871,10.0219123 14.9551871,11.3742904 L14.9551657,12.0175653 C14.9551657,12.6978285 15.1776959,13.1658967 15.3862456,13.5512183 C15.4638674,13.6946257 15.6114133,13.776 15.7637622,13.776 C15.8326998,13.776 15.9026452,13.7593392 15.9675302,13.7242164 C16.1758226,13.6114717 16.2532729,13.3512027 16.1405283,13.1429318 Z" id="Path" fill="#F5365D" fill-rule="nonzero"></path>
                <path d="M17.8529688,17.2464893 L7.73211111,7.12563158 C7.56462378,6.95814425 7.29307602,6.95814425 7.12561014,7.12563158 C6.95814425,7.29311891 6.95812281,7.56464522 7.12561014,7.73211111 L9.4115731,10.0180741 C9.21996296,10.4468596 9.12280702,10.9030058 9.12280702,11.3742904 L9.12280702,12.0175653 C9.12280702,12.5889435 8.91539376,12.951729 8.65283041,13.4110273 C8.39412671,13.8635497 8.10092203,14.3764113 7.95262573,15.1676823 C7.88184405,15.5454133 7.98198051,15.931614 8.22736842,16.2272632 C8.47252047,16.5226335 8.83329045,16.6920292 9.21711111,16.6920292 L11.1896062,16.6920292 C11.1896062,17.4014327 11.7667524,17.9785789 12.4761559,17.9785789 C13.1855595,17.9785789 13.7627057,17.4014327 13.7627057,16.6920292 L15.7269025,16.6920292 C15.8355517,16.6920292 15.942271,16.6787135 16.0458168,16.6522963 L17.2464893,17.8529688 C17.3302008,17.9367232 17.4399649,17.9785789 17.5497076,17.9785789 C17.6594503,17.9785789 17.7692144,17.9367018 17.8529688,17.8529688 C18.0204561,17.6855029 18.0204561,17.4139766 17.8529688,17.2464893 Z M12.4761559,17.1208791 C12.2396881,17.1208791 12.047306,16.9284971 12.047306,16.6920292 L12.9050058,16.6920292 C12.9050058,16.9284971 12.7126452,17.1208791 12.4761559,17.1208791 Z M9.21711111,15.8343294 C9.04203314,15.8343294 8.93535673,15.7373021 8.88734698,15.6794717 C8.83923002,15.6214698 8.76330214,15.4983899 8.79568031,15.3256706 C8.91732359,14.6765634 9.16140351,14.2496218 9.3974425,13.8367251 C9.68408577,13.3353138 9.98050682,12.8168129 9.98050682,12.0175653 L9.98050682,11.3742904 C9.98050682,11.1383372 10.0132924,10.9075731 10.0782417,10.6847641 L15.2278285,15.8343294 L9.21711111,15.8343294 Z" id="Shape" fill="#F5365D" fill-rule="nonzero"></path>
            </g>
        </g>
    </g>
</svg>