<?xml version="1.0" encoding="UTF-8"?>
<svg width="13px" height="14px" viewBox="0 0 13 14" version="1.1" xmlns="http://www.w3.org/2000/svg" xmlns:xlink="http://www.w3.org/1999/xlink">
    <!-- Generator: Sketch 53 (72520) - https://sketchapp.com -->
    <title>icon_search_white</title>
    <desc>Created with Sketch.</desc>
    <g id="Lord-2" stroke="none" stroke-width="1" fill="none" fill-rule="evenodd">
        <g id="Lord-V2-Order-Add-order-2-1" transform="translate(-610.000000, -651.000000)" fill="#FFFFFF" fill-rule="nonzero">
            <g id="Group-12" transform="translate(593.000000, 635.000000)">
                <g id="icon_search_white" transform="translate(17.000000, 16.000000)">
                    <path d="M12.799068,12.6410582 L9.83254369,9.20009122 C10.6281942,8.22746636 11.1067961,6.98001368 11.1067961,5.61915621 C11.1067961,2.51636032 8.6198835,0 5.55339806,0 C2.48590291,0 0,2.51636032 0,5.61915621 C0,8.72195211 2.48590291,11.2383124 5.55339806,11.2383124 C6.69436893,11.2383124 7.75456311,10.8889031 8.63603883,10.2922509 L11.5843883,13.7127845 C11.8761942,14.0529989 12.3871068,14.0856921 12.7203107,13.7914527 C13.0575534,13.4951699 13.0908738,12.9802509 12.799068,12.6410582 Z M1.51456311,5.61915621 C1.51456311,3.36536374 3.32598058,1.53249715 5.55339806,1.53249715 C7.78081553,1.53249715 9.59223301,3.36536374 9.59223301,5.61915621 C9.59223301,7.87294869 7.78081553,9.70581528 5.55339806,9.70581528 C3.32598058,9.70581528 1.51456311,7.87294869 1.51456311,5.61915621 Z" id="Shape"></path>
                </g>
            </g>
        </g>
    </g>
</svg>