<?xml version="1.0" encoding="UTF-8"?>
<svg width="20px" height="20px" viewBox="0 0 20 20" version="1.1" xmlns="http://www.w3.org/2000/svg" xmlns:xlink="http://www.w3.org/1999/xlink">
    <!-- Generator: Sketch 53 (72520) - https://sketchapp.com -->
    <title>icon_driver</title>
    <desc>Created with Sketch.</desc>
    <g id="Lord-2" stroke="none" stroke-width="1" fill="none" fill-rule="evenodd">
        <g id="Lord-V2-Dashboard" transform="translate(-438.000000, -324.000000)" fill="#FFFFFF" fill-rule="nonzero">
            <g id="icon_driver" transform="translate(438.000000, 324.000000)">
                <path d="M9.9995098,0 C4.48573529,0 0,4.48573529 0,9.9995098 C0,15.5132843 4.48573529,19.9990196 9.9995098,19.9990196 C15.5132843,19.9990196 19.9990686,15.5132353 19.9990686,9.9995098 C19.9990686,4.48578431 15.5132843,0 9.9995098,0 Z M9.9995098,19.4107843 C4.81009804,19.4107843 0.588235294,15.1888725 0.588235294,9.9995098 C0.588235294,4.81014706 4.81009804,0.588235294 9.9995098,0.588235294 C15.1889216,0.588235294 19.4107843,4.81009804 19.4107843,9.9995098 C19.4107843,15.1889216 15.1889216,19.4107843 9.9995098,19.4107843 Z" id="Shape"></path>
                <path d="M12.5325,9.9995098 C12.5325,8.60284314 11.3961765,7.46651961 9.9995098,7.46651961 C8.60284314,7.46651961 7.46651961,8.60284314 7.46651961,9.9995098 C7.46651961,11.3962255 8.60279412,12.532549 9.9995098,12.532549 C11.3962255,12.532549 12.5325,11.3962255 12.5325,9.9995098 Z M9.9995098,11.9443137 C8.92720588,11.9443137 8.0547549,11.0718627 8.0547549,9.9995098 C8.0547549,8.92715686 8.92715686,8.0547549 9.9995098,8.0547549 C11.0718627,8.0547549 11.9442647,8.92715686 11.9442647,9.9995098 C11.9442647,11.0718627 11.0718137,11.9443137 9.9995098,11.9443137 Z" id="Shape"></path>
                <path d="M17.8641176,11.8164216 C17.8639706,11.8163725 17.8635784,11.8162745 17.8635294,11.8162745 C15.8771569,11.2862255 13.7407843,11.8588725 12.2885784,13.3111275 C11.0384804,14.5611765 10.4358333,16.2865196 10.6351471,18.0448529 C10.6351471,18.044902 10.6351961,18.044951 10.6351961,18.045 C10.6351961,18.045098 10.6351961,18.0451471 10.6351961,18.0452451 C10.652402,18.1952941 10.7795588,18.3058824 10.9270098,18.3058824 C10.9382353,18.3058824 10.9495588,18.3051961 10.9608824,18.3039216 C12.6361275,18.1117647 14.1970098,17.4242157 15.4747549,16.3155392 C16.7406863,15.2171569 17.6387255,13.7859804 18.0717157,12.1767647 C18.1139216,12.02 18.0209804,11.8586765 17.8641176,11.8164216 Z M15.0892647,15.8712745 C13.9782353,16.8352451 12.6371078,17.4565196 11.1943137,17.6790196 C11.1116176,16.2047549 11.6529902,14.7786275 12.7045588,13.7270588 C13.937598,12.4939216 15.719902,11.967451 17.4187255,12.3160294 C16.99,13.6926961 16.1891667,14.9169608 15.0892647,15.8712745 Z" id="Shape"></path>
                <path d="M2.13539216,11.8162745 C2.13534314,11.8162745 2.13529412,11.8163235 2.13529412,11.8163235 C2.13514706,11.8163725 2.135,11.8163725 2.13485294,11.8164216 C1.9779902,11.8586275 1.88504902,12.02 1.9272549,12.1768627 C2.3602451,13.7860784 3.25828431,15.2172059 4.52421569,16.3156373 C5.80196078,17.4242647 7.36284314,18.1118627 9.03803922,18.3040196 C9.04941176,18.3052941 9.06073529,18.3059804 9.07191176,18.3059804 C9.21936275,18.3059804 9.34656863,18.1952941 9.36377451,18.0453431 C9.36377451,18.0452451 9.36377451,18.0451961 9.36377451,18.045098 C9.36377451,18.045049 9.36382353,18.045 9.36382353,18.044951 C9.56313725,16.2866667 8.9604902,14.5612745 7.71044118,13.3112255 C6.25813725,11.8588725 4.12196078,11.2860784 2.13539216,11.8162745 Z M8.80460784,17.6790196 C7.36181373,17.4565686 6.02068627,16.8352451 4.90970588,15.8712745 C3.80980392,14.9169608 3.00892157,13.6926961 2.5802451,12.3160294 C4.27897059,11.967451 6.06132353,12.4939706 7.29446078,13.7270588 C8.34598039,14.7785784 8.88735294,16.2048039 8.80460784,17.6790196 Z" id="Shape"></path>
                <path d="M15.8698529,4.04911765 C14.2957843,2.49598039 12.2109314,1.64063725 9.99946078,1.64063725 C7.7879902,1.64063725 5.70318627,2.49598039 4.12901961,4.04911765 C2.55647059,5.60068627 1.67308824,7.67063725 1.64161765,9.87759804 C1.63985294,10.0025 1.71710784,10.1148529 1.83431373,10.1578922 C1.86745098,10.170098 1.90171569,10.1759314 1.93563725,10.1759314 C2.02176471,10.1759314 2.10563725,10.1380882 2.16259804,10.0689216 C3.91558824,7.94343137 6.8452451,6.67446078 9.99941176,6.67446078 C13.1535784,6.67446078 16.0831863,7.94343137 17.8362255,10.0689216 C17.9156863,10.1652941 18.0473039,10.2008333 18.1645098,10.1578431 C18.2817647,10.1148039 18.3590196,10.002451 18.3572059,9.87754902 C18.3258333,7.67063725 17.442402,5.60068627 15.8698529,4.04911765 Z M9.99946078,6.08627451 C6.99416667,6.08627451 4.17514706,7.18647059 2.2845098,9.06387255 C2.49220588,7.32421569 3.27740196,5.71578431 4.54220588,4.46784314 C6.00553922,3.02401961 7.94362745,2.22887255 9.9995098,2.22887255 C12.0553922,2.22887255 13.9934804,3.02401961 15.4567647,4.46784314 C16.7215686,5.71578431 17.5067647,7.32421569 17.7145098,9.06387255 C15.8237745,7.18647059 13.0047549,6.08627451 9.99946078,6.08627451 Z" id="Shape"></path>
            </g>
        </g>
    </g>
</svg>