<?xml version="1.0" encoding="UTF-8"?>
<svg width="98px" height="98px" viewBox="0 0 98 98" version="1.1" xmlns="http://www.w3.org/2000/svg" xmlns:xlink="http://www.w3.org/1999/xlink">
    <!-- Generator: Sketch 53 (72520) - https://sketchapp.com -->
    <title>icon_success</title>
    <desc>Created with Sketch.</desc>
    <g id="Lord-2" stroke="none" stroke-width="1" fill="none" fill-rule="evenodd">
        <g id="Lord-V2-Order-Add-order-4-success" transform="translate(-464.000000, -352.000000)" fill="#0BC2A9" fill-rule="nonzero">
            <g id="icon_success" transform="translate(464.000000, 352.000000)">
                <path d="M48.9401222,0 C21.9551935,0 0,21.9551935 0,48.9401222 C0,75.9250509 21.9551935,97.8802444 48.9401222,97.8802444 C75.9250509,97.8802444 97.8802444,75.9250509 97.8802444,48.9401222 C97.8802444,21.9551935 75.9250509,0 48.9401222,0 Z M48.9401222,92.990224 C24.6496945,92.990224 4.89002037,73.2305499 4.89002037,48.9401222 C4.89002037,24.6496945 24.6496945,4.89002037 48.9401222,4.89002037 C73.2305499,4.89002037 92.990224,24.6496945 92.990224,48.9401222 C92.990224,73.2305499 73.2305499,92.990224 48.9401222,92.990224 Z" id="Shape"></path>
                <path d="M61.7539715,37.0244399 L42.9922607,55.6863544 L36.1462322,48.8004073 C35.1881874,47.8423625 33.6513238,47.8423625 32.693279,48.7804481 C31.7352342,49.7185336 31.7352342,51.2753564 32.6733198,52.2334012 L41.2358452,60.8558045 C41.7148676,61.3348269 42.3336049,61.5743381 42.9723014,61.5743381 C43.5910387,61.5743381 44.209776,61.3348269 44.6887984,60.8558045 L65.1869654,40.4773931 C66.1450102,39.5193483 66.1450102,37.9824847 65.2069246,37.0244399 C64.2488798,36.0663951 62.7120163,36.0663951 61.7539715,37.0244399 Z" id="Path"></path>
            </g>
        </g>
    </g>
</svg>