<?xml version="1.0" encoding="UTF-8"?>
<svg width="26px" height="12px" viewBox="0 0 26 12" version="1.1" xmlns="http://www.w3.org/2000/svg" xmlns:xlink="http://www.w3.org/1999/xlink">
    <!-- Generator: Sketch 53 (72520) - https://sketchapp.com -->
    <title>icon_vehicle</title>
    <desc>Created with Sketch.</desc>
    <g id="Lord-2" stroke="none" stroke-width="1" fill="none" fill-rule="evenodd">
        <g id="Lord-V2-Vehicle" transform="translate(-30.000000, -106.000000)" fill="#FFFFFF" fill-rule="nonzero">
            <g id="icon_vehicle" transform="translate(30.000000, 106.000000)">
                <g id="Group" transform="translate(4.457143, 7.058824)">
                    <path d="M13.6188,2.90047059 L5.1272,2.90047059 C4.92217143,2.90047059 4.75577143,2.74235294 4.75577143,2.54752941 C4.75577143,2.35270588 4.92217143,2.19458824 5.1272,2.19458824 L13.6188,2.19458824 C13.8238286,2.19458824 13.9902286,2.35270588 13.9902286,2.54752941 C13.9902286,2.74235294 13.8238286,2.90047059 13.6188,2.90047059 Z" id="Path"></path>
                    <path d="M3.10737143,4.82047059 C1.78805714,4.82047059 0.714628571,3.80117647 0.714628571,2.54682353 C0.714628571,1.29247059 1.78731429,0.273176471 3.10737143,0.273176471 C4.42594286,0.273176471 5.49937143,1.29247059 5.49937143,2.54682353 C5.49937143,3.80117647 4.42594286,4.82047059 3.10737143,4.82047059 Z M3.10737143,0.979764706 C2.19737143,0.979764706 1.45748571,1.68282353 1.45748571,2.54752941 C1.45748571,3.41223529 2.19737143,4.11529412 3.10737143,4.11529412 C4.01662857,4.11529412 4.75651429,3.41223529 4.75651429,2.54752941 C4.75651429,1.68282353 4.01588571,0.979764706 3.10737143,0.979764706 Z" id="Shape"></path>
                    <path d="M15.6401143,4.82047059 C14.3208,4.82047059 13.2473714,3.80117647 13.2473714,2.54682353 C13.2473714,1.29247059 14.3200571,0.273176471 15.6401143,0.273176471 C16.9601714,0.273176471 18.0328571,1.29247059 18.0328571,2.54682353 C18.0328571,3.80117647 16.9594286,4.82047059 15.6401143,4.82047059 Z M15.6401143,0.979764706 C14.7301143,0.979764706 13.9902286,1.68282353 13.9902286,2.54752941 C13.9902286,3.41223529 14.7301143,4.11529412 15.6401143,4.11529412 C16.5501143,4.11529412 17.29,3.41223529 17.29,2.54752941 C17.29,1.68282353 16.5493714,0.979764706 15.6401143,0.979764706 Z" id="Shape"></path>
                </g>
                <path d="M18.0789143,9.95929412 L9.58582857,9.95929412 C9.3808,9.95929412 9.2144,9.80117647 9.2144,9.60635294 C9.2144,9.41152941 9.3808,9.25341176 9.58582857,9.25341176 L18.0789143,9.25341176 C18.2839429,9.25341176 18.4503429,9.41152941 18.4503429,9.60635294 C18.4503429,9.80117647 18.2839429,9.95929412 18.0789143,9.95929412 Z" id="Path"></path>
                <path d="M23.9014286,9.95929412 L22.1163429,9.95929412 C21.9113143,9.95929412 21.7449143,9.80117647 21.7449143,9.60635294 C21.7449143,9.41152941 21.9113143,9.25341176 22.1163429,9.25341176 L23.9014286,9.25341176 C24.3612571,9.25341176 24.7468,8.94 24.8173714,8.508 L25.2133143,6.09882353 C25.2408,5.93011765 25.1969714,5.76211765 25.0877714,5.62588235 C24.9793143,5.49035294 24.8225714,5.40423529 24.6435429,5.38305882 L19.6953714,4.80988235 C19.6240571,4.80141176 19.5564571,4.77388235 19.5014857,4.73011765 L15.0287429,1.15764706 C14.7338286,0.921882353 14.3586857,0.792 13.9724,0.792 L6.97542857,0.792 C6.63,0.792 6.3128,0.957176471 6.12634286,1.23388235 L4.0352,4.34329412 C3.9884,4.41458824 3.91485714,4.46682353 3.83017143,4.49082353 L1.30445714,5.21435294 C0.929314286,5.32164706 0.693085714,5.67952941 0.753257143,6.048 L1.10685714,8.20023529 C1.20714286,8.80941176 1.75091429,9.252 2.40017143,9.252 L5.54171429,9.252 C5.74674286,9.252 5.91314286,9.41011765 5.91314286,9.60494118 C5.91314286,9.79976471 5.74674286,9.95788235 5.54171429,9.95788235 L2.39868571,9.95788235 C1.38097143,9.95788235 0.527428571,9.26470588 0.371428571,8.30894118 L0.0178285714,6.15670588 C-0.0988,5.44235294 0.361028571,4.74705882 1.08828571,4.53882353 L3.48325714,3.85270588 L5.50085714,0.852705882 C5.824,0.373411765 6.3752,0.0868235294 6.97542857,0.0868235294 L13.9738857,0.0868235294 C14.534,0.0868235294 15.0785143,0.275294118 15.5071429,0.617647059 L19.8952,4.12235294 L24.7341714,4.68282353 C25.1145143,4.72729412 25.4502857,4.91011765 25.6805714,5.20023529 C25.9116,5.48964706 26.0059429,5.84752941 25.9472571,6.20752941 L25.5513143,8.61670588 C25.4242857,9.39458824 24.7297143,9.95929412 23.9014286,9.95929412 Z" id="Path"></path>
                <path d="M15.7188571,5.08517647 L7.19977143,5.08517647 C6.99474286,5.08517647 6.82834286,4.92705882 6.82834286,4.73223529 C6.82834286,4.53741176 6.99474286,4.37929412 7.19977143,4.37929412 L15.7188571,4.37929412 C15.9238857,4.37929412 16.0902857,4.53741176 16.0902857,4.73223529 C16.0902857,4.92705882 15.9238857,5.08517647 15.7188571,5.08517647 Z" id="Path"></path>
            </g>
        </g>
    </g>
</svg>