<?xml version="1.0" encoding="UTF-8"?>
<svg width="27px" height="27px" viewBox="0 0 27 27" version="1.1" xmlns="http://www.w3.org/2000/svg" xmlns:xlink="http://www.w3.org/1999/xlink">
    <!-- Generator: Sketch 53 (72520) - https://sketchapp.com -->
    <title>icon_edit</title>
    <desc>Created with Sketch.</desc>
    <g id="Lord-2" stroke="none" stroke-width="1" fill="none" fill-rule="evenodd">
        <g id="Lord-V2-Driver-Detail" transform="translate(-533.000000, -195.000000)">
            <g id="icon_edit" transform="translate(534.000000, 196.000000)">
                <g id="pencil-striped-symbol-for-interface-edit-buttons" transform="translate(7.000000, 7.000000)" fill="#FB6240" fill-rule="nonzero">
                    <path d="M10.5807325,3.31444033 L10.0953519,3.80004733 L7.18281893,0.887921811 L7.66819959,0.402269547 C8.20437037,-0.133969136 9.07384568,-0.133969136 9.61006173,0.402269547 L10.5807325,1.3731893 C11.116179,1.90913374 11.116179,2.77824691 10.5807325,3.31444033 Z M3.78510905,9.13832922 C3.65107202,9.27236626 3.65107202,9.4894465 3.78510905,9.62350617 C3.91921399,9.75829012 4.13640741,9.75829012 4.27044444,9.62350617 L9.61006173,4.28536008 L9.12413786,3.79970782 L3.78510905,9.13832922 Z M1.35802469,6.7118107 C1.22391975,6.84596091 1.22391975,7.06295062 1.35802469,7.19707819 C1.49206173,7.33113786 1.70925514,7.33113786 1.84336008,7.19707819 L7.18281893,1.85852469 L6.69764198,1.3731893 L1.35802469,6.7118107 Z M7.66756584,2.34349794 L2.3285823,7.68236831 C2.0604856,7.94994444 2.06116461,8.38494239 2.3285823,8.65303909 C2.59679218,8.92115844 3.03108848,8.92240329 3.29988683,8.65231481 L8.63887037,3.31444033 L7.66756584,2.34349794 Z M3.29850617,10.1075967 C3.13434362,9.94323045 3.05521605,9.7349321 3.02576955,9.5202963 C2.95598971,9.53106996 2.88571193,9.54109671 2.8139177,9.54109671 C2.44720576,9.54109671 2.10278807,9.3977572 1.84336008,9.13832922 C1.5839321,8.87824486 1.44115844,8.53430247 1.44115844,8.1676358 C1.44115844,8.10077572 1.45118519,8.03561317 1.46060082,7.97065432 C1.23872222,7.94043827 1.03363786,7.84324897 0.872757202,7.68236831 C0.857320988,7.66704527 0.852002058,7.64624486 0.837946502,7.62945062 L0,10.9822551 L3.34409053,10.1451235 C3.32935597,10.1317016 3.3126749,10.1216523 3.29850617,10.1075967 Z" id="Shape"></path>
                </g>
                <circle id="Oval" stroke="#FB6240" cx="12.5" cy="12.5" r="12.5"></circle>
            </g>
        </g>
    </g>
</svg>