<?xml version="1.0" encoding="UTF-8"?>
<svg width="38px" height="38px" viewBox="0 0 38 38" version="1.1" xmlns="http://www.w3.org/2000/svg" xmlns:xlink="http://www.w3.org/1999/xlink">
    <!-- Generator: Sketch 53 (72520) - https://sketchapp.com -->
    <title>icon_delete</title>
    <desc>Created with Sketch.</desc>
    <g id="King-2" stroke="none" stroke-width="1" fill="none" fill-rule="evenodd">
        <g id="King-V2-Setting-Fee-rate" transform="translate(-842.000000, -271.000000)">
            <g id="icon_delete" transform="translate(843.000000, 272.000000)">
                <circle id="Oval" stroke="#F5365D" cx="18" cy="18" r="18"></circle>
                <g id="garbage" transform="translate(11.000000, 11.000000)" fill="#F5365D">
                    <path d="M13.5483871,2.15605749 L10.283871,2.15605749 L10.283871,1.64784394 C10.283871,0.739219713 9.50967742,0 8.55806452,0 L5.45483871,0 C4.50322581,0 3.72903226,0.739219713 3.72903226,1.64784394 L3.72903226,2.15605749 L0.464516129,2.15605749 C0.222580645,2.15605749 0.0290322581,2.34086242 0.0290322581,2.57186858 C0.0290322581,2.80287474 0.222580645,2.98767967 0.464516129,2.98767967 L1.2516129,2.98767967 L1.2516129,12.7577002 C1.2516129,13.9835729 2.29677419,14.9815195 3.58064516,14.9815195 L10.4322581,14.9815195 C11.716129,14.9815195 12.7612903,13.9835729 12.7612903,12.7577002 L12.7612903,2.98767967 L13.5483871,2.98767967 C13.7903226,2.98767967 13.983871,2.80287474 13.983871,2.57186858 C13.983871,2.34086242 13.7903226,2.15605749 13.5483871,2.15605749 Z M4.6,1.64784394 C4.6,1.19815195 4.98387097,0.831622177 5.45483871,0.831622177 L8.55806452,0.831622177 C9.02903226,0.831622177 9.41290323,1.19815195 9.41290323,1.64784394 L9.41290323,2.15605749 L4.6,2.15605749 L4.6,1.64784394 Z M11.8903226,12.7577002 C11.8903226,13.5246407 11.2354839,14.1498973 10.4322581,14.1498973 L3.58064516,14.1498973 C2.77741935,14.1498973 2.12258065,13.5246407 2.12258065,12.7577002 L2.12258065,2.98767967 L11.8935484,2.98767967 L11.8935484,12.7577002 L11.8903226,12.7577002 Z" id="Shape" fill-rule="nonzero"></path>
                    <path d="M7.00645161,12.6591376 C7.2483871,12.6591376 7.44193548,12.4743326 7.44193548,12.2433265 L7.44193548,4.89425051 C7.44193548,4.66324435 7.2483871,4.47843943 7.00645161,4.47843943 C6.76451613,4.47843943 6.57096774,4.66324435 6.57096774,4.89425051 L6.57096774,12.2402464 C6.57096774,12.4712526 6.76451613,12.6591376 7.00645161,12.6591376 Z" id="Path"></path>
                    <path d="M4.16451613,12.2002053 C4.40645161,12.2002053 4.6,12.0154004 4.6,11.7843943 L4.6,5.35010267 C4.6,5.11909651 4.40645161,4.93429158 4.16451613,4.93429158 C3.92258065,4.93429158 3.72903226,5.11909651 3.72903226,5.35010267 L3.72903226,11.7843943 C3.72903226,12.0154004 3.92580645,12.2002053 4.16451613,12.2002053 Z" id="Path"></path>
                    <path d="M9.8483871,12.2002053 C10.0903226,12.2002053 10.283871,12.0154004 10.283871,11.7843943 L10.283871,5.35010267 C10.283871,5.11909651 10.0903226,4.93429158 9.8483871,4.93429158 C9.60645161,4.93429158 9.41290323,5.11909651 9.41290323,5.35010267 L9.41290323,11.7843943 C9.41290323,12.0154004 9.60645161,12.2002053 9.8483871,12.2002053 Z" id="Path"></path>
                </g>
            </g>
        </g>
    </g>
</svg>