<?xml version="1.0" encoding="UTF-8"?>
<svg width="12px" height="18px" viewBox="0 0 12 18" version="1.1" xmlns="http://www.w3.org/2000/svg" xmlns:xlink="http://www.w3.org/1999/xlink">
    <!-- Generator: Sketch 53 (72520) - https://sketchapp.com -->
    <title>navicon_invoice</title>
    <desc>Created with Sketch.</desc>
    <g id="Symbols" stroke="none" stroke-width="1" fill="none" fill-rule="evenodd">
        <g id="Nav-dashboard" transform="translate(-33.000000, -234.000000)" fill="#fff" fill-rule="nonzero">
            <g id="navicon_invoice" transform="translate(33.000000, 234.000000)">
                <polygon id="Path" points="6.94736842 15.4285714 10.1052632 15.4285714 10.1052632 16.0714286 6.94736842 16.0714286"></polygon>
                <path d="M0,17.6785714 C0,17.8560915 0.141383763,18 0.315789474,18 L11.6842105,18 C11.8586162,18 12,17.8560915 12,17.6785714 L12,0.321428571 C12,0.143908473 11.8586162,0 11.6842105,0 L3.78947368,0 L3.78947368,3.53571429 C3.78947368,3.71323438 3.64808992,3.85714286 3.47368421,3.85714286 L0,3.85714286 L0,17.6785714 Z M10.7368421,16.3928571 C10.7368421,16.5703772 10.5954583,16.7142857 10.4210526,16.7142857 L6.63157895,16.7142857 C6.45717324,16.7142857 6.31578947,16.5703772 6.31578947,16.3928571 L6.31578947,15.1071429 C6.31578947,14.9296228 6.45717324,14.7857143 6.63157895,14.7857143 L10.4210526,14.7857143 C10.5954583,14.7857143 10.7368421,14.9296228 10.7368421,15.1071429 L10.7368421,16.3928571 Z M9.47368421,4.17857143 C8.83838878,4.17937654 8.30176879,3.69888159 8.22156857,3.05741445 C8.14136835,2.41594731 8.54265024,1.8139647 9.15789474,1.65278571 L9.15789474,1.28571429 L9.78947368,1.28571429 L9.78947368,1.65278571 C10.3454795,1.798905 10.7346901,2.30836769 10.7368421,2.89285714 L10.1052632,2.89285714 C10.1052632,2.53781695 9.82249563,2.25 9.47368421,2.25 C9.12487279,2.25 8.84210526,2.53781695 8.84210526,2.89285714 C8.84210526,3.24789734 9.12487279,3.53571429 9.47368421,3.53571429 C10.1089796,3.53490917 10.6455996,4.01540412 10.7257999,4.65687126 C10.8060001,5.2983384 10.4047182,5.90032102 9.78947368,6.0615 L9.78947368,6.42857143 L9.15789474,6.42857143 L9.15789474,6.0615 C8.6018889,5.91538072 8.21267836,5.40591802 8.21052632,4.82142857 L8.84210526,4.82142857 C8.84210526,5.17646877 9.12487279,5.46428571 9.47368421,5.46428571 C9.82249563,5.46428571 10.1052632,5.17646877 10.1052632,4.82142857 C10.1052632,4.46638838 9.82249563,4.17857143 9.47368421,4.17857143 L9.47368421,4.17857143 Z M5.05263158,1.28571429 L7.57894737,1.28571429 L7.57894737,1.92857143 L5.05263158,1.92857143 L5.05263158,1.28571429 Z M5.05263158,3.21428571 L7.57894737,3.21428571 L7.57894737,3.85714286 L5.05263158,3.85714286 L5.05263158,3.21428571 Z M1.26315789,5.14285714 L7.57894737,5.14285714 L7.57894737,5.78571429 L1.26315789,5.78571429 L1.26315789,5.14285714 Z M1.26315789,7.07142857 L10.7368421,7.07142857 L10.7368421,7.71428571 L1.26315789,7.71428571 L1.26315789,7.07142857 Z M1.26315789,9 L10.7368421,9 L10.7368421,9.64285714 L1.26315789,9.64285714 L1.26315789,9 Z M1.26315789,10.9285714 L10.7368421,10.9285714 L10.7368421,11.5714286 L1.26315789,11.5714286 L1.26315789,10.9285714 Z M1.26315789,12.8571429 L10.7368421,12.8571429 L10.7368421,13.5 L1.26315789,13.5 L1.26315789,12.8571429 Z" id="Shape"></path>
                <polygon id="Path" points="0.446526316 3.21428571 3.15789474 3.21428571 3.15789474 0.4545"></polygon>
            </g>
        </g>
    </g>
</svg>