<?xml version="1.0" encoding="UTF-8"?>
<svg width="13px" height="10px" viewBox="0 0 13 10" version="1.1" xmlns="http://www.w3.org/2000/svg" xmlns:xlink="http://www.w3.org/1999/xlink">
    <!-- Generator: Sketch 53 (72520) - https://sketchapp.com -->
    <title>icon_check</title>
    <desc>Created with Sketch.</desc>
    <g id="Lord-2" stroke="none" stroke-width="1" fill="none" fill-rule="evenodd">
        <g id="Lord-V2-Order-Add-order-2-2" transform="translate(-885.000000, -653.000000)" fill="#FFFFFF" fill-rule="nonzero">
            <g id="Group-2" transform="translate(876.000000, 644.000000)">
                <g id="icon_check" transform="translate(9.000000, 9.000000)">
                    <path d="M0.15,5.5 C0.05,5.4 0,5.25 0,5.15 C0,5.05 0.05,4.9 0.15,4.8 L0.85,4.1 C1.05,3.9 1.35,3.9 1.55,4.1 L1.6,4.15 L4.35,7.1 C4.45,7.2 4.6,7.2 4.7,7.1 L11.4,0.15 L11.45,0.15 L11.45,0.15 C11.65,-0.05 11.95,-0.05 12.15,0.15 L12.85,0.85 C13.05,1.05 13.05,1.35 12.85,1.55 L12.85,1.55 L4.85,9.85 C4.75,9.95 4.65,10 4.5,10 C4.35,10 4.25,9.95 4.15,9.85 L0.25,5.65 L0.15,5.5 Z" id="Path"></path>
                </g>
            </g>
        </g>
    </g>
</svg>