<?xml version="1.0" encoding="UTF-8"?>
<svg width="20px" height="20px" viewBox="0 0 20 20" version="1.1" xmlns="http://www.w3.org/2000/svg" xmlns:xlink="http://www.w3.org/1999/xlink">
    <!-- Generator: Sketch 53 (72520) - https://sketchapp.com -->
    <title>icon_24hr</title>
    <desc>Created with Sketch.</desc>
    <g id="Lord-2" stroke="none" stroke-width="1" fill="none" fill-rule="evenodd">
        <g id="Lord-V2-Dashboard" transform="translate(-935.000000, -324.000000)" fill="#FFFFFF" fill-rule="nonzero">
            <g id="icon_24hr" transform="translate(935.000000, 324.000000)">
                <path d="M6.7578125,4.0234375 C6.97341918,4.0234375 7.1484375,3.84841918 7.1484375,3.6328125 C7.1484375,3.58596801 7.14019773,3.54064941 7.12463379,3.49884031 C7.12463379,3.49884031 7.12463379,3.49884031 7.12463379,3.49838258 C7.06985473,3.34884645 6.92611695,3.2421875 6.7578125,3.2421875 C6.54220582,3.2421875 6.3671875,3.41720582 6.3671875,3.6328125 C6.3671875,3.8467407 6.5411377,4.0234375 6.7578125,4.0234375 Z" id="Shape"></path>
                <path d="M10,20 C15.3869629,20 20,15.4025269 20,10 C20,4.6081543 15.3977966,0 10,0 C4.61303711,0 0,4.59747313 0,10 C0,15.3918457 4.60220336,20 10,20 Z M10,0.78125 C14.9971008,0.78125 19.21875,5.00289918 19.21875,10 C19.21875,14.9971008 14.9971008,19.21875 10,19.21875 C5.00289918,19.21875 0.78125,14.9971008 0.78125,10 C0.78125,5.00289918 5.00289918,0.78125 10,0.78125 Z" id="Shape"></path>
                <path d="M10,17.5390625 C14.0866089,17.5390625 17.5390625,14.0866089 17.5390625,10 C17.5390625,6.01287844 14.2683411,2.62115477 10.2844238,2.46673586 C9.60235594,2.43682859 8.75106813,2.51785277 8.11569215,2.67333984 C7.90618898,2.72460938 7.77786254,2.93609617 7.82913207,3.14559938 C7.8804016,3.35510254 8.09204102,3.48342895 8.3013916,3.43215941 C8.86215211,3.29498289 9.64538574,3.22052 10.2520752,3.24737547 C13.8392639,3.38638305 16.7578125,6.41555785 16.7578125,10 C16.7578125,13.6631775 13.6630249,16.7578125 10,16.7578125 C6.41784668,16.7578125 3.3885193,13.8412476 3.24737547,10.2563477 C3.16558836,8.15689086 4.09530641,6.04705813 5.67367555,4.75021363 C5.8404541,4.61334227 5.86456297,4.36721801 5.72769164,4.20043945 C5.59066773,4.03381348 5.34454344,4.00955199 5.1779175,4.14657594 C3.41445922,5.59539797 2.37564086,7.94815063 2.46673586,10.2868652 C2.62298586,14.2539978 5.99716188,17.5390625 10,17.5390625 Z" id="Shape"></path>
                <path d="M10,4.140625 C9.7842407,4.140625 9.609375,4.3154907 9.609375,4.53125 L9.609375,5.3125 C9.609375,5.5282593 9.7842407,5.703125 10,5.703125 C10.2157593,5.703125 10.390625,5.5282593 10.390625,5.3125 L10.390625,4.53125 C10.390625,4.3154907 10.2157593,4.140625 10,4.140625 Z" id="Shape"></path>
                <path d="M9.609375,15.46875 C9.609375,15.6845093 9.7842407,15.859375 10,15.859375 C10.2157593,15.859375 10.390625,15.6845093 10.390625,15.46875 L10.390625,14.6875 C10.390625,14.4717407 10.2157593,14.296875 10,14.296875 C9.7842407,14.296875 9.609375,14.4717407 9.609375,14.6875 L9.609375,15.46875 Z" id="Shape"></path>
                <path d="M15.46875,10.390625 C15.6845093,10.390625 15.859375,10.2157593 15.859375,10 C15.859375,9.7842407 15.6845093,9.609375 15.46875,9.609375 L14.6875,9.609375 C14.4717407,9.609375 14.296875,9.7842407 14.296875,10 C14.296875,10.2157593 14.4717407,10.390625 14.6875,10.390625 L15.46875,10.390625 Z" id="Shape"></path>
                <path d="M5.3125,9.609375 L4.53125,9.609375 C4.3154907,9.609375 4.140625,9.7842407 4.140625,10 C4.140625,10.2157593 4.3154907,10.390625 4.53125,10.390625 L5.3125,10.390625 C5.5282593,10.390625 5.703125,10.2157593 5.703125,10 C5.703125,9.7842407 5.5282593,9.609375 5.3125,9.609375 Z" id="Shape"></path>
                <path d="M8.45352172,10.4716492 C8.99536133,10.1148987 9.609375,9.71054078 9.609375,8.828125 C9.609375,7.96661375 8.90838625,7.265625 8.046875,7.265625 C7.18536375,7.265625 6.484375,7.96661375 6.484375,8.828125 C6.484375,9.0438843 6.6592407,9.21875 6.875,9.21875 C7.0907593,9.21875 7.265625,9.0438843 7.265625,8.828125 C7.265625,8.39736938 7.61611938,8.046875 8.046875,8.046875 C8.47763062,8.046875 8.828125,8.39736938 8.828125,8.828125 C8.828125,9.26910398 8.55239867,9.47128297 8.02383422,9.81918336 C7.04177855,10.4660034 6.484375,11.0752869 6.484375,12.34375 C6.484375,12.5595093 6.6592407,12.734375 6.875,12.734375 L9.21875,12.734375 C9.4345093,12.734375 9.609375,12.5595093 9.609375,12.34375 C9.609375,12.1279907 9.4345093,11.953125 9.21875,11.953125 L7.29370117,11.953125 C7.4104309,11.1906433 7.85720824,10.8644104 8.45352172,10.4716492 L8.45352172,10.4716492 Z" id="Shape"></path>
                <path d="M10.78125,7.265625 C10.5654907,7.265625 10.390625,7.4404907 10.390625,7.65625 L10.390625,10 C10.390625,10.2157593 10.5654907,10.390625 10.78125,10.390625 L12.734375,10.390625 L12.734375,12.34375 C12.734375,12.5595093 12.9092407,12.734375 13.125,12.734375 C13.3407593,12.734375 13.515625,12.5595093 13.515625,12.34375 L13.515625,7.65625 C13.515625,7.4404907 13.3407593,7.265625 13.125,7.265625 C12.9092407,7.265625 12.734375,7.4404907 12.734375,7.65625 L12.734375,9.609375 L11.171875,9.609375 L11.171875,7.65625 C11.171875,7.4404907 10.9970093,7.265625 10.78125,7.265625 Z" id="Shape"></path>
            </g>
        </g>
    </g>
</svg>