<?xml version="1.0" encoding="UTF-8"?>
<svg width="27px" height="27px" viewBox="0 0 27 27" version="1.1" xmlns="http://www.w3.org/2000/svg" xmlns:xlink="http://www.w3.org/1999/xlink">
    <!-- Generator: Sketch 53 (72520) - https://sketchapp.com -->
    <title>icon_vieworder</title>
    <desc>Created with Sketch.</desc>
    <g id="Lord-2" stroke="none" stroke-width="1" fill="none" fill-rule="evenodd">
        <g id="Lord-V2-Trip-Ongoing-detail" transform="translate(-384.000000, -195.000000)">
            <g id="icon_vieworder" transform="translate(385.000000, 196.000000)">
                <g id="tabicon_order" transform="translate(7.000000, 5.000000)" fill="#5E72E4" fill-rule="nonzero">
                    <rect id="Rectangle" x="4.3678241" y="3.91279621" width="4.17544951" height="1"></rect>
                    <rect id="Rectangle" x="4.3678241" y="5.24630332" width="4.17544951" height="1"></rect>
                    <rect id="Rectangle" x="4.3678241" y="7.91331754" width="4.17544951" height="1"></rect>
                    <rect id="Rectangle" x="4.33056026" y="10.5803673" width="4.17544951" height="1"></rect>
                    <rect id="Rectangle" x="4.33056026" y="9.24686019" width="4.17544951" height="1"></rect>
                    <rect id="Rectangle" x="4.33056026" y="6.57981043" width="4.17544951" height="1"></rect>
                    <rect id="Rectangle" x="4.3678241" y="11.9138744" width="4.17544951" height="1"></rect>
                    <path d="M8.18102606,0.96806872 L8.18102606,0 L2.81969055,0 L2.81969055,0.96806872 L0.00558957655,0.96806872 L0.00558957655,14.9652014 L10.9951629,14.9652014 L10.9951629,0.96806872 L8.18102606,0.96806872 Z M8.18102606,3.16574645 L8.18102606,2.70063981 L9.30718241,2.70063981 L9.30718241,13.2327014 L1.69357003,13.2327014 L1.69357003,2.70063981 L2.81972638,2.70063981 L2.81972638,3.16574645 L8.18102606,3.16574645 Z M3.35714984,0.533175355 L7.64356678,0.533175355 L7.64356678,2.63257109 L3.35714984,2.63257109 L3.35714984,0.533175355 Z M10.4577036,14.4320261 L0.54304886,14.4320261 L0.54304886,1.50124408 L2.81969055,1.50124408 L2.81969055,2.16742891 L1.15607492,2.16742891 L1.15607492,13.7658412 L9.84460586,13.7658412 L9.84460586,2.16746445 L8.18099023,2.16746445 L8.18099023,1.50124408 L10.4577036,1.50124408 L10.4577036,14.4320261 L10.4577036,14.4320261 Z" id="Shape"></path>
                    <rect id="Rectangle" x="4.19386645" y="1.31626777" width="2.61305537" height="1"></rect>
                    <polygon id="Path" points="2.00543974 4.62049763 2.87952769 5.48765403 4.03234202 4.34402844 3.65228664 3.96703791 2.87952769 4.7336019 2.38549511 4.24350711"></polygon>
                    <polygon id="Path" points="2.87952769 8.12815166 2.38549511 7.63805687 2.00543974 8.01504739 2.87952769 8.88220379 4.03234202 7.7385782 3.65228664 7.36158768"></polygon>
                    <polygon id="Path" points="3.55095765 10.5671445 3.01887296 11.0949526 2.4868241 10.5671445 2.10680456 10.9441351 2.63885342 11.4719787 2.10680456 11.9997867 2.4868241 12.3767773 3.01887296 11.8489692 3.55095765 12.3767773 3.9309772 11.9997867 3.39892834 11.4719787 3.9309772 10.9441351"></polygon>
                </g>
                <circle id="Oval" stroke="#5E72E4" cx="12.5" cy="12.5" r="12.5"></circle>
            </g>
        </g>
    </g>
</svg>