<?xml version="1.0" encoding="UTF-8"?>
<svg width="18px" height="18px" viewBox="0 0 18 18" version="1.1" xmlns="http://www.w3.org/2000/svg" xmlns:xlink="http://www.w3.org/1999/xlink">
    <!-- Generator: Sketch 53 (72520) - https://sketchapp.com -->
    <title>icon_price</title>
    <desc>Created with Sketch.</desc>
    <g id="Lord-2" stroke="none" stroke-width="1" fill="none" fill-rule="evenodd">
        <g id="Lord-V2-Order-Add-order-2-1" transform="translate(-538.000000, -734.000000)" fill="#FFFFFF" fill-rule="nonzero">
            <g id="Group" transform="translate(520.000000, 721.000000)">
                <g id="icon_price" transform="translate(18.000000, 13.000000)">
                    <path d="M17.8885385,3.43246154 C17.8885385,6.15115385 16.7033077,8.12630769 16.6534615,8.20869231 C16.5530769,8.37276923 16.3793077,8.46276923 16.2,8.46276923 C16.1058462,8.46276923 16.011,8.43784615 15.9251538,8.38592308 C15.6745385,8.23361538 15.5942308,7.90753846 15.7458462,7.65692308 C15.7569231,7.63892308 16.8265385,5.841 16.8265385,3.43246154 C16.8265385,2.05892308 15.9334615,1.062 14.7025385,1.062 C13.5311538,1.062 12.5785385,2.01461538 12.5785385,3.18669231 C12.5785385,3.68584615 12.8201538,4.95415385 12.9129231,5.40069231 C12.9731538,5.688 12.7883077,5.96907692 12.501,6.02930769 C12.2136923,6.08815385 11.9326154,5.90469231 11.8730769,5.61807692 C11.8363846,5.44292308 11.5151538,3.88592308 11.5151538,3.18669231 C11.5151538,1.42961538 12.9447692,0 14.7025385,0 C16.5184615,0 17.8885385,1.47530769 17.8885385,3.43246154 Z M14.7925385,4.26807692 C15.0036923,6.03276923 15.3096923,9.47146154 14.958,9.82176923 L7.24153846,17.5389231 C6.76730769,18.0138462 5.99676923,18.0138462 5.52184615,17.5382308 L0.362076923,12.3791538 C-0.112846154,11.9049231 -0.112846154,11.1343846 0.362076923,10.6594615 L8.07923077,2.943 C8.20176923,2.82046154 9.53653846,2.81492308 11.0374615,2.89315385 C11.0291538,2.99215385 11.0076923,3.08561538 11.0076923,3.18669231 C11.0076923,3.57161538 11.0928462,4.16838462 11.1821538,4.69315385 C11.025,4.92646154 10.9329231,5.20684615 10.9329231,5.50938462 C10.9329231,6.31523077 11.5864615,6.96876923 12.3923077,6.96876923 C13.1981538,6.96876923 13.8516923,6.31523077 13.8516923,5.50938462 C13.8516923,5.013 13.6031538,4.57546154 13.2244615,4.31238462 C13.1469231,3.85061538 13.0846154,3.40476923 13.0846154,3.18669231 C13.0846154,3.13961538 13.0943077,3.096 13.0984615,3.04961538 C13.2833077,3.069 13.4653846,3.08907692 13.6377692,3.11053846 C14.6575385,3.23584615 14.6679231,3.23376923 14.7925385,4.26807692 Z M10.6795385,10.0433077 C10.5597692,9.71030769 10.3603846,9.31084615 9.92769231,8.85115385 L10.5133846,8.26476923 L9.86123077,7.61330769 L9.22915385,8.24607692 C8.38315385,7.66661538 7.51084615,7.71369231 6.91892308,8.30561538 C6.27369231,8.95084615 6.426,9.76984615 6.89953846,10.7217692 C7.22492308,11.3808462 7.28446154,11.7602308 7.03176923,12.0129231 C6.77215385,12.2725385 6.35330769,12.1596923 5.97323077,11.7803077 C5.54123077,11.3483077 5.28784615,10.8145385 5.16184615,10.3818462 L4.18292308,10.962 C4.29646154,11.3538462 4.60246154,11.9125385 5.03446154,12.3722308 L4.39615385,13.0112308 L5.04761538,13.6633846 L5.73369231,12.978 C6.63853846,13.6163077 7.551,13.5304615 8.14292308,12.9385385 C8.74869231,12.3313846 8.802,11.6529231 8.28276923,10.575 C7.92276923,9.80238462 7.83623077,9.423 8.04946154,9.21046154 C8.23638462,9.02353846 8.56869231,8.97023077 9.00138462,9.40292308 C9.48115385,9.88269231 9.64038462,10.3486154 9.72692308,10.5950769 L10.6795385,10.0433077 Z" id="Shape"></path>
                </g>
            </g>
        </g>
    </g>
</svg>