<?xml version="1.0" encoding="UTF-8"?>
<svg width="21px" height="21px" viewBox="0 0 21 21" version="1.1" xmlns="http://www.w3.org/2000/svg" xmlns:xlink="http://www.w3.org/1999/xlink">
    <!-- Generator: Sketch 53 (72520) - https://sketchapp.com -->
    <title>invoice</title>
    <desc>Created with Sketch.</desc>
    <g id="Puri" stroke="none" stroke-width="1" fill="none" fill-rule="evenodd">
        <g id="Slices" transform="translate(-164.000000, -137.000000)" fill="#FFFFFF" fill-rule="nonzero">
            <g id="invoice" transform="translate(164.000000, 137.000000)">
                <path d="M20.9548387,12.5463484 C20.9548387,9.7644129 19.8088258,6.12658065 16.6193548,4.82087742 L16.6193548,3.42701935 L17.5677419,2.66830968 C17.6534129,2.59970968 17.703271,2.49588387 17.7032258,2.38614194 L17.7032258,0.362916129 C17.7032258,0.163393548 17.5414581,0.00162580645 17.3419355,0.00162580645 L16.2580645,0.00162580645 C16.1622323,0.00162580645 16.0703742,0.0397419355 16.0026323,0.107483871 L15.5354839,0.574632258 L15.0683355,0.107483871 C15.0005935,0.0397419355 14.9087355,0.00162580645 14.8129032,0.00162580645 L13.3677419,0.00162580645 C13.2719097,0.00162580645 13.1800516,0.0397419355 13.1123097,0.107483871 L12.6451613,0.574632258 L12.1780129,0.107483871 C12.110271,0.0397419355 12.0184129,0.00162580645 11.9225806,0.00162580645 L10.8387097,0.00162580645 C10.6391871,0.00162580645 10.4774194,0.163393548 10.4774194,0.362916129 L10.4774194,2.38614194 C10.4773742,2.49588387 10.5272323,2.59970968 10.6129032,2.66830968 L11.5612903,3.42701935 L11.5612903,4.82087742 C8.37181935,6.12658065 7.22580645,9.76585806 7.22580645,12.5463484 C7.21903226,13.1987032 7.32037419,13.8477161 7.52567742,14.4669677 C7.37032258,14.4582968 7.21388387,14.4532387 7.05780645,14.4532387 L6.14193548,14.4532387 C6.14193548,14.2537161 5.98016774,14.0919484 5.78064516,14.0919484 L2.89032258,14.0919484 C2.6908,14.0919484 2.52903226,14.2537161 2.52903226,14.4532387 L0,14.4532387 L0,15.1758194 L2.52903226,15.1758194 L2.52903226,18.7887226 L0,18.7887226 L0,19.5113032 L2.52903226,19.5113032 C2.52903226,19.7108258 2.6908,19.8725935 2.89032258,19.8725935 L5.78064516,19.8725935 C5.98016774,19.8725935 6.14193548,19.7108258 6.14193548,19.5113032 L6.14193548,19.3736516 L8.83932903,20.4936516 C10.3097806,21.0942065 11.9536968,21.1124516 13.4371097,20.5445935 L19.0183226,18.4162323 C19.3489484,18.2905935 19.6150387,18.0370129 19.7564387,17.7128 C19.9734839,17.2285355 19.8814,16.6615806 19.5223226,16.2708903 C20.4948258,15.2812258 21.0135032,13.9326645 20.9548387,12.5463484 Z M5.41935484,19.1500129 L3.2516129,19.1500129 L3.2516129,14.814529 L5.41935484,14.814529 L5.41935484,19.1500129 Z M11.2,2.21272258 L11.2,0.724206452 L11.7730065,0.724206452 L12.389729,1.34092903 C12.5308129,1.48196774 12.7595097,1.48196774 12.9005935,1.34092903 L13.5173161,0.724206452 L14.663329,0.724206452 L15.2800516,1.34092903 C15.4211355,1.48196774 15.6498323,1.48196774 15.7909161,1.34092903 L16.4076387,0.724206452 L16.9806452,0.724206452 L16.9806452,2.21272258 L16.1312516,2.89194839 L12.048671,2.89194839 L11.2,2.21272258 Z M15.8967742,3.61452903 L15.8967742,4.6984 L12.283871,4.6984 L12.283871,3.61452903 L15.8967742,3.61452903 Z M19.0938323,17.4216 C19.0300194,17.5690968 18.9093935,17.6846645 18.7592774,17.7420645 L13.1780645,19.8700645 C11.8666258,20.3724387 10.4131548,20.3568129 9.11282581,19.8263484 L6.14193548,18.5910968 L6.14193548,15.1758194 L7.05780645,15.1758194 C8.25575484,15.1772194 9.43708387,15.4560903 10.5092129,15.990529 C10.8632323,16.1672452 11.2534258,16.2593742 11.6490839,16.2596903 L14.4516129,16.2596903 C14.7508968,16.2616323 14.9919677,16.5058194 14.9900258,16.8051032 C14.9884,17.0557935 14.8150258,17.2727032 14.5708387,17.329471 C14.5235097,17.3338065 14.4772645,17.3435613 14.4292129,17.3435613 L10.116129,17.3435613 L10.116129,18.0661419 L14.4292129,18.0661419 C14.4368,18.0661419 14.4440258,18.0661419 14.4516129,18.0661419 C14.4588387,18.0661419 14.4657032,18.0639742 14.4732903,18.0639742 C14.7600194,18.0593677 15.0431806,17.9993484 15.3071484,17.8873032 L18.3278968,16.6050839 C18.4717806,16.5436645 18.6345419,16.5436645 18.7784258,16.6050839 C18.9280903,16.6682645 19.0455097,16.7897032 19.1035871,16.9414452 C19.1649613,17.0963484 19.1614387,17.2693613 19.0938323,17.4216 Z M18.8785032,15.8825032 C18.6021161,15.8084387 18.3089742,15.8286258 18.0453677,15.9399484 L15.7027613,16.9345806 C15.7095806,16.8905484 15.7140516,16.8461548 15.716129,16.8016258 C15.716129,16.1032516 15.1499871,15.5371097 14.4516129,15.5371097 L11.6490839,15.5371097 C11.3655613,15.5367032 11.0859677,15.4706323 10.8322065,15.3441806 C10.048071,14.9543032 9.20820645,14.6883484 8.34255484,14.5558452 C8.07253548,13.9208323 7.93827097,13.2363226 7.9483871,12.5463484 C7.9483871,9.94505806 9.01094194,6.53050323 11.9948387,5.42098065 L16.1858065,5.42098065 C19.1697032,6.53050323 20.2322581,9.94505806 20.2322581,12.5463484 C20.2929548,13.8032774 19.7978968,15.0233097 18.8785032,15.8825032 Z" id="Shape"></path>
                <rect id="Rectangle-path" x="3.97419355" y="17.7048516" width="1" height="1"></rect>
                <path d="M14.8577032,10.3540387 L13.5516387,9.91868387 C13.4107806,9.87248387 13.3340065,9.72083226 13.3802065,9.57997419 C13.416471,9.46941935 13.5198,9.3948129 13.6361806,9.39517419 L14.5444645,9.39517419 C14.6927742,9.39535484 14.8129032,9.51566452 14.8129032,9.66397419 L14.8129032,9.90098065 L15.5354839,9.90098065 L15.5354839,9.66397419 C15.5350774,9.11675484 15.0916839,8.67318065 14.5444645,8.67259355 L14.4516129,8.67259355 L14.4516129,7.9500129 L13.7290323,7.9500129 L13.7290323,8.67259355 L13.6361806,8.67259355 C13.088871,8.67223226 12.6448452,9.11562581 12.6444839,9.66293548 C12.6442129,10.090071 12.9176194,10.4693355 13.3229419,10.6040516 L14.6290065,11.0394065 C14.7698645,11.0856065 14.8466387,11.2372581 14.8004387,11.3781161 C14.7641742,11.488671 14.6608452,11.5632774 14.5444645,11.5629161 L13.6361806,11.5629161 C13.487871,11.5627355 13.3677419,11.4424258 13.3677419,11.2941161 L13.3677419,11.0571097 L12.6451613,11.0571097 L12.6451613,11.2941161 C12.6455677,11.8413355 13.0889613,12.2849097 13.6361806,12.2854968 L13.7290323,12.2854968 L13.7290323,13.0080774 L14.4516129,13.0080774 L14.4516129,12.2854968 L14.5444645,12.2854968 C15.0917742,12.2858581 15.5358,11.8424645 15.5361613,11.2951548 C15.5364774,10.8680194 15.2630258,10.4887548 14.8577032,10.3540387 Z" id="Shape"></path>
                <path d="M14.0903226,6.50485161 C11.8954387,6.50485161 10.116129,8.28416129 10.116129,10.4790452 C10.1187032,12.6728452 11.8965226,14.4506645 14.0903226,14.4532387 C16.2852065,14.4532387 18.0645161,12.673929 18.0645161,10.4790452 C18.0645161,8.28416129 16.2852065,6.50485161 14.0903226,6.50485161 Z M14.0903226,13.7306581 C12.294529,13.7306581 10.8387097,12.2748387 10.8387097,10.4790452 C10.8406968,8.68406452 12.2953419,7.22941935 14.0903226,7.22743226 C15.8861613,7.22743226 17.3419355,8.68320645 17.3419355,10.4790452 C17.3419355,12.2748839 15.8861613,13.7306581 14.0903226,13.7306581 Z" id="Shape"></path>
            </g>
        </g>
    </g>
</svg>