<?xml version="1.0" encoding="UTF-8"?>
<svg width="141px" height="38px" viewBox="0 0 141 38" version="1.1" xmlns="http://www.w3.org/2000/svg" xmlns:xlink="http://www.w3.org/1999/xlink">
    <!-- Generator: sketchtool 53 (72520) - https://sketchapp.com -->
    <title>311FAFBC-22ED-41B9-8B1C-2A1BFE6DED53</title>
    <desc>Created with sketchtool.</desc>
    <g id="King-2" stroke="none" stroke-width="1" fill="none" fill-rule="evenodd">
        <g id="King-V2-Login" transform="translate(-38.000000, -25.000000)" fill="#FFFFFF">
            <g id="logo_white" transform="translate(38.000000, 25.000000)">
                <path d="M18.0009194,16.3430761 C18.733113,13.3781745 19.7189496,10.6058992 20.958429,8.02625019 L18.766437,5.77422222 C16.9173328,9.3534961 15.6117835,13.0085334 14.8497891,16.7393341 C11.4393343,17.2019841 8.86096021,17.6773863 7.11466667,18.1655404 L7.4082154,20.5563029 C9.40373381,19.7718632 11.7876839,19.0267176 14.5600656,18.320866 C14.2176314,20.4312851 14.0471543,22.5656724 14.0486343,24.724028 L16.5072918,26.7899634 C16.676163,23.5399049 17.0785408,20.4671802 17.7144251,17.5717895 C19.1132539,17.2613627 20.5936354,16.9591858 22.1555697,16.6652589 C20.9580219,21.0978135 20.3606183,25.312535 20.3633591,29.3094234 L22.8220165,31.3753588 C22.9649139,26.0685137 23.7640064,20.9824208 25.2192941,16.1170802 C26.2930113,15.9342868 27.4006365,15.7549235 28.5421697,15.5789903 L28.4865943,15.3122042 C27.4159337,15.4023677 26.3809162,15.4930774 25.3815418,15.5843333 C25.9471606,13.7597773 26.6056776,11.9664735 27.3570928,10.2044218 L25.1651008,7.95239379 C24.0363587,10.66421 23.1066157,13.303796 22.3758718,15.8711516 C20.8162607,16.0269074 19.3579433,16.1842156 18.0009194,16.3430761 Z M18.56,37.12 C8.30959504,37.12 0,28.810405 0,18.56 C0,8.30959504 8.30959504,0 18.56,0 C28.810405,0 37.12,8.30959504 37.12,18.56 C37.12,28.810405 28.810405,37.12 18.56,37.12 Z" id="Combined-Shape"></path>
                <text id="HAIMENS" font-family="GillSans-Italic, Gill Sans" font-size="25.6" font-style="italic" font-weight="normal">
                    <tspan x="40.32" y="27.48">HAIMENS</tspan>
                </text>
            </g>
        </g>
    </g>
</svg>