<?xml version="1.0" encoding="UTF-8"?>
<svg width="48px" height="48px" viewBox="0 0 48 48" version="1.1" xmlns="http://www.w3.org/2000/svg" xmlns:xlink="http://www.w3.org/1999/xlink">
    <!-- Generator: sketchtool 53 (72520) - https://sketchapp.com -->
    <title>6ABE2F2A-FDE5-44BA-B923-FCF3F9883BE7</title>
    <desc>Created with sketchtool.</desc>
    <g id="Lord-2" stroke="none" stroke-width="1" fill="none" fill-rule="evenodd">
        <g id="Lord-V2-Trip-Recent-Finished-detail" transform="translate(-580.000000, -1500.000000)" fill-rule="nonzero">
            <g id="icon_cob" transform="translate(580.000000, 1500.000000)">
                <g id="Group" transform="translate(0.660118, 0.660911)">
                    <g transform="translate(0.754420, 23.320727)">
                        <path d="M33.801336,17.2988809 C34.6272377,17.2988809 35.3030098,17.9754652 35.3030098,18.8023597 C35.3030098,19.6292541 34.6272377,20.3058384 33.801336,20.3058384 C32.9754342,20.3058384 32.2996621,19.6292541 32.2996621,18.8023597 C32.2996621,17.9754652 32.9754342,17.2988809 33.801336,17.2988809 Z" id="Path" fill="#F2F2F2"></path>
                        <path d="M33.801336,14.2919234 C36.2865855,14.2919234 38.3063576,16.3141231 38.3063576,18.8023597 C38.3063576,21.2905963 36.2865855,23.312796 33.801336,23.312796 C31.3160864,23.312796 29.2963143,21.2905963 29.2963143,18.8023597 C29.2963143,16.3140287 31.3160864,14.2919234 33.801336,14.2919234 Z M35.3030098,18.8023597 C35.3030098,17.9754652 34.6272377,17.2988809 33.801336,17.2988809 C32.9754342,17.2988809 32.2996621,17.9754652 32.2996621,18.8023597 C32.2996621,19.6292541 32.9754342,20.3058384 33.801336,20.3058384 C34.6272377,20.3058384 35.3030098,19.6292541 35.3030098,18.8023597 Z" id="Shape" fill="#BFBCCA"></path>
                        <path d="M12.7778075,17.2988809 C13.6037092,17.2988809 14.2794813,17.9754652 14.2794813,18.8023597 C14.2794813,19.6292541 13.6037092,20.3058384 12.7778075,20.3058384 C11.9519057,20.3058384 11.2761336,19.6292541 11.2761336,18.8023597 C11.2761336,17.9754652 11.9519057,17.2988809 12.7778075,17.2988809 Z" id="Path" fill="#F2F2F2"></path>
                        <path d="M12.7778075,14.2919234 C15.263057,14.2919234 17.2828291,16.3141231 17.2828291,18.8023597 C17.2828291,21.2905963 15.263057,23.312796 12.7778075,23.312796 C10.292558,23.312796 8.27278585,21.2905963 8.27278585,18.8023597 C8.27278585,16.3140287 10.292558,14.2919234 12.7778075,14.2919234 Z M14.2794813,18.8023597 C14.2794813,17.9754652 13.6037092,17.2988809 12.7778075,17.2988809 C11.9519057,17.2988809 11.2761336,17.9754652 11.2761336,18.8023597 C11.2761336,19.6292541 11.9519057,20.3058384 12.7778075,20.3058384 C13.6037092,20.3058384 14.2794813,19.6292541 14.2794813,18.8023597 Z" id="Shape" fill="#BFBCCA"></path>
                        <path d="M6.02027505,9.78139266 L6.94377996,6.77443513 L22.5386876,6.77443513 L22.5386876,0.00878067856 L26.2928723,0.00878067856 L26.2928723,6.77443513 L37.4428291,6.77443513 L39.0571002,9.78139266 L44.3129587,9.78139266 L45.8146326,11.2848714 L45.8146326,18.8022653 L38.3062633,18.8022653 C38.3062633,16.3140287 36.2864912,14.291829 33.8012417,14.291829 C31.3159921,14.291829 29.29622,16.3140287 29.29622,18.8022653 L17.2828291,18.8022653 C17.2828291,16.3140287 15.263057,14.291829 12.7778075,14.291829 C10.292558,14.291829 8.27278585,16.3140287 8.27278585,18.8022653 L0.0135795678,18.8022653 L0.764416503,9.78139266 L6.02027505,9.78139266 Z" id="Path" fill="#FB6F4F"></path>
                        <polygon id="Path" fill="#C7E2F7" points="37.4429234 6.77443513 26.2929666 6.77443513 26.2929666 0.00878067856 33.801336 0.00878067856"></polygon>
                        <polygon id="Path" fill="#C7E2F7" points="22.5386876 0.00878067856 22.5386876 6.77443513 6.94377996 6.77443513 9.02362279 0.00878067856"></polygon>
                        <polygon id="Path" fill="#91C4FD" points="9.02362279 0.00878067856 6.94377996 6.77443513 11.4488016 6.77443513 13.5286444 0.00878067856"></polygon>
                        <polygon id="Path" fill="#FB4D4F" points="0.764416503 9.78139266 0.0135795678 18.8023597 5.26943811 18.8023597 6.02027505 9.78139266"></polygon>
                    </g>
                    <path d="M14.2830648,0.0254922926 C22.1594028,0.0254922926 28.5489666,6.42283032 28.5489666,14.3085406 C28.5489666,22.1942508 22.1594028,28.5916833 14.2830648,28.5916833 C11.4974617,28.5916833 8.90706483,27.779801 6.71462475,26.3966081 L3.77134774,29.3434227 L3.77134774,23.9383957 C1.4437721,21.3974751 0.0171630648,18.0222011 0.0171630648,14.3085406 C0.0171630648,6.42283032 6.40672692,0.0254922926 14.2830648,0.0254922926 Z" id="Path" fill="#D6D6E2"></path>
                    <path d="M18.8631513,0.792054972 C17.4238114,0.302886202 15.8871513,0.0254922926 14.2830648,0.0254922926 C6.40682122,0.0254922926 0.0171630648,6.42283032 0.0171630648,14.308635 C0.0171630648,18.0222011 1.4437721,21.3975695 3.77134774,23.9384901 L3.77134774,29.3435171 L6.71462475,26.3967025 C7.92226326,27.1585444 9.25381532,27.7392021 10.6690138,28.1142221 C8.23478193,25.1472969 6.75545776,21.372266 6.75545776,17.2386436 C6.75545776,9.50730331 11.851945,2.96380947 18.8631513,0.792054972 Z" id="Path" fill="#A9A6B3"></path>
                    <g transform="translate(7.449902, 4.531963)" id="Path">
                        <path d="M13.5906955,14.2871082 L13.5906955,16.5423263 L0.0756306483,16.5423263 L0.0756306483,14.2871082 C0.0756306483,10.5509767 3.1015167,7.52145372 6.83316306,7.52145372 C10.5648094,7.52145372 13.5906955,10.5509767 13.5906955,14.2871082 Z" fill="#FFE475"></path>
                        <path d="M6.83316306,0.00405988363 C8.90546169,0.00405988363 10.5873477,1.68796743 10.5873477,3.7627568 C10.5873477,5.83754617 8.90546169,7.52145372 6.83316306,7.52145372 C4.76086444,7.52145372 3.07897839,5.83754617 3.07897839,3.7627568 C3.07897839,1.68796743 4.76086444,0.00405988363 6.83316306,0.00405988363 Z" fill="#FFE475"></path>
                        <path d="M8.7102554,7.7915776 C8.11369745,7.61898534 7.48526523,7.52145372 6.83316306,7.52145372 C3.1015167,7.52145372 0.0756306483,10.5509767 0.0756306483,14.2871082 L0.0756306483,16.5423263 L3.82981532,16.5423263 L3.82981532,14.2871082 C3.82981532,11.2037682 5.89268369,8.60676447 8.7102554,7.7915776 Z" fill="#FF9901"></path>
                        <path d="M6.08232613,3.7627568 C6.08232613,2.22321116 7.01045187,0.902615989 8.33483694,0.321769382 C7.87435756,0.119813775 7.36785855,0.00405988363 6.83316306,0.00405988363 C4.76086444,0.00405988363 3.07897839,1.68796743 3.07897839,3.7627568 C3.07897839,5.83754617 4.76086444,7.52145372 6.83316306,7.52145372 C7.36785855,7.52145372 7.87435756,7.40569983 8.33483694,7.20374422 C7.01045187,6.6228032 6.08232613,5.30220802 6.08232613,3.7627568 Z" fill="#FF9901"></path>
                    </g>
                </g>
                <g id="Group">
                    <g transform="translate(20.935167, 33.045564)" fill="#FFFFFF">
                        <g id="Rectangle">
                            <rect x="0.0447937132" y="0.0310628306" width="1.50167387" height="1.41623848"></rect>
                            <rect x="6.05148919" y="0.0310628306" width="1.50167387" height="1.41623848"></rect>
                        </g>
                        <polygon id="Path" points="24.0280079 7.46121637 21.0683222 7.46121637 21.0683222 6.0449779 22.6134695 6.0449779 22.6134695 4.49787899 24.0280079 4.49787899"></polygon>
                    </g>
                    <rect id="Rectangle" fill="#FFFFFF" x="14.9731709" y="18.0417452" width="1.50167387" height="1.41623848"></rect>
                    <g fill="#231F20">
                        <path d="M14.222334,37.5870636 C11.588275,37.5870636 9.40564244,39.5539356 9.05936346,42.0974999 L2.22676621,42.0974999 L2.85972495,34.4928658 L7.46480157,34.4928658 L7.98714342,34.4928658 L19.4782868,34.4928658 L19.4782868,33.0766273 L8.42244401,33.0766273 L9.29596857,30.2343311 L7.94395285,29.8178626 L6.94245972,33.0767217 L1.5581611,33.0767217 L0.689445972,43.5137384 L9.05936346,43.5137384 C9.40573674,46.0573971 11.588275,48.0241747 14.222334,48.0241747 C16.8563929,48.0241747 19.0390255,46.0573027 19.3853045,43.5137384 L23.2323772,43.5137384 L23.2323772,42.0974999 L19.3853045,42.0974999 C19.0390255,39.5539356 16.8564872,37.5870636 14.222334,37.5870636 Z M14.222334,46.6080306 C12.1282515,46.6080306 10.4245815,44.902313 10.4245815,42.8057135 C10.4245815,40.7091141 12.1282515,39.0033965 14.222334,39.0033965 C16.3164165,39.0033965 18.0200864,40.7091141 18.0200864,42.8057135 C18.0200864,44.902313 16.3164165,46.6080306 14.222334,46.6080306 Z" id="Shape"></path>
                        <path d="M47.9666169,34.9948751 L46.0506719,33.0766273 L40.9242908,33.0766273 L35.6684322,23.3040153 L27.4274263,23.3040153 C29.0178389,20.9234128 29.9466248,18.0640274 29.9466248,14.9912619 C29.9464361,6.72505561 23.2294538,0 14.9731709,0 C11.5351827,0 8.17650295,1.19681593 5.51594499,3.36989225 L6.4100275,4.46728823 C8.81898625,2.49984974 11.860055,1.41623848 14.9731709,1.41623848 C22.4494774,1.41623848 28.5318978,7.50596951 28.5318978,14.9911675 C28.5318978,22.4763655 22.4494774,28.5660966 14.9731709,28.5660966 C12.4316228,28.5660966 9.94486444,27.8447591 7.78184676,26.4800717 L7.30401572,26.1786017 L5.16872299,28.3165553 L5.16872299,24.3455171 L4.98266405,24.1424285 C2.68177603,21.6305879 1.41453831,18.3806039 1.41453831,14.9911675 C1.41453831,11.527237 2.71874263,8.2286288 5.08686837,5.70300351 L4.05557564,4.7337299 C1.44028291,7.52286996 0,11.1657186 0,14.9911675 C0,18.6436466 1.33098625,22.1485535 3.75418468,24.8927516 L3.75418468,31.7355439 L7.51327308,27.9719373 C9.78577603,29.2889447 12.3527859,29.982335 14.9731709,29.982335 C18.0422475,29.982335 20.8982947,29.0524329 23.275945,27.4602032 L23.275945,30.0696698 L19.4781925,30.0696698 L19.4781925,31.4859082 L24.6904833,31.4859082 L24.6904833,26.3867888 C25.2877014,25.8755267 25.8443694,25.3181897 26.3550177,24.7202538 L27.0301297,24.7202538 L27.0301297,31.4859082 L30.7407466,31.4859082 L30.7407466,30.0696698 L28.444668,30.0696698 L28.444668,24.7202538 L34.823387,24.7202538 L37.7003694,30.0696698 L32.9932574,30.0696698 L32.9932574,31.4859082 L38.4620511,31.4859082 L40.0792456,34.4928658 L45.4645815,34.4928658 L46.55189,35.5814811 L46.55189,42.0974999 L40.4087387,42.0974999 C40.0623654,39.5539356 37.8798271,37.5870636 35.2456739,37.5870636 C32.6116149,37.5870636 30.4289823,39.5539356 30.0827033,42.0974999 L25.4847937,42.0974999 L25.4847937,43.5137384 L30.0827033,43.5137384 C30.4290766,46.0573971 32.6116149,48.0241747 35.2456739,48.0241747 C37.8798271,48.0241747 40.0623654,46.0573027 40.4087387,43.5137384 L47.9664283,43.5137384 L47.9664283,34.9948751 L47.9666169,34.9948751 Z M35.2458625,46.6080306 C33.15178,46.6080306 31.44811,44.902313 31.44811,42.8057135 C31.44811,40.7091141 33.15178,39.0033965 35.2458625,39.0033965 C37.3400393,39.0033965 39.0436149,40.7091141 39.0436149,42.8057135 C39.0436149,44.902313 37.339945,46.6080306 35.2458625,46.6080306 Z" id="Shape"></path>
                        <rect id="Rectangle" x="23.9833084" y="33.0766273" width="1.50167387" height="1.41623848"></rect>
                        <path d="M14.222334,40.5940211 C13.0043222,40.5940211 12.013391,41.5861434 12.013391,42.8056191 C12.013391,44.0250949 13.0043222,45.0172171 14.222334,45.0172171 C15.4403458,45.0172171 16.431277,44.0250949 16.431277,42.8056191 C16.431277,41.5861434 15.4403458,40.5940211 14.222334,40.5940211 Z M14.222334,43.6009787 C13.7842986,43.6009787 13.4279293,43.244181 13.4279293,42.8056191 C13.4279293,42.3670573 13.7842986,42.0102596 14.222334,42.0102596 C14.6603694,42.0102596 15.0167387,42.3670573 15.0167387,42.8056191 C15.0167387,43.244181 14.6603694,43.6009787 14.222334,43.6009787 Z" id="Shape"></path>
                        <path d="M35.2458625,40.5940211 C34.0278507,40.5940211 33.0369194,41.5861434 33.0369194,42.8056191 C33.0369194,44.0250949 34.0278507,45.0172171 35.2458625,45.0172171 C36.4638743,45.0172171 37.4548055,44.0250949 37.4548055,42.8056191 C37.4548055,41.5861434 36.4638743,40.5940211 35.2458625,40.5940211 Z M35.2458625,43.6009787 C34.8078271,43.6009787 34.4514578,43.244181 34.4514578,42.8056191 C34.4514578,42.3670573 34.8078271,42.0102596 35.2458625,42.0102596 C35.6838978,42.0102596 36.0402672,42.3670573 36.0402672,42.8056191 C36.0402672,43.244181 35.6838978,43.6009787 35.2458625,43.6009787 Z" id="Shape"></path>
                        <path d="M7.50836935,19.5016038 L7.50836935,22.4649412 L22.4379725,22.4649412 L22.4379725,19.5016038 C22.4379725,16.3318733 20.4559214,13.6185492 17.6682436,12.5338994 C18.7406523,11.7173907 19.4346248,10.427103 19.4346248,8.97725246 C19.4346248,6.51422491 17.4332417,4.5104363 14.9731709,4.5104363 C12.5131002,4.5104363 10.5117171,6.51422491 10.5117171,8.97725246 C10.5117171,10.4271974 11.2056896,11.7173907 12.2780982,12.5338994 C9.49042043,13.6185492 7.50836935,16.3318733 7.50836935,19.5016038 Z M11.9262554,8.97725246 C11.9262554,7.29513881 13.2930766,5.92667478 14.9731709,5.92667478 C16.6532652,5.92667478 18.0200864,7.29513881 18.0200864,8.97725246 C18.0200864,10.6593661 16.6532652,12.0278301 14.9731709,12.0278301 C13.2930766,12.0278301 11.9262554,10.6593661 11.9262554,8.97725246 Z M14.9731709,13.4440686 C18.3093124,13.4440686 21.0234342,16.1614526 21.0234342,19.5016038 L21.0234342,21.0487027 L8.92290766,21.0487027 L8.92290766,19.5016038 C8.92290766,19.4869694 8.92394499,19.4726181 8.92403929,19.4579837 L13.4715914,19.4579837 L13.4715914,18.0417452 L9.101611,18.0417452 C9.75597642,15.4047092 12.1397564,13.4440686 14.9731709,13.4440686 Z" id="Shape"></path>
                        <rect id="Rectangle" x="17.9765187" y="18.0417452" width="1.50167387" height="1.41623848"></rect>
                    </g>
                </g>
            </g>
        </g>
    </g>
</svg>