<?xml version="1.0" encoding="UTF-8"?>
<svg width="42px" height="48px" viewBox="0 0 42 48" version="1.1" xmlns="http://www.w3.org/2000/svg" xmlns:xlink="http://www.w3.org/1999/xlink">
    <!-- Generator: sketchtool 53 (72520) - https://sketchapp.com -->
    <title>F7664EEB-DD89-4F65-9E72-194F1667CB6C</title>
    <desc>Created with sketchtool.</desc>
    <g id="Lord-2" stroke="none" stroke-width="1" fill="none" fill-rule="evenodd">
        <g id="Lord-V2-Trip-Recent-Finished-detail" transform="translate(-357.000000, -1500.000000)" fill-rule="nonzero">
            <g id="icon_arrival" transform="translate(357.000000, 1500.000000)">
                <polygon id="Path" fill="#FFD54F" points="11.8867925 4 27.7358491 4 27.7358491 20 11.8867925 20"></polygon>
                <polygon id="Path" fill="#FFA001" points="35.6603774 16 40.4150943 24 21.3962264 24 27.7358491 20 27.7358491 8 40.4150943 8"></polygon>
                <polygon id="Path" fill="#BF360C" points="27.7358491 20 21.3962264 24 21.3962264 20"></polygon>
                <path d="M18.2264151,44 L15.8490566,44 L14.2641509,40.8 L11.8867925,40.8 L11.8867925,2.4 C11.8867925,1.5163444 11.177206,0.8 10.3018868,0.8 C9.42656757,0.8 8.71698113,1.5163444 8.71698113,2.4 L8.71698113,40.8 L6.33962264,40.8 L4.75471698,44 L2.37735849,44 L0.79245283,47.2 L19.8113208,47.2 L18.2264151,44 Z" id="Path" fill="#36474F"></path>
                <path d="M36.5843774,16 L41.0950189,8.412 C41.2421528,8.16477123 41.2460754,7.85672892 41.1052854,7.60576359 C40.9644954,7.35479826 40.700791,7.19976638 40.4150943,7.2 L28.5283019,7.2 L28.5283019,4 C28.5283019,3.5581722 28.1735087,3.2 27.7358491,3.2 L12.6792453,3.2 L12.6792453,2.4 C12.6792453,1.0745166 11.6148656,0 10.3018868,0 C8.98890795,0 7.9245283,1.0745166 7.9245283,2.4 L7.9245283,40 L6.33962264,40 C6.03954793,40.0001618 5.76530318,40.1714165 5.63116981,40.4424 L4.26498113,43.2 L2.37735849,43.2 C2.07728378,43.2001618 1.80303903,43.3714165 1.66890566,43.6424 L0.084,46.8424 C-0.0387182942,47.090322 -0.0255846464,47.3847033 0.118713773,47.6204845 C0.263012192,47.8562657 0.517915386,47.999852 0.79245283,48 L19.8113208,48 C20.0859992,48.0001292 20.3411546,47.8566541 20.4856439,47.6208248 C20.6301333,47.3849954 20.6433473,47.0904493 20.520566,46.8424 L18.9356604,43.6424 C18.8013994,43.3711587 18.5267753,43.1998587 18.2264151,43.2 L16.3387925,43.2 L14.9773585,40.4424 C14.8424625,40.1698645 14.5659373,39.998337 14.2641509,40 L12.6792453,40 L12.6792453,20.8 L20.6037736,20.8 L20.6037736,24 C20.6037736,24.4418278 20.9585668,24.8 21.3962264,24.8 L40.4150943,24.8 C40.700791,24.8002336 40.9644954,24.6452017 41.1052854,24.3942364 C41.2460754,24.1432711 41.2421528,23.8352288 41.0950189,23.588 L36.5843774,16 Z M18.5291321,46.4 L2.07464151,46.4 L2.86709434,44.8 L17.7366792,44.8 L18.5291321,46.4 Z M14.5668679,43.2 L6.03690566,43.2 L6.82935849,41.6 L13.7744151,41.6 L14.5668679,43.2 Z M9.50943396,40 L9.50943396,2.4 C9.50943396,1.9581722 9.86422718,1.6 10.3018868,1.6 C10.7395464,1.6 11.0943396,1.9581722 11.0943396,2.4 L11.0943396,40 L9.50943396,40 Z M12.6792453,19.2 L12.6792453,4.8 L26.9433962,4.8 L26.9433962,19.2 L12.6792453,19.2 Z M22.1886792,20.8 L24.9733585,20.8 L22.1886792,22.56 L22.1886792,20.8 Z M24.1595094,23.2 C24.1595094,23.2 28.1851698,20.6472 28.2010189,20.632 C28.4039026,20.48625 28.525538,20.251366 28.5283019,20 L28.5283019,8.8 L39.0156226,8.8 L34.9812453,15.588 C34.8303519,15.841546 34.8303519,16.158454 34.9812453,16.412 L39.0156226,23.2 L24.1595094,23.2 Z" id="Shape" fill="#000000"></path>
            </g>
        </g>
    </g>
</svg>