<?xml version="1.0" encoding="UTF-8"?>
<svg width="51px" height="41px" viewBox="0 0 51 41" version="1.1" xmlns="http://www.w3.org/2000/svg" xmlns:xlink="http://www.w3.org/1999/xlink">
    <!-- Generator: sketchtool 53 (72520) - https://sketchapp.com -->
    <title>FFE8FBC1-712B-4429-9A12-9EF1DE81AD99</title>
    <desc>Created with sketchtool.</desc>
    <g id="Lord-2" stroke="none" stroke-width="1" fill="none" fill-rule="evenodd">
        <g id="Lord-V2-Trip-Recent-Finished-detail" transform="translate(-125.000000, -1504.000000)" fill-rule="nonzero">
            <g id="icon_start" transform="translate(125.000000, 1504.000000)">
                <g id="Group" transform="translate(2.988281, 17.116505)" fill="#49618C">
                    <polygon id="Path" points="3.12195703 0.436868932 3.12195703 23.0875777 0.0902460937 23.0875777 0.0902460937 0.0737402913"></polygon>
                    <polygon id="Path" points="44.932793 0.0747354369 44.932793 23.0875777 41.901082 23.0875777 41.901082 0.436868932"></polygon>
                </g>
                <path d="M50.2428691,0.795917476 L50.2428691,16.8763762 C43.3603594,17.8550024 36.4335234,18.4230316 29.5005117,18.5814587 C19.9003594,18.7993956 10.2871582,18.2313665 0.757728516,16.8763762 L0.757728516,0.795917476 C3.10074023,1.1288932 5.44873242,1.41440049 7.7998125,1.65253883 L7.80080859,1.65253883 C21.9222305,3.08216505 36.1729453,2.79665777 50.2428691,0.795917476 Z" id="Path" fill="#EDD154"></path>
                <g id="Group" transform="translate(2.988281, 17.116505)" fill="#3B4773">
                    <path d="M0.0902460937,0.0737402913 L3.12195703,0.436968447 L3.12195703,3.91778883 C2.11102148,3.80583495 1.10008594,3.68472573 0.0902460937,3.55456068 C0.0902460937,3.55456068 0.0902460937,0.0737402913 0.0902460937,0.0737402913 Z" id="Path"></path>
                    <path d="M44.932793,0.0747354369 L44.932793,3.55456068 C43.9228535,3.68472573 42.9120176,3.80583495 41.901082,3.91778883 L41.901082,0.436868932 L44.932793,0.0747354369 Z" id="Path"></path>
                </g>
                <path d="M29.5005117,18.5815583 C19.9003594,18.7994951 10.2871582,18.231466 0.757728516,16.8764757 L0.757728516,0.795917476 C3.10074023,1.1288932 5.44873242,1.41440049 7.7998125,1.65253883 C7.7998125,1.65253883 14.086459,17.5362573 29.4874629,18.5805631 C29.4914473,18.5805631 29.4965273,18.5815583 29.5005117,18.5815583 Z" id="Path" fill="#D6B31D"></path>
                <path d="M18.1152598,14.4390655 C18.5335195,14.4390655 18.8726895,14.1002184 18.8726895,13.6823568 L18.8726895,7.94046602 C19.4168555,7.97032039 19.960623,7.99798544 20.5020996,8.02037621 C20.5126582,8.02077427 20.5233164,8.0209733 20.533875,8.0209733 C20.9376914,8.0209733 21.2731758,7.70242718 21.2901094,7.29551214 C21.3073418,6.87804854 20.9826152,6.52546845 20.5645547,6.50815291 C18.9681152,6.44217476 17.3519531,6.34256068 15.7610918,6.21239563 C15.344127,6.17856068 14.9785605,6.48825 14.9443945,6.90481796 C14.9102285,7.32128641 15.2205117,7.68660437 15.6374766,7.72073786 C16.2082383,7.76741019 16.7825859,7.80880825 17.3577305,7.84751942 L17.3577305,13.6822573 C17.3578301,14.1002184 17.697,14.4390655 18.1152598,14.4390655 Z" id="Path" fill="#000000"></path>
                <path d="M39.2093379,13.881585 C39.6276973,13.881585 39.9667676,13.5427379 39.9667676,13.1248762 L39.9667676,7.25351699 C40.5521719,7.18296117 41.1368789,7.10981796 41.717502,7.03120146 C42.1319766,6.97507524 42.4225371,6.59393447 42.366457,6.17985437 C42.3102773,5.76567476 41.9284746,5.47509223 41.5141992,5.53151699 C39.9299121,5.74587136 38.3195273,5.93086893 36.7274707,6.08113592 C36.3111035,6.12044417 36.0054023,6.4896432 36.0446484,6.90561408 C36.0817031,7.29750243 36.4116094,7.5911699 36.7977949,7.5911699 C36.8216016,7.5911699 36.8458066,7.59007524 36.8700117,7.58778641 C37.3958496,7.53812864 37.9237793,7.48349515 38.4519082,7.4264733 L38.4519082,13.1247767 C38.4519082,13.5427379 38.7908789,13.881585 39.2093379,13.881585 Z" id="Path" fill="#000000"></path>
                <path d="M34.2988945,8.99631553 L34.2988945,8.77230825 C34.2988945,8.11979126 34.0430977,7.51812621 33.5786191,7.0779733 C33.1093594,6.63324272 32.4872988,6.40654854 31.8229043,6.44277184 C31.1936719,6.47610922 30.5570684,6.50476942 29.931123,6.52805583 C29.5240195,6.54308252 29.2017832,6.87725243 29.2017832,7.28426699 L29.2017832,10.857835 L29.2017832,13.8267524 C29.2017832,14.2446141 29.5408535,14.5834612 29.9592129,14.5834612 C30.3775723,14.5834612 30.7166426,14.2446141 30.7166426,13.8267524 L30.7166426,11.5877743 C31.2714668,11.5926505 31.7827617,11.794068 32.1667559,12.1620728 C32.5646953,12.5433131 32.7839355,13.0682524 32.7839355,13.6401626 C32.7839355,14.0580243 33.1230059,14.3968714 33.5413652,14.3968714 C33.9597246,14.3968714 34.2987949,14.0580243 34.2987949,13.6401626 C34.2987949,12.6520825 33.9139043,11.7392354 33.2152441,11.069801 C33.2141484,11.0687063 33.2128535,11.0677112 33.2117578,11.0666165 C33.8656934,10.601983 34.2988945,9.83771117 34.2988945,8.99631553 Z M30.7166426,8.01102184 C31.1119922,7.99400485 31.5090352,7.97489806 31.9030898,7.954 C32.1451406,7.94066505 32.3714531,8.01987864 32.536207,8.1761165 C32.6959805,8.32757767 32.7840352,8.53934466 32.7840352,8.77240777 L32.7840352,8.99641505 C32.7840352,9.52175243 32.3440605,9.98877427 31.8230039,10.0162403 L31.8229043,10.0162403 C31.4567402,10.0356456 31.086791,10.0535583 30.7166426,10.0696796 L30.7166426,8.01102184 Z" id="Shape" fill="#000000"></path>
                <path d="M26.5813594,14.661182 C26.9997187,14.661182 27.3387891,14.322335 27.3387891,13.9044733 L27.3387891,9.09921359 C27.3387891,7.73357524 26.2188809,6.61622573 24.8421797,6.60836408 C24.1661309,6.60756796 23.5367988,6.86192718 23.0635547,7.3321335 C22.5954902,7.79726456 22.3377012,8.41793689 22.3377012,9.07990777 L22.3377012,13.8851675 C22.3377012,14.3030291 22.6768711,14.6418762 23.0951309,14.6418762 C23.5133906,14.6418762 23.8525605,14.3030291 23.8525605,13.8851675 L23.8525605,11.6257888 C24.4023047,11.6332524 24.9533438,11.6384272 25.5036855,11.6384272 C25.6107656,11.6384272 25.7169492,11.6373325 25.8239297,11.637034 L25.8239297,13.9045728 C25.8239297,14.3224345 26.163,14.661182 26.5813594,14.661182 Z M23.8526602,10.113267 L23.8526602,9.07990777 C23.8526602,8.82365777 23.9518711,8.5840267 24.1319648,8.405 C24.3172383,8.22089806 24.5649668,8.12407039 24.8339121,8.12168204 C25.3797715,8.12476699 25.8239297,8.56322816 25.8239297,9.09911408 L25.8239297,10.1242136 C25.1678027,10.1260049 24.5090859,10.1223228 23.8526602,10.113267 Z" id="Shape" fill="#000000"></path>
                <path d="M10.3562871,7.39741505 C10.4999238,7.27033495 10.7015332,7.21500485 10.9239609,7.24207282 C11.5356621,7.31631068 12.1572246,7.38696602 12.7718145,7.45204854 C13.188082,7.49593447 13.5607207,7.19490291 13.604748,6.77923058 C13.6487754,6.36365777 13.3472578,5.99107524 12.9312891,5.94708981 C12.3245684,5.88290291 11.7106758,5.81324272 11.1066445,5.73990049 C10.4474297,5.65989078 9.82437305,5.8465801 9.35172656,6.26493932 C8.88425977,6.67882039 8.62676953,7.26555825 8.62676953,7.91737864 C8.62676953,9.21713835 9.63601172,10.3574757 10.9242598,10.5136141 L11.1277617,10.5380947 C11.6516074,10.6009879 12.0941719,11.090301 12.0941719,11.6065825 C12.0941719,11.8261117 12.0136875,12.0184733 11.8674609,12.1479417 C11.7227285,12.276216 11.524207,12.3326408 11.3082539,12.3066675 C10.7033262,12.2342209 10.0901309,12.1560024 9.48590039,12.074301 C9.07102734,12.0182743 8.68982227,12.3085583 8.63374219,12.7226383 C8.5775625,13.136818 8.86812305,13.5179587 9.28269727,13.5739854 C9.89459766,13.656682 10.5154629,13.7358956 11.1278613,13.8092379 C11.224582,13.8208811 11.3205059,13.8265534 11.4154336,13.8265534 C11.9603965,13.8265534 12.4696992,13.6372767 12.8728184,13.2800194 C13.3406836,12.8653422 13.6091309,12.255318 13.6091309,11.606483 C13.6091309,10.3195607 12.5984941,9.19026942 11.3082539,9.03542476 L11.1066445,9.01124272 C10.5925605,8.94884709 10.1417285,8.43774029 10.1417285,7.91737864 C10.1417285,7.70143204 10.2159375,7.52170874 10.3562871,7.39741505 Z" id="Path" fill="#000000"></path>
                <path d="M50.7389238,0.224504854 C50.5730742,0.0807063107 50.3529375,0.015723301 50.1357891,0.0468713592 C36.1496367,2.03547087 21.9312949,2.32257039 7.87601367,0.89981068 C7.46004492,0.857317961 7.08830273,1.16063835 7.04606836,1.57641019 C7.00383398,1.99218204 7.30714453,2.36337136 7.7233125,2.40556553 C21.6114492,3.81140777 35.6560723,3.56232282 49.4851406,1.66587379 L49.4851406,16.2180874 C33.5652715,18.4209417 17.4348281,18.4209417 1.51485937,16.2180874 L1.51485937,1.66587379 C2.68078711,1.82569417 3.85607812,1.9748665 5.01971484,2.11090291 C5.43618164,2.16006311 5.81150977,1.86231553 5.85991992,1.44724029 C5.9085293,1.03216505 5.6110957,0.656298544 5.195625,0.607834951 C3.75636914,0.439754854 2.29898437,0.251075243 0.864111328,0.0469708738 C0.646365234,0.0160218447 0.426726562,0.0809053398 0.260976562,0.224604369 C0.0952265625,0.368203883 0,0.576786408 0,0.79601699 L0,16.8759782 C0,17.2527403 0.277412109,17.5720825 0.650648438,17.6251238 C1.20716602,17.7042379 1.76398242,17.7801675 2.32099805,17.8539078 L2.32099805,40.2040825 C2.32099805,40.6219442 2.66016797,40.9607913 3.07842773,40.9607913 L6.11013867,40.9607913 C6.52839844,40.9607913 6.86756836,40.6219442 6.86756836,40.2040825 L6.86756836,18.3968592 C13.0620762,19.054551 19.2809883,19.3835461 25.4999004,19.3835461 C31.7188125,19.3835461 37.9375254,19.0546505 44.131834,18.3968592 L44.131834,25.1231481 C44.131834,25.5410097 44.4709043,25.8798568 44.8892637,25.8798568 C45.307623,25.8798568 45.6466934,25.5410097 45.6466934,25.1231481 L45.6466934,18.2292767 C46.1525098,18.1711602 46.658127,18.1107549 47.1636445,18.0481602 L47.1636445,39.4473738 L45.6466934,39.4473738 L45.6466934,27.6455437 C45.6466934,27.227682 45.307623,26.888835 44.8892637,26.888835 C44.4709043,26.888835 44.131834,27.227682 44.131834,27.6455437 L44.131834,40.2040825 C44.131834,40.6219442 44.4709043,40.9607913 44.8892637,40.9607913 L47.9210742,40.9607913 C48.3394336,40.9607913 48.6785039,40.6219442 48.6785039,40.2040825 L48.6785039,17.8541068 C49.2356191,17.7803665 49.7925352,17.7043374 50.3491523,17.6252233 C50.7223887,17.572182 50.9998008,17.2528398 50.9998008,16.8760777 L50.9998008,0.79601699 C51,0.576786408 50.9047734,0.368203883 50.7389238,0.224504854 Z M5.35280859,39.4473738 L3.83585742,39.4473738 L3.83585742,18.0480607 C4.34127539,18.1106553 4.84689258,18.1710607 5.35270898,18.2291772 L5.35270898,39.4473738 L5.35280859,39.4473738 Z" id="Shape" fill="#000000"></path>
            </g>
        </g>
    </g>
</svg>