<?xml version="1.0" encoding="UTF-8"?>
<svg width="18px" height="21px" viewBox="0 0 18 21" version="1.1" xmlns="http://www.w3.org/2000/svg" xmlns:xlink="http://www.w3.org/1999/xlink">
    <!-- Generator: Sketch 53 (72520) - https://sketchapp.com -->
    <title>tabicon_payable</title>
    <desc>Created with Sketch.</desc>
    <g id="Symbols" stroke="none" stroke-width="1" fill="none" fill-rule="evenodd">
        <g id="Lord-nav-dashboard" transform="translate(-33.000000, -473.000000)" fill="#12CCEF" fill-rule="nonzero">
            <g id="tabicon_payable" transform="translate(33.000000, 473.000000)">
                <path d="M9.7026506,13.1806653 L8.50987952,13.1806653 C8.07614458,13.1806653 7.72481928,12.827027 7.72481928,12.3904366 C7.72481928,11.9538462 8.07614458,11.6002079 8.50987952,11.6002079 L10.6091566,11.6002079 C10.8954217,11.6002079 11.1296386,11.3644491 11.1296386,11.0762994 C11.1296386,10.7881497 10.8954217,10.5523909 10.6091566,10.5523909 L9.62457831,10.5523909 L9.62457831,9.82328482 C9.62457831,9.53513514 9.39036145,9.2993763 9.10409639,9.2993763 C8.81783133,9.2993763 8.58361446,9.53513514 8.58361446,9.82328482 L8.58361446,10.5523909 L8.50987952,10.5523909 C7.50361446,10.5523909 6.68385542,11.3775468 6.68385542,12.3904366 C6.68385542,13.4033264 7.50361446,14.2284823 8.50987952,14.2284823 L9.7026506,14.2284823 C10.1363855,14.2284823 10.4877108,14.5821206 10.4877108,15.018711 C10.4877108,15.4553015 10.1363855,15.8089397 9.7026506,15.8089397 L7.56433735,15.8089397 C7.27807229,15.8089397 7.04385542,16.0446985 7.04385542,16.3328482 C7.04385542,16.6209979 7.27807229,16.8567568 7.56433735,16.8567568 L8.58795181,16.8567568 L8.58795181,17.6033264 C8.58795181,17.8914761 8.82216867,18.1272349 9.10843373,18.1272349 C9.3946988,18.1272349 9.62891566,17.8914761 9.62891566,17.6033264 L9.62891566,16.8567568 L9.71566265,16.8567568 C9.72,16.8567568 9.72433735,16.8567568 9.7286747,16.8567568 C10.7262651,16.843659 11.5286747,16.022869 11.5286747,15.018711 C11.5286747,14.0058212 10.7089157,13.1806653 9.7026506,13.1806653 Z" id="Path"></path>
                <path d="M16.9286747,11.9931393 C16.3821687,10.727027 15.6274699,9.5002079 14.673253,8.35197505 C13.5195181,6.95488565 12.3701205,6.02058212 11.7845783,5.58835759 L13.9966265,1.45821206 C14.1050602,1.25301455 14.0703614,0.9997921 13.9012048,0.838253638 C13.3286747,0.275051975 12.7214458,0 12.0448193,0 C11.4245783,0 10.8563855,0.235758836 10.3619277,0.445322245 C9.97156627,0.606860707 9.60289157,0.764033264 9.30361446,0.764033264 C9.21253012,0.764033264 9.13445783,0.750935551 9.05638554,0.72037422 C8.02409639,0.340540541 7.23036145,0.104781705 6.4626506,0.104781705 C5.49108434,0.104781705 4.6626506,0.497713098 3.85156627,1.33596674 C3.68240964,1.51060291 3.65638554,1.78565489 3.79084337,1.99085239 L6.17638554,5.61891892 C5.58650602,6.05987526 4.45879518,6.98544699 3.32674699,8.35197505 C2.37686747,9.5002079 1.61783133,10.727027 1.0713253,11.9931393 C0.386024096,13.5866944 0.0390361446,15.250104 0.0390361446,16.935343 C0.0390361446,19.175052 1.85204819,21 4.07710843,21 L13.9228916,21 C16.1479518,21 17.9609639,19.175052 17.9609639,16.935343 C17.9609639,15.250104 17.6139759,13.5866944 16.9286747,11.9931393 Z M4.90120482,1.77255717 C5.40433735,1.33596674 5.88578313,1.14386694 6.4626506,1.14386694 C7.07855422,1.14386694 7.77253012,1.35343035 8.69638554,1.6983368 C8.88722892,1.76819127 9.09108434,1.8031185 9.29927711,1.8031185 C9.80674699,1.8031185 10.2925301,1.6022869 10.7566265,1.40582121 C11.2033735,1.21808732 11.6284337,1.03908524 12.0404819,1.03908524 C12.24,1.03908524 12.5219277,1.07401247 12.8775904,1.32723493 L10.7956627,5.22162162 L7.16963855,5.22162162 L4.90120482,1.77255717 Z M13.9228916,19.952183 L4.07710843,19.952183 C2.42457831,19.952183 1.08,18.5987526 1.08,16.935343 C1.08,14.1367983 2.09927711,11.4823285 4.10313253,9.04615385 C5.36963855,7.5049896 6.65783133,6.54885655 7.04819277,6.26943867 L10.9431325,6.26943867 C11.3378313,6.54449064 12.6216867,7.5049896 13.8881928,9.04615385 C15.8963855,11.4823285 16.9113253,14.1324324 16.9113253,16.935343 C16.92,18.5987526 15.5754217,19.952183 13.9228916,19.952183 Z" id="Shape"></path>
            </g>
        </g>
    </g>
</svg>