<?xml version="1.0" encoding="UTF-8"?>
<svg width="18px" height="15px" viewBox="0 0 18 15" version="1.1" xmlns="http://www.w3.org/2000/svg" xmlns:xlink="http://www.w3.org/1999/xlink">
    <!-- Generator: Sketch 53 (72520) - https://sketchapp.com -->
    <title>navicon_dashboard</title>
    <desc>Created with Sketch.</desc>
    <g id="Symbols" stroke="none" stroke-width="1" fill="none" fill-rule="evenodd">
        <g id="Nav-dashboard" transform="translate(-30.000000, -116.000000)" fill="#fff" fill-rule="nonzero">
            <g id="navicon_dashboard" transform="translate(30.000000, 116.000000)">
                <path d="M16.9947602,0.0435644531 L16.9947602,0.01734375 L16.9067863,0.01734375 L1.05504078,0.01734375 L0.967066884,0.01734375 L0.967066884,0.0435644531 C0.448443719,0.0791308594 0.0615171289,0.490810547 0,0.99046875 L0,1.07841797 L0,11.5000195 C0,11.7021094 0.0527079935,11.8724414 0.140681892,12.0258691 C0.34308646,12.3814453 0.641862969,12.5610937 1.05507015,12.5610937 L6.84008809,12.5610937 L6.84008809,14.017002 L5.74114845,14.017002 C5.46862316,14.017002 5.25761501,14.2284668 5.25761501,14.4998145 C5.25761501,14.7711621 5.46862316,14.9825977 5.74114845,14.9825977 L12.2207374,14.9825977 C12.4932626,14.9825977 12.7131093,14.7711328 12.7131093,14.4998145 C12.7131093,14.2284375 12.493292,14.017002 12.2207374,14.017002 L11.1217977,14.017002 L11.1217977,12.5610937 L16.9067863,12.5610937 C17.3201697,12.5610937 17.6215889,12.3814453 17.8211746,12.0258691 C17.9117618,11.8649414 17.9706656,11.6927637 17.9706656,11.5000195 L17.9706656,1.07844727 L17.9706656,0.990498047 C17.9091191,0.490810547 17.4959119,0.0791308594 16.9947602,0.0435644531 Z M16.9947602,1.07844727 L16.9947602,11.5000488 C16.9947602,11.5618066 16.9684796,11.587998 16.9067863,11.587998 L1.05504078,11.587998 C0.993523654,11.587998 0.967066884,11.5618066 0.967066884,11.5000488 L0.967066884,1.07844727 L0.967066884,0.990498047 L16.9947602,0.990498047 L16.9947308,1.07844727 L16.9947602,1.07844727 Z" id="Shape"></path>
            </g>
        </g>
    </g>
</svg>