<?xml version="1.0" encoding="UTF-8"?>
<svg width="18px" height="21px" viewBox="0 0 18 21" version="1.1" xmlns="http://www.w3.org/2000/svg" xmlns:xlink="http://www.w3.org/1999/xlink">
    <!-- Generator: Sketch 53 (72520) - https://sketchapp.com -->
    <title>tabicon_notification</title>
    <desc>Created with Sketch.</desc>
    <g id="Symbols" stroke="none" stroke-width="1" fill="none" fill-rule="evenodd">
        <g id="Lord-nav-dashboard" transform="translate(-33.000000, -533.000000)" fill="#FFD601" fill-rule="nonzero">
            <g id="Group-9" transform="translate(0.000000, 528.000000)">
                <g id="tabicon_notification" transform="translate(33.000000, 5.000000)">
                    <path d="M17.9082757,17.7126387 L16.3668785,15.2083887 C15.6562991,14.0525273 15.2803598,12.7295273 15.2803598,11.3811387 L15.2803598,9.1875 C15.2803598,5.81088867 12.4622664,3.06251367 9,3.06251367 C5.53773364,3.06251367 2.71964019,5.81088867 2.71964019,9.1875 L2.71964019,11.3811387 C2.71964019,12.7295273 2.34370093,14.0525273 1.6331215,15.2083887 L0.0917242991,17.7126387 C0.00828504673,17.847375 0.00647663551,18.0162773 0.0854579439,18.1527773 C0.16532243,18.2901387 0.315126168,18.375041 0.476621495,18.375041 L17.5233364,18.375041 C17.6848318,18.375041 17.8346776,18.2901797 17.9145,18.1527773 C17.9934813,18.0162363 17.991715,17.847375 17.9082757,17.7126387 Z M1.26887383,17.5000137 L2.40203271,15.658125 C3.19693458,14.366625 3.61682243,12.8878887 3.61682243,11.3811387 L3.61682243,9.1875 C3.61682243,6.292125 6.03117757,3.9375 9,3.9375 C11.9688224,3.9375 14.3831776,6.292125 14.3831776,9.1875 L14.3831776,11.3811387 C14.3831776,12.8878887 14.8030654,14.366625 15.5970841,15.658125 L16.7311262,17.5000137 L1.26887383,17.5000137 Z" id="Shape"></path>
                    <path d="M9,0 C8.0103785,0 7.20559346,0.784875 7.20559346,1.75001367 L7.20559346,3.50002734 C7.20559346,3.74148633 7.40657944,3.9375 7.65420561,3.9375 C7.90183178,3.9375 8.10281776,3.74148633 8.10281776,3.49998633 L8.10281776,1.75001367 C8.10281776,1.26701367 8.50474766,0.875027344 9,0.875027344 C9.49525234,0.875027344 9.89718224,1.26701367 9.89718224,1.75001367 L9.89718224,3.50002734 C9.89718224,3.74148633 10.0981682,3.9375 10.3457944,3.9375 C10.5934206,3.9375 10.7944065,3.74148633 10.7944065,3.49998633 L10.7944065,1.75001367 C10.7944065,0.784875 9.9896215,0 9,0 Z" id="Path"></path>
                    <path d="M10.9415187,17.716125 C10.815014,17.5078887 10.5413551,17.4396387 10.3269533,17.5594863 C10.1125093,17.682 10.0407617,17.9506113 10.1663411,18.1588477 C10.2829626,18.3522363 10.3466776,18.5840977 10.3466776,18.8124727 C10.3466776,19.5361113 9.7428785,20.1249727 9.00088318,20.1249727 C8.25888785,20.1249727 7.65508879,19.5361113 7.65508879,18.8124727 C7.65508879,18.5840977 7.71880374,18.3522363 7.83542523,18.1588477 C7.9601215,17.949709 7.88837383,17.681959 7.67481308,17.5594863 C7.4586028,17.4395977 7.1858271,17.5078477 7.06024766,17.716125 C6.86195327,18.046875 6.75698131,18.4257363 6.75698131,18.8125137 C6.75702336,20.0191113 7.76275234,21 9,21 C10.2372477,21 11.2429766,20.0191113 11.244785,18.8125137 C11.244785,18.4257363 11.1398131,18.046875 10.9415187,17.716125 Z" id="Path"></path>
                </g>
            </g>
        </g>
    </g>
</svg>