<?xml version="1.0" encoding="UTF-8"?>
<svg width="20px" height="23px" viewBox="0 0 20 23" version="1.1" xmlns="http://www.w3.org/2000/svg" xmlns:xlink="http://www.w3.org/1999/xlink">
    <!-- Generator: Sketch 53 (72520) - https://sketchapp.com -->
    <title>tabicon_trip</title>
    <desc>Created with Sketch.</desc>
    <g id="Symbols" stroke="none" stroke-width="1" fill="none" fill-rule="evenodd">
        <g id="Lord-nav-dashboard" transform="translate(-32.000000, -411.000000)" fill="#2ECE89" fill-rule="nonzero">
            <g id="tabicon_trip" transform="translate(32.000000, 411.000000)">
                <path d="M9.42690589,14.0594957 L11.8284178,14.0594957 C12.3782208,14.0594957 12.3790194,13.1575541 11.8284178,13.1575541 L9.42690589,13.1575541 C8.26900552,13.1575541 7.32671421,12.1654885 7.32671421,10.9458 C7.32671421,9.7262517 8.26887244,8.73404591 9.42690589,8.73404591 L12.9570379,8.73404591 C13.0997125,8.73404591 13.2258837,8.66032079 13.3037426,8.54721016 C13.3060051,8.54510776 13.3084007,8.54314548 13.3106633,8.54118319 C13.9174297,8.01557625 14.5271242,7.48702588 15.0447189,6.86470724 C15.5623137,6.24238859 15.988208,5.51635018 16.167483,4.71083998 C16.3524808,3.88038099 16.2489353,2.97998122 15.9357698,2.19801822 C15.6777044,1.55369417 15.2781622,0.960529193 14.7174457,0.572841516 C14.0939097,0.141843799 13.3179834,-0.0388248253 12.579589,0.0640539594 C11.6705707,0.190760278 10.8270337,0.742577498 10.2967952,1.53056747 C9.76668974,2.31841726 9.55134688,3.32842361 9.68696763,4.28348649 C9.81460286,5.18318545 10.2374361,6.01476574 10.7829802,6.72020035 C11.0944155,7.12302555 11.445379,7.48814717 11.8152417,7.83210439 L9.42703898,7.83210439 C7.79666204,7.83210439 6.47040034,9.22909762 6.47040034,10.9458 C6.47040034,12.6627828 7.79666204,14.0594957 9.42690589,14.0594957 Z M10.6088959,4.60515796 C10.2985253,3.526192 10.6719815,2.18764626 11.4777204,1.49160246 C11.9077406,1.12017356 12.434918,0.934459106 12.9619623,0.934459106 C13.4875426,0.934459106 14.0131229,1.11919241 14.4424776,1.48823857 L14.450197,1.49496634 C15.2731048,2.20937135 15.6348488,3.64294682 15.2736371,4.76129825 C14.8917962,5.94314302 13.8941386,6.86582853 12.9624947,7.67820665 C11.9768154,6.81088508 10.9514747,5.79541244 10.6088959,4.60515796 Z" id="Shape"></path>
                <path d="M16.814177,13.1575541 L15.2398318,13.1575541 C14.6900288,13.1575541 14.6892302,14.0594957 15.2398318,14.0594957 L16.814177,14.0594957 C18.0935903,14.0594957 19.1343697,15.1558417 19.1343697,16.5030775 C19.1343697,17.8501731 18.0935903,18.9465191 16.814177,18.9465191 L12.808108,18.9465191 C12.6112649,17.9948201 11.8053929,17.2797143 10.8436702,17.2797143 L10.079589,17.2797143 L9.68976256,16.8363824 C8.71832409,15.7314865 7.34122126,15.0978147 5.91141397,15.0978147 L3.36216995,15.0978147 C2.91444845,15.0978147 2.55004259,15.4814377 2.55004259,15.9529422 L2.55004259,17.2797143 L2.02792269,17.2797143 C0.919000204,17.2797143 0.0170357751,18.2297314 0.0170357751,19.3974198 C0.0170357751,20.3471565 0.622071959,21.1717287 1.46574211,21.4306077 C1.62891291,22.3232986 2.37595826,23 3.27046954,23 C4.13663223,23 4.86424617,22.3657676 5.05789503,21.5151253 L7.88889479,21.5151253 C8.08254365,22.3657676 8.81015758,23 9.67632027,23 C10.5794825,23 11.3319847,22.3101234 11.4853066,21.4046777 C12.1579536,21.1673837 12.659178,20.5723966 12.8085073,19.8484607 L16.814177,19.8484607 C18.5656676,19.8484607 19.9908167,18.3476075 19.9908167,16.5030775 C19.9908167,14.6584073 18.5656676,13.1575541 16.814177,13.1575541 L16.814177,13.1575541 Z M3.40648957,15.9997562 L5.91141397,15.9997562 C7.02832198,15.9997562 8.10663332,16.463692 8.90438671,17.2797143 L3.40648957,17.2797143 L3.40648957,15.9997562 Z M3.27060266,22.0980584 C2.72931751,22.0980584 2.288783,21.6342629 2.288783,21.0640844 C2.288783,20.493906 2.72931751,20.0301104 3.27060266,20.0301104 C3.81175468,20.0301104 4.2522892,20.493906 4.2522892,21.0640844 C4.2522892,21.6342629 3.81175468,22.0980584 3.27060266,22.0980584 Z M9.67632027,22.0980584 C9.13490204,22.0980584 8.69463373,21.6342629 8.69463373,21.0640844 C8.69463373,20.493906 9.13490204,20.0301104 9.67632027,20.0301104 C10.2176054,20.0301104 10.6580068,20.493906 10.6580068,21.0640844 C10.6580068,21.6342629 10.2176054,22.0980584 9.67632027,22.0980584 Z M11.4196923,20.4512968 C11.1756016,19.68335 10.4867174,19.1281689 9.67632027,19.1281689 C8.81015758,19.1281689 8.08254365,19.7625415 7.8890279,20.6131838 L5.05789503,20.6131838 C4.86437925,19.7625415 4.13663223,19.1281689 3.27060266,19.1281689 C2.44782794,19.1281689 1.74949424,19.7005899 1.5157847,20.4870381 C1.13301213,20.2864665 0.873615843,19.8687841 0.873615843,19.3972796 C0.873615843,18.7268855 1.39134371,18.1815157 2.02805581,18.1815157 L2.97846572,18.1815157 L9.89326024,18.1823567 C9.89672061,18.1823567 9.9000479,18.1816559 9.90350831,18.1815157 L10.8438032,18.1815157 C11.4803822,18.1815157 11.9982432,18.7268855 11.9982432,19.3972796 C11.9981101,19.8429943 11.7690588,20.2396524 11.4196923,20.4512968 Z" id="Shape"></path>
                <path d="M14.5926054,3.52128633 C14.5926054,2.57449298 13.8612649,1.80416342 12.9619623,1.80416342 C12.0629259,1.80416342 11.3314523,2.57449298 11.3314523,3.52128633 C11.3314523,4.46835998 12.0629259,5.23868955 12.9619623,5.23868955 C13.8612649,5.23868955 14.5926054,4.46835998 14.5926054,3.52128633 L14.5926054,3.52128633 Z M12.1878993,3.52128633 C12.1878993,3.07178725 12.5351363,2.70610497 12.9619623,2.70610497 C13.3889214,2.70610497 13.7361584,3.07178725 13.7361584,3.52128633 C13.7361584,3.97092556 13.3889214,4.33674799 12.9619623,4.33674799 C12.5351363,4.33674799 12.1878993,3.97092556 12.1878993,3.52128633 L12.1878993,3.52128633 Z" id="Shape"></path>
                <path d="M13.2563618,13.2895866 C13.0915939,13.4629668 13.091727,13.7538027 13.2563618,13.927323 C13.4208635,14.1007033 13.6972956,14.1007033 13.8619304,13.927323 C14.0217738,13.7587083 14.0269644,13.4796461 13.8745741,13.3040233 C13.7126012,13.117608 13.4263203,13.1105999 13.2563618,13.2895866 C13.1766397,13.3734034 13.3359508,13.2056296 13.2563618,13.2895866 L13.2563618,13.2895866 Z" id="Path"></path>
                <path d="M9.67632027,20.6130436 C9.44367547,20.6130436 9.24803026,20.8190815 9.24803026,21.0639443 C9.24803026,21.3090874 9.44367547,21.5149851 9.67632027,21.5149851 C9.90244358,21.5149851 10.0936968,21.3210011 10.1036787,21.0837071 C10.114326,20.8314158 9.91655131,20.6130436 9.67632027,20.6130436 L9.67632027,20.6130436 Z" id="Path"></path>
                <path d="M3.27046954,20.6130436 C3.03782474,20.6130436 2.84217952,20.8190815 2.84217952,21.0639443 C2.84217952,21.3090874 3.03782474,21.5149851 3.27046954,21.5149851 C3.49659284,21.5149851 3.68784603,21.3210011 3.69782794,21.0837071 C3.7084753,20.8314158 3.51070058,20.6130436 3.27046954,20.6130436 L3.27046954,20.6130436 Z" id="Path"></path>
            </g>
        </g>
    </g>
</svg>