<?xml version="1.0" encoding="UTF-8"?>
<svg width="16px" height="22px" viewBox="0 0 16 22" version="1.1" xmlns="http://www.w3.org/2000/svg" xmlns:xlink="http://www.w3.org/1999/xlink">
    <!-- Generator: Sketch 53 (72520) - https://sketchapp.com -->
    <title>tabicon_order</title>
    <desc>Created with Sketch.</desc>
    <g id="Symbols" stroke="none" stroke-width="1" fill="none" fill-rule="evenodd">
        <g id="Lord-nav-dashboard" transform="translate(-34.000000, -352.000000)" fill="#F3A4B5" fill-rule="nonzero">
            <g id="tabicon_order" transform="translate(34.000000, 352.000000)">
                <rect id="Rectangle" x="6.3531987" y="5.73876777" width="6.07338111" height="1"></rect>
                <rect id="Rectangle" x="6.3531987" y="7.6945782" width="6.07338111" height="1"></rect>
                <rect id="Rectangle" x="6.3531987" y="11.6061991" width="6.07338111" height="1"></rect>
                <rect id="Rectangle" x="6.29899674" y="15.517872" width="6.07338111" height="1"></rect>
                <rect id="Rectangle" x="6.29899674" y="13.5620616" width="6.07338111" height="1"></rect>
                <rect id="Rectangle" x="6.29899674" y="9.65038863" width="6.07338111" height="1"></rect>
                <rect id="Rectangle" x="6.3531987" y="17.4736825" width="6.07338111" height="1"></rect>
                <path d="M11.8996743,1.41983412 L11.8996743,0 L4.10136808,0 L4.10136808,1.41983412 L0.00813029316,1.41983412 L0.00813029316,21.9489621 L15.9929642,21.9489621 L15.9929642,1.41983412 L11.8996743,1.41983412 Z M11.8996743,4.64309479 L11.8996743,3.96093839 L13.5377199,3.96093839 L13.5377199,19.4079621 L2.46337459,19.4079621 L2.46337459,3.96093839 L4.1014202,3.96093839 L4.1014202,4.64309479 L11.8996743,4.64309479 Z M4.88312704,0.781990521 L11.1179153,0.781990521 L11.1179153,3.86110427 L4.88312704,3.86110427 L4.88312704,0.781990521 Z M15.2112052,21.1669716 L0.789889251,21.1669716 L0.789889251,2.20182464 L4.10136808,2.20182464 L4.10136808,3.17889573 L1.68156352,3.17889573 L1.68156352,20.1899005 L14.3194267,20.1899005 L14.3194267,3.17894787 L11.8996221,3.17894787 L11.8996221,2.20182464 L15.2112052,2.20182464 L15.2112052,21.1669716 L15.2112052,21.1669716 Z" id="Shape"></path>
                <rect id="Rectangle" x="6.10016938" y="1.93052607" width="3.80080782" height="1"></rect>
                <polygon id="Path" points="2.91700326 6.77672986 4.18840391 8.04855924 5.86522476 6.37124171 5.31241694 5.81832227 4.18840391 6.94261611 3.46981107 6.22381043"></polygon>
                <polygon id="Path" points="4.18840391 11.9212891 3.46981107 11.2024834 2.91700326 11.7554028 4.18840391 13.0272322 5.86522476 11.3499147 5.31241694 10.7969953"></polygon>
                <polygon id="Path" points="5.16502932 15.4984787 4.39108795 16.2725972 3.6171987 15.4984787 3.064443 16.0513981 3.83833225 16.8255687 3.064443 17.5996872 3.6171987 18.1526066 4.39108795 17.3784882 5.16502932 18.1526066 5.71778502 17.5996872 4.94389577 16.8255687 5.71778502 16.0513981"></polygon>
            </g>
        </g>
    </g>
</svg>