<?xml version="1.0" encoding="UTF-8"?>
<svg width="22px" height="22px" viewBox="0 0 22 22" version="1.1" xmlns="http://www.w3.org/2000/svg" xmlns:xlink="http://www.w3.org/1999/xlink">
    <!-- Generator: Sketch 53 (72520) - https://sketchapp.com -->
    <title>tabicon_driver</title>
    <desc>Created with Sketch.</desc>
    <g id="Symbols" stroke="none" stroke-width="1" fill="none" fill-rule="evenodd">
        <g id="Lord-nav-dashboard" transform="translate(-31.000000, -172.000000)" fill="#FB6240" fill-rule="nonzero">
            <g id="tabicon_driver" transform="translate(31.000000, 172.000000)">
                <path d="M10.9994608,0 C4.93430882,0 0,4.93430882 0,10.9994608 C0,17.0646127 4.93430882,21.9989216 10.9994608,21.9989216 C17.0646127,21.9989216 21.9989755,17.0645588 21.9989755,10.9994608 C21.9989755,4.93436275 17.0646127,0 10.9994608,0 Z M10.9994608,21.3518627 C5.29110784,21.3518627 0.647058824,16.7077598 0.647058824,10.9994608 C0.647058824,5.29116176 5.29110784,0.647058824 10.9994608,0.647058824 C16.7078137,0.647058824 21.3518627,5.29110784 21.3518627,10.9994608 C21.3518627,16.7078137 16.7078137,21.3518627 10.9994608,21.3518627 Z" id="Shape"></path>
                <path d="M13.78575,10.9994608 C13.78575,9.46312745 12.5357941,8.21317157 10.9994608,8.21317157 C9.46312745,8.21317157 8.21317157,9.46312745 8.21317157,10.9994608 C8.21317157,12.535848 9.46307353,13.7858039 10.9994608,13.7858039 C12.535848,13.7858039 13.78575,12.535848 13.78575,10.9994608 Z M10.9994608,13.1387451 C9.81992647,13.1387451 8.86023039,12.179049 8.86023039,10.9994608 C8.86023039,9.81987255 9.81987255,8.86023039 10.9994608,8.86023039 C12.179049,8.86023039 13.1386912,9.81987255 13.1386912,10.9994608 C13.1386912,12.179049 12.1789951,13.1387451 10.9994608,13.1387451 Z" id="Shape"></path>
                <path d="M19.6505294,12.9980637 C19.6503676,12.9980098 19.6499363,12.997902 19.6498824,12.997902 C17.4648725,12.414848 15.1148627,13.0447598 13.5174363,14.6422402 C12.1423284,16.0172941 11.4794167,17.9151716 11.6986618,19.8493382 C11.6986618,19.8493922 11.6987157,19.8494461 11.6987157,19.8495 C11.6987157,19.8496078 11.6987157,19.8496618 11.6987157,19.8497696 C11.7176422,20.0148235 11.8575147,20.1364706 12.0197108,20.1364706 C12.0320588,20.1364706 12.0445147,20.1357157 12.0569706,20.1343137 C13.8997402,19.9229412 15.6167108,19.1666373 17.0222304,17.9470931 C18.4147549,16.7388725 19.402598,15.1645784 19.8788873,13.3944412 C19.9253137,13.222 19.8230784,13.0445441 19.6505294,12.9980637 Z M16.5981912,17.458402 C15.3760588,18.5187696 13.9008186,19.2021716 12.3137451,19.4469216 C12.2227794,17.8252304 12.8182892,16.2564902 13.9750147,15.0997647 C15.3313578,13.7433137 17.2918922,13.1641961 19.160598,13.5476324 C18.689,15.0619657 17.8080833,16.4086569 16.5981912,17.458402 Z" id="Shape"></path>
                <path d="M2.34893137,12.997902 C2.34887745,12.997902 2.34882353,12.9979559 2.34882353,12.9979559 C2.34866176,12.9980098 2.3485,12.9980098 2.34833824,12.9980637 C2.17578922,13.0444902 2.07355392,13.222 2.11998039,13.394549 C2.59626961,15.1646863 3.58411275,16.7389265 4.97663725,17.947201 C6.38215686,19.1666912 8.09912745,19.923049 9.94184314,20.1344216 C9.95435294,20.1358235 9.96680882,20.1365784 9.97910294,20.1365784 C10.141299,20.1365784 10.2812255,20.0148235 10.300152,19.8498775 C10.300152,19.8497696 10.300152,19.8497157 10.300152,19.8496078 C10.300152,19.8495539 10.3002059,19.8495 10.3002059,19.8494461 C10.519451,17.9153333 9.85653922,16.017402 8.48148529,14.642348 C6.88395098,13.0447598 4.53415686,12.4146863 2.34893137,12.997902 Z M9.68506863,19.4469216 C8.0979951,19.2022255 6.6227549,18.5187696 5.40067647,17.458402 C4.19078431,16.4086569 3.30981373,15.0619657 2.83826961,13.5476324 C4.70686765,13.1641961 6.66745588,13.7433676 8.02390686,15.0997647 C9.18057843,16.2564363 9.77608824,17.8252843 9.68506863,19.4469216 Z" id="Shape"></path>
                <path d="M17.4568382,4.45402941 C15.7253627,2.74557843 13.4320245,1.80470098 10.9994069,1.80470098 C8.56678922,1.80470098 6.2735049,2.74557843 4.54192157,4.45402941 C2.81211765,6.1607549 1.84039706,8.43770098 1.80577941,10.8653578 C1.80383824,11.00275 1.88881863,11.1263382 2.0177451,11.1736814 C2.05419608,11.1871078 2.09188725,11.1935245 2.12920098,11.1935245 C2.22394118,11.1935245 2.31620098,11.1518971 2.37885784,11.0758137 C4.30714706,8.73777451 7.52976961,7.34190686 10.9993529,7.34190686 C14.4689363,7.34190686 17.6915049,8.73777451 19.619848,11.0758137 C19.7072549,11.1818235 19.8520343,11.2209167 19.9809608,11.1736275 C20.1099412,11.1262843 20.1949216,11.0026961 20.1929265,10.8653039 C20.1584167,8.43770098 19.1866422,6.1607549 17.4568382,4.45402941 Z M10.9994069,6.69490196 C7.69358333,6.69490196 4.59266176,7.90511765 2.51296078,9.9702598 C2.74142647,8.05663725 3.60514216,6.28736275 4.99642647,4.91462745 C6.60609314,3.32642157 8.7379902,2.4517598 10.9994608,2.4517598 C13.2609314,2.4517598 15.3928284,3.32642157 17.0024412,4.91462745 C18.3937255,6.28736275 19.2574412,8.05663725 19.4859608,9.9702598 C17.406152,7.90511765 14.3052304,6.69490196 10.9994069,6.69490196 Z" id="Shape"></path>
            </g>
        </g>
    </g>
</svg>